<svg width="34" height="34" viewBox="0 0 34 34" fill="none" xmlns="http://www.w3.org/2000/svg">
<path d="M30.2812 4.25H27.625V3.1875C27.625 2.62391 27.4011 2.08341 27.0026 1.6849C26.6041 1.28638 26.0636 1.0625 25.5 1.0625C24.9364 1.0625 24.3959 1.28638 23.9974 1.6849C23.5989 2.08341 23.375 2.62391 23.375 3.1875V4.25H19.125V3.1875C19.125 2.62391 18.9011 2.08341 18.5026 1.6849C18.1041 1.28638 17.5636 1.0625 17 1.0625C16.4364 1.0625 15.8959 1.28638 15.4974 1.6849C15.0989 2.08341 14.875 2.62391 14.875 3.1875V4.25H10.625V3.1875C10.625 2.62391 10.4011 2.08341 10.0026 1.6849C9.60409 1.28638 9.06359 1.0625 8.5 1.0625C7.93641 1.0625 7.39591 1.28638 6.9974 1.6849C6.59888 2.08341 6.375 2.62391 6.375 3.1875V4.25H3.71875C3.01427 4.25 2.33864 4.52985 1.8405 5.028C1.34235 5.52614 1.0625 6.20177 1.0625 6.90625V28.1562C1.0625 28.8607 1.34235 29.5364 1.8405 30.0345C2.33864 30.5326 3.01427 30.8125 3.71875 30.8125H18.5938C18.7346 30.8125 18.8698 30.7565 18.9694 30.6569C19.069 30.5573 19.125 30.4221 19.125 30.2812C19.125 30.1404 19.069 30.0052 18.9694 29.9056C18.8698 29.806 18.7346 29.75 18.5938 29.75H3.71875C3.29645 29.7487 2.89181 29.5804 2.59319 29.2818C2.29458 28.9832 2.12626 28.5786 2.125 28.1562V11.6875H31.875V20.7188C31.875 20.8596 31.931 20.9948 32.0306 21.0944C32.1302 21.194 32.2654 21.25 32.4062 21.25C32.5471 21.25 32.6823 21.194 32.7819 21.0944C32.8815 20.9948 32.9375 20.8596 32.9375 20.7188V6.90625C32.9375 6.20177 32.6576 5.52614 32.1595 5.028C31.6614 4.52985 30.9857 4.25 30.2812 4.25ZM24.4375 3.1875C24.4375 2.90571 24.5494 2.63546 24.7487 2.4362C24.948 2.23694 25.2182 2.125 25.5 2.125C25.7818 2.125 26.052 2.23694 26.2513 2.4362C26.4506 2.63546 26.5625 2.90571 26.5625 3.1875V6.375C26.5625 6.65679 26.4506 6.92704 26.2513 7.1263C26.052 7.32556 25.7818 7.4375 25.5 7.4375C25.2182 7.4375 24.948 7.32556 24.7487 7.1263C24.5494 6.92704 24.4375 6.65679 24.4375 6.375V3.1875ZM15.9375 3.1875C15.9375 2.90571 16.0494 2.63546 16.2487 2.4362C16.448 2.23694 16.7182 2.125 17 2.125C17.2818 2.125 17.552 2.23694 17.7513 2.4362C17.9506 2.63546 18.0625 2.90571 18.0625 3.1875V6.375C18.0625 6.65679 17.9506 6.92704 17.7513 7.1263C17.552 7.32556 17.2818 7.4375 17 7.4375C16.7182 7.4375 16.448 7.32556 16.2487 7.1263C16.0494 6.92704 15.9375 6.65679 15.9375 6.375V3.1875ZM7.4375 3.1875C7.4375 2.90571 7.54944 2.63546 7.7487 2.4362C7.94796 2.23694 8.21821 2.125 8.5 2.125C8.78179 2.125 9.05204 2.23694 9.2513 2.4362C9.45056 2.63546 9.5625 2.90571 9.5625 3.1875V6.375C9.5625 6.65679 9.45056 6.92704 9.2513 7.1263C9.05204 7.32556 8.78179 7.4375 8.5 7.4375C8.21821 7.4375 7.94796 7.32556 7.7487 7.1263C7.54944 6.92704 7.4375 6.65679 7.4375 6.375V3.1875ZM31.875 10.625H2.125V6.90625C2.12626 6.48395 2.29458 6.0793 2.59319 5.78069C2.89181 5.48208 3.29645 5.31376 3.71875 5.3125H6.375V6.375C6.375 6.93859 6.59888 7.47909 6.9974 7.8776C7.39591 8.27612 7.93641 8.5 8.5 8.5C9.06359 8.5 9.60409 8.27612 10.0026 7.8776C10.4011 7.47909 10.625 6.93859 10.625 6.375V5.3125H14.875V6.375C14.875 6.93859 15.0989 7.47909 15.4974 7.8776C15.8959 8.27612 16.4364 8.5 17 8.5C17.5636 8.5 18.1041 8.27612 18.5026 7.8776C18.9011 7.47909 19.125 6.93859 19.125 6.375V5.3125H23.375V6.375C23.375 6.93859 23.5989 7.47909 23.9974 7.8776C24.3959 8.27612 24.9364 8.5 25.5 8.5C26.0636 8.5 26.6041 8.27612 27.0026 7.8776C27.4011 7.47909 27.625 6.93859 27.625 6.375V5.3125H30.2812C30.7036 5.31376 31.1082 5.48208 31.4068 5.78069C31.7054 6.0793 31.8737 6.48395 31.875 6.90625V10.625Z" fill="black"/>
<path d="M15.9375 15.4062C15.9375 15.1245 15.8256 14.8542 15.6263 14.6549C15.427 14.4557 15.1568 14.3438 14.875 14.3438H12.75C12.4682 14.3438 12.198 14.4557 11.9987 14.6549C11.7994 14.8542 11.6875 15.1245 11.6875 15.4062V17C11.6875 17.2818 11.7994 17.552 11.9987 17.7513C12.198 17.9506 12.4682 18.0625 12.75 18.0625H14.875C15.1568 18.0625 15.427 17.9506 15.6263 17.7513C15.8256 17.552 15.9375 17.2818 15.9375 17V15.4062ZM12.75 17V15.4062H14.875V17H12.75Z" fill="black"/>
<path d="M9.5625 15.4062C9.5625 15.1245 9.45056 14.8542 9.2513 14.6549C9.05204 14.4557 8.78179 14.3438 8.5 14.3438H6.375C6.09321 14.3438 5.82296 14.4557 5.6237 14.6549C5.42444 14.8542 5.3125 15.1245 5.3125 15.4062V17C5.3125 17.2818 5.42444 17.552 5.6237 17.7513C5.82296 17.9506 6.09321 18.0625 6.375 18.0625H8.5C8.78179 18.0625 9.05204 17.9506 9.2513 17.7513C9.45056 17.552 9.5625 17.2818 9.5625 17V15.4062ZM6.375 17V15.4062H8.5V17H6.375Z" fill="black"/>
<path d="M27.625 18.0625C27.9068 18.0625 28.177 17.9506 28.3763 17.7513C28.5756 17.552 28.6875 17.2818 28.6875 17V15.4062C28.6875 15.1245 28.5756 14.8542 28.3763 14.6549C28.177 14.4557 27.9068 14.3438 27.625 14.3438H25.5C25.2182 14.3438 24.948 14.4557 24.7487 14.6549C24.5494 14.8542 24.4375 15.1245 24.4375 15.4062V17C24.4375 17.2818 24.5494 17.552 24.7487 17.7513C24.948 17.9506 25.2182 18.0625 25.5 18.0625H27.625ZM25.5 15.4062H27.625V17H25.5V15.4062Z" fill="black"/>
<path d="M15.9375 20.1875C15.9375 19.9057 15.8256 19.6355 15.6263 19.4362C15.427 19.2369 15.1568 19.125 14.875 19.125H12.75C12.4682 19.125 12.198 19.2369 11.9987 19.4362C11.7994 19.6355 11.6875 19.9057 11.6875 20.1875V21.7812C11.6875 22.063 11.7994 22.3333 11.9987 22.5326C12.198 22.7318 12.4682 22.8438 12.75 22.8438H14.875C15.1568 22.8438 15.427 22.7318 15.6263 22.5326C15.8256 22.3333 15.9375 22.063 15.9375 21.7812V20.1875ZM12.75 21.7812V20.1875H14.875V21.7812H12.75Z" fill="black"/>
<path d="M9.5625 20.1875C9.5625 19.9057 9.45056 19.6355 9.2513 19.4362C9.05204 19.2369 8.78179 19.125 8.5 19.125H6.375C6.09321 19.125 5.82296 19.2369 5.6237 19.4362C5.42444 19.6355 5.3125 19.9057 5.3125 20.1875V21.7812C5.3125 22.063 5.42444 22.3333 5.6237 22.5326C5.82296 22.7318 6.09321 22.8438 6.375 22.8438H8.5C8.78179 22.8438 9.05204 22.7318 9.2513 22.5326C9.45056 22.3333 9.5625 22.063 9.5625 21.7812V20.1875ZM6.375 21.7812V20.1875H8.5V21.7812H6.375Z" fill="black"/>
<path d="M14.875 23.9062H12.75C12.4682 23.9062 12.198 24.0182 11.9987 24.2174C11.7994 24.4167 11.6875 24.687 11.6875 24.9688V26.5625C11.6875 26.8443 11.7994 27.1145 11.9987 27.3138C12.198 27.5131 12.4682 27.625 12.75 27.625H14.875C15.1568 27.625 15.427 27.5131 15.6263 27.3138C15.8256 27.1145 15.9375 26.8443 15.9375 26.5625V24.9688C15.9375 24.687 15.8256 24.4167 15.6263 24.2174C15.427 24.0182 15.1568 23.9062 14.875 23.9062ZM12.75 26.5625V24.9688H14.875V26.5625H12.75Z" fill="black"/>
<path d="M19.125 18.0625H21.25C21.5318 18.0625 21.802 17.9506 22.0013 17.7513C22.2006 17.552 22.3125 17.2818 22.3125 17V15.4062C22.3125 15.1245 22.2006 14.8542 22.0013 14.6549C21.802 14.4557 21.5318 14.3438 21.25 14.3438H19.125C18.8432 14.3438 18.573 14.4557 18.3737 14.6549C18.1744 14.8542 18.0625 15.1245 18.0625 15.4062V17C18.0625 17.2818 18.1744 17.552 18.3737 17.7513C18.573 17.9506 18.8432 18.0625 19.125 18.0625ZM19.125 15.4062H21.25V17H19.125V15.4062Z" fill="black"/>
<path d="M18.0625 21.7812C18.0625 22.063 18.1744 22.3333 18.3737 22.5326C18.573 22.7318 18.8432 22.8438 19.125 22.8438C19.2659 22.8438 19.401 22.7878 19.5007 22.6882C19.6003 22.5885 19.6562 22.4534 19.6562 22.3125C19.6562 22.1716 19.6003 22.0365 19.5007 21.9368C19.401 21.8372 19.2659 21.7812 19.125 21.7812V20.1875H21.25C21.3909 20.1875 21.526 20.1315 21.6257 20.0319C21.7253 19.9323 21.7812 19.7971 21.7812 19.6562C21.7812 19.5154 21.7253 19.3802 21.6257 19.2806C21.526 19.181 21.3909 19.125 21.25 19.125H19.125C18.8432 19.125 18.573 19.2369 18.3737 19.4362C18.1744 19.6355 18.0625 19.9057 18.0625 20.1875V21.7812Z" fill="black"/>
<path d="M8.5 23.9062H6.375C6.09321 23.9062 5.82296 24.0182 5.6237 24.2174C5.42444 24.4167 5.3125 24.687 5.3125 24.9688V26.5625C5.3125 26.8443 5.42444 27.1145 5.6237 27.3138C5.82296 27.5131 6.09321 27.625 6.375 27.625H8.5C8.78179 27.625 9.05204 27.5131 9.2513 27.3138C9.45056 27.1145 9.5625 26.8443 9.5625 26.5625V24.9688C9.5625 24.687 9.45056 24.4167 9.2513 24.2174C9.05204 24.0182 8.78179 23.9062 8.5 23.9062ZM6.375 26.5625V24.9688H8.5V26.5625H6.375Z" fill="black"/>
<path d="M26.0313 19.125C24.6653 19.125 23.3301 19.53 22.1943 20.2889C21.0586 21.0478 20.1734 22.1264 19.6507 23.3883C19.128 24.6503 18.9912 26.0389 19.2577 27.3786C19.5242 28.7183 20.1819 29.9488 21.1478 30.9147C22.1137 31.8806 23.3442 32.5383 24.6839 32.8048C26.0236 33.0713 27.4122 32.9345 28.6742 32.4118C29.9361 31.8891 31.0147 31.0039 31.7736 29.8682C32.5325 28.7324 32.9375 27.3972 32.9375 26.0312C32.9354 24.2002 32.2071 22.4448 30.9124 21.1501C29.6177 19.8554 27.8623 19.1271 26.0313 19.125ZM26.0313 31.875C24.8755 31.875 23.7456 31.5323 22.7846 30.8901C21.8236 30.248 21.0746 29.3354 20.6323 28.2676C20.19 27.1997 20.0743 26.0248 20.2998 24.8912C20.5253 23.7576 21.0818 22.7164 21.8991 21.8991C22.7164 21.0818 23.7576 20.5253 24.8912 20.2998C26.0248 20.0743 27.1998 20.19 28.2676 20.6323C29.3354 21.0746 30.248 21.8236 30.8901 22.7846C31.5323 23.7456 31.875 24.8755 31.875 26.0312C31.8732 27.5805 31.2569 29.0659 30.1614 30.1614C29.0659 31.2569 27.5805 31.8732 26.0313 31.875Z" fill="black"/>
<path d="M29.1008 23.8042L24.9687 27.9363L23.0907 26.0578C22.9906 25.961 22.8564 25.9075 22.7171 25.9087C22.5778 25.9099 22.4445 25.9658 22.346 26.0643C22.2475 26.1628 22.1917 26.296 22.1904 26.4353C22.1892 26.5746 22.2428 26.7088 22.3396 26.809L24.5931 29.0631C24.6927 29.1627 24.8278 29.2186 24.9687 29.2186C25.1096 29.2186 25.2447 29.1627 25.3443 29.0631L29.852 24.5554C29.9487 24.4552 30.0023 24.321 30.0011 24.1818C29.9999 24.0425 29.944 23.9092 29.8455 23.8107C29.747 23.7122 29.6137 23.6564 29.4745 23.6551C29.3352 23.6539 29.201 23.7075 29.1008 23.8042Z" fill="black"/>
</svg>
