<svg width="186" height="186" viewBox="0 0 186 186" fill="none" xmlns="http://www.w3.org/2000/svg">
<path d="M156.938 154.031H174.375C177.586 154.031 180.188 151.43 180.188 148.219V127.997C180.188 121.144 175.401 115.224 168.702 113.788L139.5 107.531L118.985 80.8606C113.646 73.9204 105.189 70.1103 96.4526 70.7148L38.6212 74.7022C30.7394 75.2457 23.5232 79.3232 18.9923 85.7983L13.1682 94.1189C8.38163 100.957 5.8125 109.103 5.8125 117.45V148.219C5.8125 151.43 8.41359 154.031 11.625 154.031H29.0625" fill="#BF0000"/>
<path d="M59.5783 127.875C92.4276 127.875 120.636 115.98 132.923 98.981L118.985 80.8606C113.646 73.9204 105.189 70.1103 96.4528 70.7148L38.6213 74.7022C30.7395 75.2457 23.5233 79.3232 18.9925 85.7983L13.1684 94.1189C8.76539 100.408 6.26893 107.804 5.89111 115.445C20.0765 123.167 38.9119 127.875 59.5783 127.875Z" fill="#BF0000"/>
<path d="M5.8125 122.062H17.4375V133.688L8.71875 142.406H5.8125V122.062Z" fill="#E47C6E"/>
<path d="M168.562 136.594H180.188V127.997C180.188 126.957 180.045 125.954 179.833 124.969H168.562V136.594Z" fill="#F9D18B"/>
<path d="M136.594 174.375C147.829 174.375 156.938 165.267 156.938 154.031C156.938 142.796 147.829 133.688 136.594 133.688C125.358 133.688 116.25 142.796 116.25 154.031C116.25 165.267 125.358 174.375 136.594 174.375Z" fill="#4D5D7A"/>
<path d="M49.4062 174.375C60.6418 174.375 69.75 165.267 69.75 154.031C69.75 142.796 60.6418 133.688 49.4062 133.688C38.1707 133.688 29.0625 142.796 29.0625 154.031C29.0625 165.267 38.1707 174.375 49.4062 174.375Z" fill="#4D5D7A"/>
<path d="M136.594 162.75C141.409 162.75 145.312 158.846 145.312 154.031C145.312 149.216 141.409 145.312 136.594 145.312C131.779 145.312 127.875 149.216 127.875 154.031C127.875 158.846 131.779 162.75 136.594 162.75Z" fill="#8892A0"/>
<path d="M49.4062 162.75C54.2215 162.75 58.125 158.846 58.125 154.031C58.125 149.216 54.2215 145.312 49.4062 145.312C44.591 145.312 40.6875 149.216 40.6875 154.031C40.6875 158.846 44.591 162.75 49.4062 162.75Z" fill="#8892A0"/>
<path d="M17.4375 110.438H124.969L109.397 88.1902C106.441 83.9674 101.472 81.6278 96.3335 82.0376L39.2576 86.6033C34.6716 86.9695 30.5331 89.4863 28.0947 93.3865L17.4375 110.438Z" fill="#EBF7FE"/>
<path d="M49.4063 101.719C74.8622 101.719 96.6591 94.6623 105.814 84.6444C103.088 82.735 99.7542 81.7643 96.3336 82.0404L39.2577 86.6061C34.6717 86.9723 30.5332 89.4891 28.0948 93.3893L24.4126 99.2803C32.0473 100.832 40.49 101.719 49.4063 101.719Z" fill="#EBF7FE"/>
<path d="M145.312 40.6875C137.288 40.6875 130.781 47.1946 130.781 55.2188C130.781 47.1946 124.274 40.6875 116.25 40.6875C124.274 40.6875 130.781 34.1804 130.781 26.1562C130.781 34.1804 137.288 40.6875 145.312 40.6875Z" fill="#D4EDEF"/>
<path d="M180.188 20.3438C172.163 20.3438 165.656 26.8508 165.656 34.875C165.656 26.8508 159.149 20.3438 151.125 20.3438C159.149 20.3438 165.656 13.8367 165.656 5.8125C165.656 13.8367 172.163 20.3438 180.188 20.3438Z" fill="#D4EDEF"/>
<path d="M34.875 40.6875C26.8508 40.6875 20.3438 47.1946 20.3438 55.2188C20.3438 47.1946 13.8367 40.6875 5.8125 40.6875C13.8367 40.6875 20.3438 34.1804 20.3438 26.1562C20.3438 34.1804 26.8508 40.6875 34.875 40.6875Z" fill="#D4EDEF"/>
<path d="M69.75 20.3438C61.7258 20.3438 55.2188 26.8508 55.2188 34.875C55.2188 26.8508 48.7117 20.3438 40.6875 20.3438C48.7117 20.3438 55.2188 13.8367 55.2188 5.8125C55.2188 13.8367 61.7258 20.3438 69.75 20.3438Z" fill="#D4EDEF"/>
<path d="M5.8125 174.375H180.188V180.188H5.8125V174.375Z" fill="#8892A0"/>
<path d="M81.375 83.235V110.438H87.1875V82.77L81.375 83.235Z" fill="#243242"/>
<path d="M81.375 119.156H93V124.969H81.375V119.156Z" fill="white"/>
<path d="M46.5 119.156H58.125V124.969H46.5V119.156Z" fill="white"/>
<path d="M46.5 86.0251V110.438H52.3125V85.5601L46.5 86.0251Z" fill="#243242"/>
</svg>
