<svg width="193" height="193" viewBox="0 0 193 193" fill="none" xmlns="http://www.w3.org/2000/svg">
<g clip-path="url(#clip0)">
<path d="M111.202 88.3363L184.65 93.4033C183.016 43.8321 142.322 4.14648 92.3534 4.14648C62.9006 4.14648 36.6688 17.9343 19.7583 39.4071L111.202 88.3363Z" fill="#D4EDEF"/>
<path d="M12.9563 143.688C29.0643 170.732 58.5906 188.853 92.3536 188.853C126.117 188.853 155.643 170.732 171.751 143.688H12.9563Z" fill="#5F5E6A"/>
<path d="M80.0777 143.688H12.9563C26.573 166.55 49.779 183.034 77.027 187.586C59.0007 179.031 60.4441 149.943 80.0777 143.688Z" fill="#5F5E6A"/>
<path d="M172.188 108.373C170.598 108.373 169.096 107.65 168.105 106.407L162.604 99.5096C161.867 98.5845 161.465 97.4367 161.465 96.2535C161.465 93.3694 163.803 91.0312 166.688 91.0312H183.523C180.674 87.4833 176.83 84.8012 172.411 83.4024C157.989 78.8367 135.634 77.3839 124.507 76.9308C120.157 76.7537 116.036 74.9918 112.863 72.0116C100.874 60.7543 88.3488 51.4236 79.9977 45.6057C73.9051 41.3612 66.6581 39.0923 59.2329 39.0923H20.0113C17.8321 41.8346 15.8094 44.7066 13.948 47.6895L0.960854 83.1721L0.959723 83.1713C0.330211 87.524 0 91.9732 0 96.5C0 111.916 3.78235 126.447 10.462 139.224H188.706V108.374H172.188V108.373Z" fill="#787885"/>
<path d="M52.5593 114.13V83.1724V49.3631C52.5593 48.3804 52.2423 47.4169 51.6335 46.6453C48.4596 42.6232 51.3731 39.9683 52.2981 39.2751C51.1133 39.1582 49.921 39.0927 48.7227 39.0927H20.0113C17.8321 41.835 15.8094 44.707 13.948 47.6898L0.960854 83.1724L0.959723 83.1717C0.330211 87.524 0 91.9731 0 96.5C0 111.916 3.78235 126.447 10.462 139.224H75.8739C51.9098 139.222 52.5593 114.13 52.5593 114.13Z" fill="#7A7585"/>
<path d="M114.423 131.372C112.644 131.372 111.202 129.93 111.202 128.152V88.3363C111.202 86.5578 112.644 85.116 114.423 85.116C116.201 85.116 117.643 86.5578 117.643 88.3363V128.152C117.643 129.93 116.201 131.372 114.423 131.372Z" fill="#7A7585"/>
<path d="M108.563 79.643C108.021 79.208 107.495 78.7508 106.985 78.2721C95.3881 67.3838 83.2389 58.3297 75.0888 52.6521C70.4195 49.3993 64.9367 47.6801 59.2322 47.6801H13.9519C7.34502 58.2679 2.82346 70.2889 0.960938 83.1724H107.328C107.351 83.1724 107.373 83.1721 107.396 83.1721C109.229 83.143 109.993 80.7912 108.563 79.643Z" fill="#363540"/>
<path d="M51.4489 47.9156C50.263 47.7622 49.062 47.6801 47.8505 47.6801H13.9519C7.34502 58.2679 2.82346 70.2889 0.960938 83.1724H51.6871V49.3632C51.6871 48.8682 51.6065 48.3785 51.4489 47.9156Z" fill="#21212B"/>
<path d="M141.478 116.126C154.215 116.126 164.576 126.487 164.576 139.223H173.797C173.797 121.375 159.327 106.905 141.478 106.905C123.63 106.905 109.16 121.375 109.16 139.223H118.381C118.381 126.487 128.742 116.126 141.478 116.126Z" fill="#7A7585"/>
<path d="M130.724 117.652C130.843 116.918 130.443 116.198 129.756 115.914C127.201 114.858 127.178 112.495 127.427 111.088C127.483 110.77 127.436 110.453 127.311 110.172C116.564 115.422 109.16 126.457 109.16 139.224H118.381C118.381 130.41 123.344 122.736 130.621 118.844C130.626 118.414 130.666 118.008 130.724 117.652Z" fill="#74727F"/>
<path d="M108.563 79.6431C108.021 79.2081 107.495 78.7508 106.985 78.2721C103.315 74.826 99.5896 71.5653 95.9531 68.5358C95.9599 68.5569 99.2485 78.5982 88.8118 83.1729H107.329C107.351 83.1729 107.374 83.1725 107.396 83.1725C109.229 83.1431 109.993 80.7913 108.563 79.6431Z" fill="#21212B"/>
<path d="M42.8992 47.6801H52.6178V83.1728H42.8992V47.6801Z" fill="#5F5E6A"/>
<path d="M33.6099 47.6801H43.3285V83.1728H33.6099V47.6801Z" fill="#4B4A55"/>
<path d="M111.093 75.4943H103.662C101.626 75.4943 99.9607 77.16 99.9607 79.1959V91.246C99.9607 93.2819 101.626 94.9477 103.662 94.9477H111.093C115.691 94.9477 119.452 91.1861 119.452 86.5891V83.8532C119.452 79.2559 115.691 75.4943 111.093 75.4943Z" fill="#EEEFEB"/>
<path d="M106.494 86.5888V83.8528C106.494 79.9016 109.274 76.5705 112.973 75.7114C112.368 75.5708 111.739 75.4943 111.093 75.4943H103.662C101.626 75.4943 99.9607 77.16 99.9607 79.1959V91.246C99.9607 93.2819 101.626 94.9477 103.662 94.9477H111.093C111.739 94.9477 112.368 94.8708 112.973 94.7306C109.274 93.8711 106.494 90.54 106.494 86.5888Z" fill="#D6D6D0"/>
<path d="M69.348 97.9852H60.5465C58.768 97.9852 57.3262 96.5433 57.3262 94.7652C57.3262 92.9868 58.7676 91.5453 60.5465 91.5453H69.348C71.1264 91.5453 72.5679 92.9871 72.5679 94.7652C72.5679 96.5433 71.1264 97.9852 69.348 97.9852Z" fill="#EEEFEB"/>
<path d="M12.0218 97.9852H3.21993C1.44147 97.9852 0 96.5433 0 94.7652C0 92.9868 1.44147 91.5453 3.21993 91.5453H12.0214C13.7999 91.5453 15.2413 92.9871 15.2413 94.7652C15.2417 96.5433 13.8003 97.9852 12.0218 97.9852Z" fill="#EEEFEB"/>
<path d="M186.777 118.113H184.339C181.703 118.113 179.547 120.269 179.547 122.905V127.49C179.547 130.126 181.703 132.282 184.339 132.282H186.777C189.412 132.282 191.569 130.126 191.569 127.49V122.905C191.569 120.27 189.412 118.113 186.777 118.113Z" fill="#E9E9E9"/>
<path d="M134.179 96.2972H129.457C127.678 96.2972 126.236 94.8553 126.236 93.0772C126.236 91.2988 127.678 89.8569 129.457 89.8569H134.179C135.958 89.8569 137.4 91.2988 137.4 93.0772C137.4 94.8553 135.958 96.2972 134.179 96.2972Z" fill="#FFC743"/>
<path d="M118.381 138.795H10.2354C12.1654 142.534 14.3445 146.124 16.7483 149.544H121.043C119.346 146.331 118.381 142.674 118.381 138.795Z" fill="#4B4A55"/>
<path d="M187.625 138.795H164.576C164.576 142.674 163.61 146.331 161.913 149.544H187.625C190.594 149.544 193 147.137 193 144.169C193 141.201 190.594 138.795 187.625 138.795Z" fill="#4B4A55"/>
<path d="M141.478 164.462C127.562 164.462 116.24 153.14 116.24 139.224C116.24 125.308 127.562 113.986 141.478 113.986C155.394 113.986 166.717 125.308 166.717 139.224C166.716 153.14 155.394 164.462 141.478 164.462Z" fill="#21212B"/>
<path d="M156.946 159.145C156.926 159.142 156.906 159.139 156.885 159.137C151.863 158.613 151.333 155.57 151.477 153.763C151.537 153.017 151.082 152.342 150.376 152.091C148.038 151.262 147.708 149.403 147.771 148.179C147.807 147.482 147.363 146.843 146.704 146.613C136.422 143.026 136.95 134.496 137.615 131.102C137.764 130.342 137.349 129.6 136.637 129.295C134.54 128.398 134.41 126.485 134.607 125.177C134.72 124.425 134.28 123.716 133.573 123.434C130.508 122.211 130.446 119.36 130.724 117.652C130.791 117.244 130.691 116.842 130.475 116.515C122.057 120.61 116.24 129.25 116.24 139.224C116.24 153.14 127.562 164.462 141.478 164.462C147.304 164.462 152.67 162.472 156.946 159.145Z" fill="black"/>
<path d="M154.818 140.774C155.713 133.424 150.481 126.739 143.131 125.843C135.781 124.948 129.096 130.18 128.2 137.53C127.305 144.881 132.537 151.565 139.887 152.461C147.238 153.356 153.922 148.124 154.818 140.774Z" fill="#D6D6D0"/>
<path d="M147.771 148.179C147.807 147.482 147.363 146.843 146.704 146.613C136.422 143.026 136.95 134.496 137.615 131.102C137.764 130.342 137.349 129.6 136.637 129.295C135.681 128.886 135.136 128.265 134.843 127.587C130.805 129.898 128.076 134.247 128.076 139.224C128.076 146.614 134.088 152.626 141.479 152.626C144.018 152.626 146.394 151.917 148.42 150.685C147.839 149.858 147.734 148.907 147.771 148.179Z" fill="#C6C6C1"/>
<path d="M141.478 155.846C132.312 155.846 124.855 148.389 124.855 139.223C124.855 130.058 132.312 122.601 141.478 122.601C150.644 122.601 158.101 130.057 158.101 139.223C158.101 148.389 150.644 155.846 141.478 155.846ZM141.478 129.041C135.863 129.041 131.296 133.609 131.296 139.223C131.296 144.838 135.863 149.406 141.478 149.406C147.093 149.406 151.661 144.838 151.661 139.223C151.661 133.609 147.093 129.041 141.478 129.041Z" fill="#EEEFEB"/>
<path d="M150.376 152.091C148.038 151.262 147.708 149.403 147.771 148.179C147.786 147.89 147.715 147.612 147.583 147.368C145.881 148.647 143.767 149.406 141.478 149.406C135.864 149.406 131.296 144.838 131.296 139.223C131.296 135.07 133.797 131.491 137.371 129.909C137.196 129.646 136.947 129.428 136.637 129.295C134.54 128.398 134.41 126.485 134.606 125.177C134.66 124.82 134.586 124.474 134.421 124.178C128.775 126.837 124.855 132.58 124.855 139.223C124.855 148.389 132.312 155.846 141.478 155.846C145.099 155.846 148.452 154.679 151.185 152.705C150.992 152.43 150.714 152.211 150.376 152.091Z" fill="#D6D6D0"/>
<path d="M183.418 90.9008H166.356C163.428 90.9008 161.054 93.2741 161.054 96.2019C161.054 97.4028 161.462 98.568 162.211 99.507L167.794 106.509C168.8 107.77 170.326 108.504 171.939 108.504H188.707V105.745C188.707 102.469 188.021 99.2288 186.693 96.2339C185.835 94.3001 184.729 92.5103 183.418 90.9008Z" fill="#D6D6D0"/>
<path d="M183.627 91.1759C179.397 92.2039 176.255 96.0145 176.255 100.561C176.255 103.854 177.904 106.76 180.42 108.504H188.706V105.745C188.706 102.468 188.02 99.2284 186.692 96.2335C185.882 94.4071 184.844 92.715 183.627 91.1759Z" fill="#EEEFEB"/>
<path d="M70.7341 138.795H10.2354C12.1654 142.534 14.3445 146.124 16.7483 149.544H70.7337C64.9237 143.733 70.7341 138.795 70.7341 138.795Z" fill="#363540"/>
</g>
<defs>
<clipPath id="clip0">
<rect width="193" height="193" fill="white"/>
</clipPath>
</defs>
</svg>
