<svg width="187" height="187" viewBox="0 0 187 187" fill="none" xmlns="http://www.w3.org/2000/svg">
<path d="M5.84375 105.188H181.156V67.2031L140.25 55.5156L115.017 16.5203C110.71 9.86425 103.32 5.84375 95.3934 5.84375H47.796C38.3233 5.84375 29.7885 11.5589 26.1829 20.3187L11.6875 55.5156H5.84375" fill="#BF0000"/>
<path d="M131.484 87.6562C81.459 87.6562 40.9062 60.1848 40.9062 26.2969C40.9062 19.1733 42.7178 12.3391 46.0137 5.97816C46.6068 5.93141 47.1912 5.84375 47.796 5.84375H95.3934C103.323 5.84375 110.71 9.86425 115.02 16.5203L140.25 55.5156L181.156 67.2031V77.5992C166.892 83.9513 149.831 87.6562 131.484 87.6562Z" fill="#BF0000"/>
<path d="M17.5312 90.5781H87.6562C94.1107 90.5781 99.3438 95.8112 99.3438 102.266V116.875H29.2188V102.266C29.2188 95.8112 23.9857 90.5781 17.5312 90.5781C11.0768 90.5781 5.84375 95.8112 5.84375 102.266V181.156H87.6562V90.5781" fill="#4D5D7A"/>
<path d="M140.25 128.562C153.16 128.562 163.625 118.097 163.625 105.188C163.625 92.2778 153.16 81.8125 140.25 81.8125C127.34 81.8125 116.875 92.2778 116.875 105.188C116.875 118.097 127.34 128.562 140.25 128.562Z" fill="#4D5D7A"/>
<path d="M140.25 116.875C146.705 116.875 151.938 111.642 151.938 105.188C151.938 98.7327 146.705 93.5 140.25 93.5C133.795 93.5 128.562 98.7327 128.562 105.188C128.562 111.642 133.795 116.875 140.25 116.875Z" fill="#8892A0"/>
<path d="M128.562 116.875H169.469V181.156H128.562V116.875Z" fill="#4B4A55"/>
<path d="M128.562 137.328H169.469V160.703H128.562V137.328Z" fill="#4B4A55"/>
<path d="M181.156 20.4531C173.089 20.4531 166.547 26.9952 166.547 35.0625C166.547 26.9952 160.005 20.4531 151.938 20.4531C160.005 20.4531 166.547 13.911 166.547 5.84375C166.547 13.911 173.089 20.4531 181.156 20.4531Z" fill="#D4EDEF"/>
<path d="M38.0253 25.0229L26.2969 55.5156H122.719L102.765 23.0945C100.638 19.6379 96.8718 17.5312 92.8134 17.5312H48.9326C44.0969 17.5312 39.7609 20.5086 38.0253 25.0229Z" fill="#EBF7FE"/>
<path d="M103.727 46.75C72.3166 46.75 46.6012 34.3612 44.0796 18.6065C45.5727 17.9228 47.2177 17.5312 48.9328 17.5312H92.8135C96.872 17.5312 100.641 19.6379 102.768 23.0945L116.858 45.9874C112.624 46.4724 108.244 46.75 103.727 46.75Z" fill="#EBF7FE"/>
<path d="M169.469 81.8126V63.8635L181.156 67.2032V81.8126H169.469Z" fill="#E39854"/>
<path d="M70.125 17.5312H75.9688V55.5156H70.125V17.5312Z" fill="#8892A0"/>
<path d="M70.125 64.2812H81.8125V70.125H70.125V64.2812Z" fill="white"/>
<path d="M23.375 64.2812H35.0625V70.125H23.375V64.2812Z" fill="white"/>
<path d="M126.061 106.687L137.761 87.2178L142.769 90.2273L131.069 109.696L126.061 106.687Z" fill="#4B4A55"/>
<path d="M143.172 116.875V93.5H125.641V81.8125H151.938L163.625 93.5H154.859V116.875" fill="#EBF7FE"/>
<path d="M23.375 181.156V169.469L17.5312 163.625V131.484C17.5312 128.256 20.1463 125.641 23.375 125.641C26.6037 125.641 29.2188 128.256 29.2188 131.484V119.797C29.2188 116.568 31.8338 113.953 35.0625 113.953C38.2912 113.953 40.9062 116.568 40.9062 119.797V113.953C40.9062 110.724 43.5213 108.109 46.75 108.109C49.9787 108.109 52.5938 110.724 52.5938 113.953V119.797C52.5938 116.568 55.2088 113.953 58.4375 113.953C61.6662 113.953 64.2812 116.568 64.2812 119.797V149.016C64.2812 145.787 66.8963 143.172 70.125 143.172C73.3537 143.172 75.9688 145.787 75.9688 149.016V160.703L58.4375 172.391V181.156" fill="#EFBE9A"/>
<path d="M61.3594 149.016H67.2031V154.859H61.3594V149.016Z" fill="#DB9B7C"/>
<path d="M49.6719 119.797H55.5156V140.25H49.6719V119.797Z" fill="#DB9B7C"/>
<path d="M37.9844 119.797H43.8281V140.25H37.9844V119.797Z" fill="#DB9B7C"/>
<path d="M26.2969 131.484H32.1406V140.25H26.2969V131.484Z" fill="#DB9B7C"/>
<path d="M17.5312 90.5781H87.6562C94.1107 90.5781 99.3438 95.8112 99.3438 102.266V116.875H29.2188V102.266C29.2188 95.8112 23.9857 90.5781 17.5312 90.5781Z" fill="#8892A0"/>
</svg>
