<svg width="52" height="52" viewBox="0 0 52 52" fill="none" xmlns="http://www.w3.org/2000/svg">
<path d="M28.5236 0.419434H20.1267C17.8108 0.419434 15.9331 2.29711 15.9331 4.61298V7.12911C15.9331 9.44498 17.8108 11.3227 20.1267 11.3227H28.5236C30.8394 11.3227 32.7171 9.44498 32.7171 7.12911V4.61298C32.7171 2.29711 30.8394 0.419434 28.5236 0.419434Z" fill="#363540"/>
<path d="M28.5236 9.64521H20.1267C17.8108 9.64521 15.9331 7.76753 15.9331 5.45166V7.12908C15.9331 9.44495 17.8108 11.3226 20.1267 11.3226H28.5236C30.8394 11.3226 32.7171 9.44495 32.7171 7.12908V5.45166C32.7171 7.76753 30.8394 9.64521 28.5236 9.64521Z" fill="#787885"/>
<path d="M28.5236 0.419434H20.1267C17.8108 0.419434 15.9331 2.29711 15.9331 4.61298V6.2904C15.9331 3.97453 17.8108 2.09685 20.1267 2.09685H28.5236C30.8394 2.09685 32.7171 3.97453 32.7171 6.2904V4.61298C32.7171 2.29711 30.8394 0.419434 28.5236 0.419434Z" fill="#EBF7FE"/>
<path d="M28.5227 11.7419C28.2913 11.7419 28.1033 11.554 28.1033 11.3226C28.1033 11.0912 28.2913 10.9032 28.5227 10.9032C30.6035 10.9032 32.2969 9.20984 32.2969 7.12903V4.6129C32.2969 2.5321 30.6035 0.83871 28.5227 0.83871H20.1266C18.0458 0.83871 16.3524 2.5321 16.3524 4.6129V7.12903C16.3524 9.20984 18.0458 10.9032 20.1266 10.9032C20.358 10.9032 20.5459 11.0912 20.5459 11.3226C20.5459 11.554 20.358 11.7419 20.1266 11.7419C17.5826 11.7419 15.5137 9.67301 15.5137 7.12903V4.6129C15.5137 2.06893 17.5826 0 20.1266 0H28.5227C31.0667 0 33.1356 2.06893 33.1356 4.6129V7.12903C33.1356 9.67301 31.0667 11.7419 28.5227 11.7419Z" fill="#EEEFEB"/>
<path d="M15.0942 14.6776V12.1615C15.0942 11.6987 14.7183 11.3228 14.2555 11.3228H12.0453C10.8822 11.3228 9.8707 12.1205 9.59878 13.2516L6.62971 27.3C5.61859 31.5149 6.57893 35.9598 9.24003 39.381L10.1451 40.5449C10.6214 41.1584 11.3544 41.5163 12.1309 41.5163H12.5781C13.9676 41.5163 15.0942 40.3901 15.0942 39.0002V14.6776Z" fill="#363540"/>
<path d="M15.0942 14.6776V12.1615C15.0942 11.6987 14.7183 11.3228 14.2555 11.3228H12.0453C10.8822 11.3228 9.8707 12.1205 9.59878 13.2516L6.62971 27.3C5.61859 31.5149 6.57893 35.9598 9.24003 39.381L10.1451 40.5449C10.6214 41.1584 11.3544 41.5163 12.1309 41.5163H12.5781C13.9676 41.5163 15.0942 40.3901 15.0942 39.0002V14.6776Z" fill="#363540"/>
<path d="M12.5781 41.5163C13.9676 41.5163 15.0942 40.3901 15.0942 39.0002V38.2544C14.7437 38.392 14.4029 38.555 14.0802 38.7512C13.0679 36.8457 11.0977 35.6445 8.90014 35.6445H8.38455C7.98444 35.6445 7.59457 35.6863 7.21289 35.7535C7.70924 37.0394 8.37431 38.2671 9.24005 39.3802L10.1459 40.5441C10.6222 41.1572 11.3552 41.5155 12.1317 41.5155H12.5781V41.5163Z" fill="#787885"/>
<path d="M31.8783 11.3228H16.7717C15.8449 11.3228 15.0942 12.0734 15.0942 13.0002V38.1615C15.0942 40.0142 16.5964 41.5163 18.4491 41.5163H30.2C32.0527 41.5163 33.5549 40.0142 33.5549 38.1615V13.0002C33.5557 12.0734 32.8042 11.3228 31.8783 11.3228Z" fill="#D6D6D0"/>
<path d="M30.201 41.5163C32.0229 41.5163 33.4972 40.0621 33.5468 38.2528C33.1106 38.0816 32.6569 37.9526 32.1872 37.8781C30.0806 37.5406 26.9931 37.3228 24.3226 37.3228C21.6521 37.3228 18.5647 37.5406 16.4581 37.8781C15.99 37.9526 15.5379 38.0808 15.1025 38.2512C15.1513 40.0621 16.6268 41.5163 18.4484 41.5163H30.201Z" fill="#E9E9E9"/>
<path d="M31.8783 11.3228H16.7717C15.8449 11.3228 15.0942 12.0734 15.0942 13.0002V14.6776C15.0942 13.7508 15.8449 13.0002 16.7717 13.0002H31.8783C32.805 13.0002 33.5557 13.7508 33.5557 14.6776V13.0002C33.5557 12.0734 32.8042 11.3228 31.8783 11.3228Z" fill="#EEEFEB"/>
<path d="M33.5557 14.6776V12.1615C33.5557 11.6987 33.9316 11.3228 34.3944 11.3228H36.6046C37.7676 11.3228 38.7792 12.1205 39.0511 13.2516L42.0202 27.3C43.0317 31.5149 42.0714 35.9598 39.4098 39.381L38.5052 40.5449C38.0285 41.1584 37.2955 41.5163 36.519 41.5163H36.0718C34.6823 41.5163 33.5557 40.3901 33.5557 39.0002V14.6776Z" fill="#363540"/>
<path d="M40.2604 35.645H39.7448C37.5465 35.645 35.5771 36.8453 34.5647 38.7517C34.2428 38.5563 33.9046 38.3942 33.5557 38.2566V38.9999C33.5557 40.3898 34.6823 41.516 36.0718 41.516H36.519C37.2955 41.516 38.0285 41.1581 38.5052 40.5446L39.4098 39.3807C40.2748 38.2684 40.9406 37.0407 41.4362 35.7548C41.0541 35.6868 40.6622 35.645 40.2604 35.645Z" fill="#787885"/>
<path d="M14.2555 11.3228H12.0453C10.8823 11.3228 9.87075 12.1205 9.59882 13.2516L6.62976 27.3C6.29763 28.6826 6.19894 30.0881 6.28207 31.4759C6.33039 30.6409 6.43114 29.8047 6.62976 28.9774L9.59882 14.929C9.87075 13.7979 10.8823 13.0002 12.0453 13.0002H14.2555C14.7183 13.0002 15.0943 13.3761 15.0943 13.8389V12.1615C15.0943 11.6987 14.7183 11.3228 14.2555 11.3228Z" fill="#EBF7FE"/>
<path d="M34.3945 13.0002H36.6047C37.7677 13.0002 38.7793 13.7979 39.0512 14.929L42.0202 28.9774C42.2189 29.8047 42.3196 30.6409 42.3675 31.4759C42.4502 30.0881 42.3516 28.6826 42.0202 27.3L39.0504 13.2516C38.7784 12.1205 37.7669 11.3228 36.6039 11.3228H34.3936C33.9309 11.3228 33.5549 11.6987 33.5549 12.1615V13.8389C33.5558 13.3761 33.9309 13.0002 34.3945 13.0002Z" fill="#EBF7FE"/>
<path d="M12.5782 41.9356H12.131C11.2185 41.9356 10.3741 41.522 9.81387 40.8024L8.90882 39.6385C6.15434 36.0966 5.17476 31.5639 6.2215 27.2021L9.18811 13.1643C9.50918 11.8293 10.6833 10.9033 12.0454 10.9033H14.2556C14.9493 10.9033 15.5137 11.4676 15.5137 12.1614V13.0001C15.5137 13.2315 15.3257 13.4194 15.0943 13.4194C14.8629 13.4194 14.6749 13.2315 14.6749 13.0001V12.1614C14.6749 11.93 14.487 11.742 14.2556 11.742H12.0454C11.0728 11.742 10.234 12.403 10.0068 13.3498L7.04015 27.3872C6.05032 31.5111 6.9738 35.7853 9.57061 39.1242L10.4757 40.2885C10.8762 40.8016 11.4794 41.0969 12.131 41.0969H12.5782C13.7339 41.0969 14.6749 40.1558 14.6749 39.0001C14.6749 38.7687 14.8629 38.5807 15.0943 38.5807C15.3257 38.5807 15.5137 38.7687 15.5137 39.0001C15.5137 40.619 14.1966 41.9356 12.5782 41.9356Z" fill="#EEEFEB"/>
<path d="M33.5549 13.4194C33.3235 13.4194 33.1355 13.2315 33.1355 13.0001C33.1355 12.3064 32.5712 11.742 31.8775 11.742H28.2536C28.0222 11.742 27.8342 11.5541 27.8342 11.3227C27.8342 11.0913 28.0222 10.9033 28.2536 10.9033H31.8775C33.0336 10.9033 33.9743 11.8444 33.9743 13.0001C33.9743 13.2315 33.7875 13.4194 33.5549 13.4194Z" fill="#EEEFEB"/>
<path d="M30.2002 41.9357H18.4492C16.3684 41.9357 14.675 40.2424 14.675 38.1615C14.675 37.9302 14.863 37.7422 15.0944 37.7422C15.3258 37.7422 15.5138 37.9302 15.5138 38.1615C15.5138 39.7804 16.8304 41.097 18.4492 41.097H30.2002C31.819 41.097 33.1357 39.7804 33.1357 38.1615C33.1357 37.9302 33.3236 37.7422 33.555 37.7422C33.7868 37.7422 33.9744 37.9302 33.9744 38.1615C33.9744 40.2424 32.2822 41.9357 30.2002 41.9357Z" fill="#EEEFEB"/>
<path d="M15.0944 13.4194C14.863 13.4194 14.675 13.2315 14.675 13.0001C14.675 11.8444 15.6161 10.9033 16.7718 10.9033H20.1971C20.4285 10.9033 20.6165 11.0913 20.6165 11.3227C20.6165 11.5541 20.4285 11.742 20.1971 11.742H16.7718C16.0781 11.742 15.5138 12.3064 15.5138 13.0001C15.5138 13.2315 15.3258 13.4194 15.0944 13.4194Z" fill="#EEEFEB"/>
<path d="M36.5192 41.9356H36.072C34.4535 41.9356 33.1365 40.619 33.1365 39.0001V34.2369C33.1365 34.0055 33.3244 33.8175 33.5558 33.8175C33.7876 33.8175 33.9752 34.0055 33.9752 34.2369V39.0001C33.9752 40.1558 34.9163 41.0969 36.072 41.0969H36.5192C37.1707 41.0969 37.7739 40.8016 38.1741 40.2876L39.0799 39.1234C41.6763 35.7853 42.5998 31.5111 41.6128 27.3982L38.6409 13.3388C38.4165 12.403 37.5778 11.742 36.6048 11.742H34.3945C34.1632 11.742 33.9752 11.93 33.9752 12.1614C33.9752 12.3928 33.7876 12.5807 33.5558 12.5807C33.3244 12.5807 33.1365 12.3928 33.1365 12.1614C33.1365 11.4676 33.7012 10.9033 34.3945 10.9033H36.6048C37.9677 10.9033 39.1409 11.8293 39.4587 13.1537L42.4303 27.2127C43.4746 31.5639 42.4958 36.0974 39.7405 39.6385L38.835 40.8024C38.2756 41.522 37.4308 41.9356 36.5192 41.9356Z" fill="#EEEFEB"/>
<path d="M40.2604 37.3228H39.7448C38.0293 37.3228 36.4879 38.367 35.8515 39.9589L35.2282 41.5163L34.652 40.9401C33.9099 40.198 32.9586 39.6996 31.9221 39.5346C30.0616 39.2369 27.0901 39.0002 24.3233 39.0002C21.5566 39.0002 18.5842 39.2369 16.7229 39.5346C15.6872 39.7005 14.7351 40.1989 13.993 40.9401L13.4168 41.5163L12.7935 39.9589C12.1571 38.367 10.6144 37.3228 8.90015 37.3228H8.38455C5.6051 37.3228 3.35229 39.5756 3.35229 42.355V43.1937C3.35229 47.8259 7.10724 51.5808 11.7394 51.5808H36.9056C41.5378 51.5808 45.2927 47.8259 45.2927 43.1937V42.355C45.2927 39.5756 43.0399 37.3228 40.2604 37.3228Z" fill="#363540"/>
<path d="M14.03 44.029C14.4117 45.5119 15.7484 46.5484 17.2792 46.5484H31.3501C32.8891 46.5484 34.2303 45.5016 34.6042 44.0089L35.2283 41.5161L34.6521 40.9399C33.91 40.1979 32.9587 39.6995 31.9222 39.5344C30.0617 39.2367 27.0902 39 24.3234 39C21.5567 39 18.5843 39.2367 16.7231 39.5344C15.6874 39.7003 14.7352 40.1987 13.9931 40.9399L13.4169 41.5161L13.3228 41.2807L14.03 44.029Z" fill="#D6D6D0"/>
<path d="M36.9056 49.9033H11.7394C7.24894 49.9033 3.59392 46.3715 3.37318 41.9355C3.3613 42.074 3.35229 42.2132 3.35229 42.3549V43.1936C3.35229 47.8258 7.10724 51.5807 11.7394 51.5807H36.9056C41.5378 51.5807 45.2927 47.8258 45.2927 43.1936V42.3549C45.2927 42.2132 45.2829 42.074 45.2718 41.9355C45.0511 46.3715 41.3961 49.9033 36.9056 49.9033Z" fill="#787885"/>
<path d="M40.2604 37.3228H39.7448C38.0293 37.3228 36.4879 38.367 35.8515 39.9589L35.2282 41.5163L34.652 40.9401C33.9099 40.198 32.9586 39.6996 31.9221 39.5346C30.0616 39.2369 27.0901 39.0002 24.3233 39.0002C21.5566 39.0002 18.5842 39.2369 16.7229 39.5346C15.6872 39.7005 14.7351 40.1989 13.993 40.9401L13.4168 41.5163L12.7935 39.9589C12.1571 38.367 10.6144 37.3228 8.90015 37.3228H8.38455C5.6051 37.3228 3.35229 39.5756 3.35229 42.355V43.1937C3.35229 43.3354 3.36663 43.473 3.37318 43.6131C3.58695 41.0306 5.74679 39.0002 8.38455 39.0002H8.90015C10.6157 39.0002 12.1571 40.0445 12.7935 41.6363L13.4168 43.1937L13.993 42.6175C14.7351 41.8755 15.6864 41.3771 16.7229 41.212C18.5834 40.9143 21.5557 40.6776 24.3233 40.6776C27.0909 40.6776 30.0616 40.9143 31.9221 41.212C32.9586 41.3779 33.9099 41.8763 34.652 42.6175L35.2282 43.1937L35.8515 41.6363C36.4879 40.0445 38.0306 39.0002 39.7448 39.0002H40.2604C42.8982 39.0002 45.058 41.0306 45.2718 43.6131C45.2784 43.473 45.2927 43.3354 45.2927 43.1937V42.355C45.2927 39.5756 43.0399 37.3228 40.2604 37.3228Z" fill="#EBF7FE"/>
<path d="M13.7331 42.8774L13.9931 42.6173C14.7352 41.8753 15.6865 41.3769 16.7231 41.2119C18.5835 40.9141 21.5559 40.6774 24.3234 40.6774C27.091 40.6774 30.0617 40.9141 31.9222 41.2119C32.9587 41.3777 33.91 41.8761 34.6521 42.6173L34.8921 42.8573L35.2283 41.5161L34.6521 40.9399C33.91 40.1979 32.9587 39.6995 31.9222 39.5344C30.0617 39.2367 27.0902 39 24.3234 39C21.5567 39 18.5843 39.2367 16.7231 39.5344C15.6874 39.7003 14.7352 40.1987 13.9931 40.9399L13.4169 41.5161L13.3228 41.2807L13.7331 42.8774Z" fill="#EEEFEB"/>
<path d="M35.3819 42.2629L34.356 41.237C33.6644 40.5449 32.7994 40.0998 31.8567 39.9486C31.6278 39.9126 31.4726 39.6972 31.5086 39.4691C31.5447 39.241 31.7605 39.0858 31.9886 39.121C33.1074 39.2995 34.1312 39.8262 34.949 40.644L35.0756 40.7706L35.4626 39.8037C35.6837 39.2508 36.0044 38.7545 36.4151 38.3249C36.5753 38.1574 36.8411 38.1512 37.0081 38.3126C37.176 38.4727 37.1818 38.7377 37.0208 38.9056C36.6854 39.2561 36.4225 39.6636 36.2415 40.1157L35.3819 42.2629Z" fill="#EEEFEB"/>
<path d="M36.9058 52.0001H11.7396C6.8834 52.0001 2.93311 48.0498 2.93311 43.1936V42.3549C2.93311 39.349 5.3788 36.9033 8.38472 36.9033H8.90031C9.1321 36.9033 9.31967 37.0913 9.31967 37.3227C9.31967 37.5541 9.1321 37.742 8.90031 37.742H8.38472C5.84074 37.742 3.77182 39.811 3.77182 42.3549V43.1936C3.77182 47.5866 7.34616 51.1614 11.7396 51.1614H36.9058C41.2992 51.1614 44.8735 47.5866 44.8735 43.1936V42.3549C44.8735 39.811 42.8046 37.742 40.2606 37.742H39.745C39.5132 37.742 39.3256 37.5541 39.3256 37.3227C39.3256 37.0913 39.5132 36.9033 39.745 36.9033H40.2606C43.2665 36.9033 45.7122 39.349 45.7122 42.3549V43.1936C45.7122 48.0498 41.7611 52.0001 36.9058 52.0001Z" fill="#EEEFEB"/>
<path d="M11.7917 38.8968C11.6877 38.8968 11.5836 38.8591 11.5021 38.7809C11.1717 38.4663 10.792 38.2182 10.3735 38.0404C10.1601 37.9499 10.0606 37.7042 10.1511 37.4904C10.2416 37.2763 10.489 37.1784 10.7011 37.2681C11.213 37.4851 11.6774 37.7898 12.0808 38.1739C12.2487 38.3332 12.2553 38.599 12.096 38.7669C12.0132 38.8533 11.9023 38.8968 11.7917 38.8968Z" fill="#EEEFEB"/>
<path d="M13.2633 42.2626L12.4046 40.1147C12.3181 39.9001 12.423 39.656 12.6384 39.5696C12.8518 39.4832 13.0975 39.588 13.1839 39.8034L13.5705 40.7703L13.697 40.6438C14.5148 39.8251 15.5387 39.2985 16.6575 39.1207C18.7039 38.7919 21.7135 38.5806 24.3226 38.5806C24.554 38.5806 24.7419 38.7685 24.7419 38.9999C24.7419 39.2313 24.5548 39.4193 24.3226 39.4193C21.7536 39.4193 18.7964 39.6273 16.7893 39.9476C15.8458 40.0987 14.9817 40.5438 14.29 41.2359L13.2633 42.2626Z" fill="#EEEFEB"/>
<path d="M14.2556 45.2902C14.0676 45.2902 13.8964 45.1636 13.8497 44.9724L13.011 41.6176C12.9545 41.3927 13.0913 41.1654 13.3161 41.1093C13.541 41.0532 13.7682 41.1888 13.8244 41.4144L14.6631 44.7693C14.7192 44.9941 14.5828 45.2214 14.358 45.2775C14.3236 45.2861 14.2892 45.2902 14.2556 45.2902Z" fill="#EEEFEB"/>
<path d="M21.4458 38.3125C21.3385 38.3125 21.2312 38.2712 21.1489 38.1901C20.9855 38.0263 20.9855 37.7605 21.1489 37.5971L25.4023 33.3437C25.5657 33.1803 25.8314 33.1803 25.9953 33.3437C26.1587 33.5076 26.1587 33.7733 25.9953 33.9367L21.7419 38.1901C21.6608 38.2712 21.5535 38.3125 21.4458 38.3125Z" fill="#EEEFEB"/>
<path d="M50.3226 34.3869H49.8447C47.5321 34.3869 45.6511 32.5056 45.6511 30.1934V21.4725C45.6511 20.2513 44.8652 19.479 44.1314 19.162C43.3967 18.845 42.2955 18.8053 41.4072 19.6432L31.9087 28.6151L30.7571 27.3955L40.2548 18.4236C41.492 17.2556 43.2304 16.9468 44.794 17.6209C46.3563 18.2946 47.3277 19.7697 47.3277 21.4725V30.1934C47.3277 31.5805 48.4564 32.7095 49.8439 32.7095H50.3226V34.3869Z" fill="#EEEFEB"/>
<path d="M31.9086 29.0346C31.7972 29.0346 31.6862 28.99 31.6043 28.9027C31.445 28.734 31.4524 28.4691 31.6211 28.3097L34.9046 25.2084C35.0738 25.0499 35.3379 25.0573 35.4976 25.2252C35.6569 25.3935 35.6492 25.6585 35.4809 25.8182L32.1973 28.9195C32.1158 28.9969 32.0118 29.0346 31.9086 29.0346Z" fill="#EEEFEB"/>
<path d="M50.3227 34.8064H49.8448C47.3008 34.8064 45.2318 32.7375 45.2318 30.1935V21.4726C45.2318 20.4554 44.5774 19.8112 43.9652 19.547C43.3521 19.2837 42.4356 19.2501 41.6948 19.9488L37.1883 24.205C37.02 24.3643 36.7551 24.3561 36.5953 24.1882C36.436 24.0199 36.4438 23.7549 36.6121 23.5952L41.1186 19.3382C42.1534 18.3594 43.4385 18.4061 44.2965 18.7763C45.1536 19.1453 46.0706 20.0475 46.0706 21.4718V30.1935C46.0706 32.2743 47.7639 33.9677 49.8448 33.9677H49.9033V33.129H49.8448C48.2259 33.129 46.9093 31.8124 46.9093 30.1935V21.4726C46.9093 19.941 46.0353 18.6125 44.6286 18.0064C43.2207 17.4007 41.6563 17.6776 40.5432 18.7284L38.6888 20.4795C38.5205 20.638 38.2543 20.6307 38.0959 20.4627C37.9365 20.294 37.9443 20.0291 38.1126 19.8698L39.967 18.1186C41.3282 16.8327 43.2424 16.494 44.9599 17.2353C46.6791 17.9761 47.7472 19.5999 47.7472 21.4718V30.1935C47.7472 31.3492 48.6878 32.2903 49.8439 32.2903H50.3227C50.5541 32.2903 50.742 32.4782 50.742 32.7096V34.3871C50.742 34.6184 50.5541 34.8064 50.3227 34.8064Z" fill="#EEEFEB"/>
<path d="M30.757 27.8149C30.6456 27.8149 30.535 27.7703 30.4527 27.6831C30.2934 27.5148 30.3007 27.2498 30.4695 27.0901L35.5496 22.2912C35.718 22.1319 35.9837 22.1401 36.1422 22.308C36.3019 22.4764 36.2942 22.7417 36.1258 22.901L31.0457 27.6999C30.9642 27.7773 30.8602 27.8149 30.757 27.8149Z" fill="#EEEFEB"/>
<path d="M32.2384 29.4804L29.8665 27.1084L31.3334 25.6333L33.7054 28.0053L32.2384 29.4804Z" fill="#7A7585"/>
<path d="M32.2575 29.8471C32.1494 29.8471 32.0405 29.8053 31.959 29.7222C31.7964 29.5572 31.7989 29.291 31.9639 29.1292L33.1097 28.0038L31.3308 26.2248L30.1792 27.3555C30.0133 27.5173 29.7471 27.5148 29.5862 27.3502C29.4236 27.1852 29.4261 26.9194 29.5915 26.7572L31.0388 25.3349C31.2034 25.174 31.4667 25.1748 31.6293 25.3374L34.0013 27.7094C34.0799 27.788 34.1246 27.8953 34.1237 28.0079C34.1237 28.1193 34.0775 28.2266 33.9988 28.3048L32.5512 29.7271C32.4697 29.807 32.3632 29.8471 32.2575 29.8471Z" fill="#EEEFEB"/>
<path d="M18.4229 31.1236C16.5755 31.1236 14.7536 30.4041 13.3841 29.0338L13.2449 28.8946C13.0815 28.7308 13.0815 28.465 13.2449 28.3016C13.4083 28.1378 13.6745 28.1378 13.8379 28.3016L13.9771 28.4408C15.8945 30.3586 18.8116 30.8329 21.2376 29.619L21.6569 29.4093C21.865 29.3061 22.1168 29.3901 22.22 29.5973C22.3241 29.8045 22.2393 30.056 22.0321 30.16L21.6127 30.3697C20.5971 30.8771 19.5049 31.1236 18.4229 31.1236Z" fill="#EEEFEB"/>
<path d="M30.7402 46.2163C30.6329 46.2163 30.5256 46.1754 30.4433 46.0939L30.304 45.9546C28.1311 43.7817 27.5942 40.4743 28.969 37.7252L29.1786 37.3058C29.2818 37.0986 29.5341 37.0147 29.7413 37.1179C29.9485 37.2219 30.0325 37.4737 29.9293 37.6805L29.7196 38.0999C28.5066 40.5255 28.98 43.4434 30.8978 45.3608L31.0371 45.5C31.2009 45.6634 31.2009 45.9296 31.0371 46.093C30.9552 46.1762 30.8475 46.2163 30.7402 46.2163Z" fill="#EEEFEB"/>
<path d="M34.3896 45.2901C34.356 45.2901 34.3216 45.286 34.2872 45.2774C34.0624 45.2213 33.926 44.994 33.9821 44.7692L34.8208 41.4144C34.8761 41.1887 35.1017 41.0519 35.329 41.1093C35.5538 41.1654 35.6906 41.3926 35.6341 41.6175L34.7954 44.9723C34.7487 45.1636 34.5784 45.2901 34.3896 45.2901Z" fill="#EEEFEB"/>
<path d="M5.03233 2.51611L6.21832 4.68496L8.38717 5.87095L6.21832 7.05694L5.03233 9.22579L3.84634 7.05694L1.67749 5.87095L3.84634 4.68496L5.03233 2.51611Z" fill="#FFD3B4" fill-opacity="0.44"/>
<path d="M3.84634 5.52367L5.03233 4.19353L6.21832 5.52367L8.38717 5.87095L6.21832 4.68496L5.03233 2.51611L3.84634 4.68496L1.67749 5.87095L3.84634 5.52367Z" fill="white"/>
<path d="M5.03225 9.64511C4.87868 9.64511 4.7378 9.56115 4.66491 9.42724L3.53666 7.3665L1.47592 6.23826C1.34201 6.16536 1.25806 6.02449 1.25806 5.87091C1.25806 5.71734 1.34201 5.57646 1.47592 5.50357L3.53666 4.37614L4.66491 2.31459C4.81152 2.04553 5.2538 2.04553 5.40041 2.31459L6.52784 4.37532L8.58858 5.50275C8.72249 5.57646 8.80644 5.71734 8.80644 5.87091C8.80644 6.02449 8.72249 6.16536 8.58858 6.23826L6.52784 7.36568L5.3996 9.42724C5.3267 9.56115 5.18582 9.64511 5.03225 9.64511ZM2.55134 5.87091L4.04775 6.68956C4.11819 6.72723 4.17593 6.78498 4.21361 6.85541L5.03225 8.35182L5.85089 6.85541C5.88939 6.78498 5.94713 6.72723 6.01757 6.68874L7.51316 5.87091L6.01675 5.05227C5.94631 5.01459 5.88857 4.95685 5.85089 4.88641L5.03225 3.39L4.21361 4.88641C4.17593 4.95685 4.11819 5.01459 4.04775 5.05227L2.55134 5.87091Z" fill="#EEEFEB"/>
<path d="M45.2904 7.54834L46.4764 9.71719L48.6452 10.9032L46.4764 12.0892L45.2904 14.258L44.1044 12.0892L41.9355 10.9032L44.1044 9.71719L45.2904 7.54834Z" fill="#FFD3B4" fill-opacity="0.44"/>
<path d="M44.1044 10.5559L45.2904 9.22576L46.4764 10.5559L48.6452 10.9032L46.4764 9.71719L45.2904 7.54834L44.1044 9.71719L41.9355 10.9032L44.1044 10.5559Z" fill="white"/>
<path d="M45.2903 14.6774C45.1367 14.6774 44.9959 14.5934 44.923 14.4595L43.7955 12.3988L41.7352 11.2714C41.6001 11.1976 41.5161 11.0568 41.5161 10.9032C41.5161 10.7496 41.6001 10.6087 41.734 10.5358L43.7947 9.40842L44.9221 7.3481C45.0688 7.07863 45.511 7.07863 45.6576 7.3481L46.7851 9.40842L48.8454 10.5358C48.9805 10.6087 49.0645 10.7496 49.0645 10.9032C49.0645 11.0568 48.9805 11.1976 48.8466 11.2705L46.7859 12.398L45.6585 14.4583C45.5848 14.5934 45.4439 14.6774 45.2903 14.6774ZM42.8094 10.9032L44.3058 11.7218C44.3762 11.7603 44.434 11.8181 44.4725 11.8885L45.2903 13.3841L46.1089 11.8877C46.1474 11.8173 46.2052 11.7595 46.2756 11.721L47.7712 10.9032L46.2748 10.0846C46.2044 10.0461 46.1466 9.98831 46.1081 9.91787L45.2903 8.42228L44.4717 9.91869C44.4332 9.98913 44.3754 10.0469 44.305 10.0854L42.8094 10.9032Z" fill="#EEEFEB"/>
<path d="M33.1123 37.4944L21.8442 26.2262L27.182 24.4473L34.8913 32.1566L33.1123 37.4944Z" fill="#EEEFEB"/>
<path d="M30.2205 27.9045C30.1128 27.9045 30.0055 27.8636 29.9236 27.7821L27.0684 24.9273L25.7927 25.3524C25.5703 25.4261 25.3357 25.3069 25.2628 25.0874C25.1899 24.8675 25.3078 24.6304 25.5277 24.5571L27.0499 24.0497C27.2002 23.9997 27.3661 24.039 27.4795 24.1512L30.5182 27.1899C30.6816 27.3533 30.6816 27.6195 30.5182 27.7829C30.4351 27.8644 30.3278 27.9045 30.2205 27.9045Z" fill="#EEEFEB"/>
<path d="M33.1124 37.9138C33.0026 37.9138 32.8953 37.8699 32.8154 37.7913L21.5473 26.5232C21.4441 26.42 21.4024 26.2718 21.4359 26.1305C21.4695 25.9888 21.5735 25.8749 21.712 25.8295L23.2608 25.3131C23.4823 25.2402 23.7178 25.3581 23.7911 25.578C23.864 25.7975 23.7457 26.035 23.5258 26.1079L22.6211 26.4098L32.9297 36.7184L34.4122 32.2709L31.2126 29.0713C31.0492 28.9075 31.0492 28.6417 31.2126 28.4783C31.3764 28.3145 31.6422 28.3145 31.8056 28.4783L35.1891 31.8606C35.3013 31.9732 35.341 32.139 35.2906 32.2901L33.5108 37.6275C33.4645 37.7659 33.3515 37.8699 33.2098 37.9035C33.1771 37.9105 33.1443 37.9138 33.1124 37.9138Z" fill="#EEEFEB"/>
</svg>
