<svg width="186" height="186" viewBox="0 0 186 186" fill="none" xmlns="http://www.w3.org/2000/svg">
<path d="M98.8125 20.3438C106.837 20.3438 113.344 26.8508 113.344 34.875C113.344 26.8508 119.851 20.3438 127.875 20.3438C119.851 20.3438 113.344 13.8367 113.344 5.8125C113.344 13.8367 106.837 20.3438 98.8125 20.3438Z" fill="#D4EDEF"/>
<path d="M151.125 20.3438C159.149 20.3438 165.656 26.8508 165.656 34.875C165.656 26.8508 172.163 20.3438 180.188 20.3438C172.163 20.3438 165.656 13.8367 165.656 5.8125C165.656 13.8367 159.149 20.3438 151.125 20.3438Z" fill="#D4EDEF"/>
<path d="M133.688 49.4062C141.712 49.4062 148.219 55.9133 148.219 63.9375C148.219 55.9133 154.726 49.4062 162.75 49.4062C154.726 49.4062 148.219 42.8992 148.219 34.875C148.219 42.8992 141.712 49.4062 133.688 49.4062Z" fill="#D4EDEF"/>
<path d="M29.0625 154.031H11.625C8.41359 154.031 5.8125 151.43 5.8125 148.219V127.997C5.8125 121.144 10.5991 115.224 17.298 113.788L46.5 107.531L70.3283 76.5564C73.6269 72.2639 78.7361 69.75 84.1476 69.75H119.287C124.701 69.75 129.808 72.2639 133.109 76.5564L156.938 107.531L180.188 119.156V148.219C180.188 151.43 177.586 154.031 174.375 154.031H156.938" fill="#21212B"/>
<path d="M133.109 76.5564C129.811 72.2639 124.701 69.75 119.29 69.75H84.1476C78.7332 69.75 73.6269 72.2639 70.3254 76.5564L46.5 107.531L17.298 113.788C10.5991 115.224 5.8125 121.144 5.8125 127.997V129.909C20.3844 137.756 38.4962 142.406 58.125 142.406C101.143 142.406 136.861 120.072 143.993 90.7041L133.109 76.5564Z" fill="#21212B"/>
<path d="M142.406 110.438L124.667 85.095C123.033 82.7642 120.368 81.375 117.523 81.375H85.9146C83.0693 81.375 80.4043 82.7642 78.771 85.095L61.0312 110.438H142.406Z" fill="#EBF7FE"/>
<path d="M66.0591 103.256C70.4504 104.14 75.1004 104.625 79.9219 104.625C100.004 104.625 117.18 96.3858 124.321 84.7085C122.673 82.6334 120.194 81.375 117.523 81.375H85.9146C83.0694 81.375 80.4043 82.7642 78.771 85.095L66.0591 103.256Z" fill="#EBF7FE"/>
<path d="M5.8125 127.997V136.588L17.4375 136.594V124.969L6.16706 124.963C5.95781 125.948 5.8125 126.957 5.8125 127.997Z" fill="#F9D18B"/>
<path d="M168.562 142.406H180.188V119.156L168.562 113.344V142.406Z" fill="#E47C6E"/>
<path d="M49.4062 174.375C60.6418 174.375 69.75 165.267 69.75 154.031C69.75 142.796 60.6418 133.688 49.4062 133.688C38.1707 133.688 29.0625 142.796 29.0625 154.031C29.0625 165.267 38.1707 174.375 49.4062 174.375Z" fill="#4D5D7A"/>
<path d="M136.594 174.375C147.829 174.375 156.938 165.267 156.938 154.031C156.938 142.796 147.829 133.688 136.594 133.688C125.358 133.688 116.25 142.796 116.25 154.031C116.25 165.267 125.358 174.375 136.594 174.375Z" fill="#4D5D7A"/>
<path d="M49.4062 162.75C54.2215 162.75 58.125 158.846 58.125 154.031C58.125 149.216 54.2215 145.312 49.4062 145.312C44.591 145.312 40.6875 149.216 40.6875 154.031C40.6875 158.846 44.591 162.75 49.4062 162.75Z" fill="#8892A0"/>
<path d="M136.594 162.75C141.409 162.75 145.312 158.846 145.312 154.031C145.312 149.216 141.409 145.312 136.594 145.312C131.779 145.312 127.875 149.216 127.875 154.031C127.875 158.846 131.779 162.75 136.594 162.75Z" fill="#8892A0"/>
<path d="M5.8125 174.375H180.188V180.188H5.8125V174.375Z" fill="#D6D6D6"/>
<path d="M98.8125 81.375H104.625V110.438H98.8125V81.375Z" fill="#D6D6D6"/>
<path d="M93 119.156H104.625V124.969H93V119.156Z" fill="white"/>
<path d="M133.688 119.156H145.312V124.969H133.688V119.156Z" fill="white"/>
<path d="M49.4062 11.625C58.3459 11.625 66.7827 14.6969 73.5514 20.3437H63.9375V26.1562H78.4688C80.073 26.1562 81.375 24.8542 81.375 23.25V8.71875H75.5625V14.5865C68.0586 8.91928 58.994 5.8125 49.4062 5.8125C25.3687 5.8125 5.8125 25.3687 5.8125 49.4062C5.8125 55.9424 7.22494 62.2286 10.0091 68.0905L15.2607 65.597C12.8485 60.5197 11.625 55.0734 11.625 49.4062C11.625 28.5742 28.5742 11.625 49.4062 11.625Z" fill="#7A7585"/>
<path d="M45.9333 61.4817L37.1448 50.499L32.6052 54.1289L44.2302 68.6602C44.7853 69.3519 45.6223 69.75 46.5 69.75C46.6017 69.75 46.7034 69.7442 46.8052 69.7355C47.7904 69.6309 48.6535 69.0322 49.0982 68.1458L66.5357 33.2708L61.3364 30.6697L45.9333 61.4817Z" fill="#7A7585"/>
<path d="M88.8034 30.7219L83.5518 33.2155C85.964 38.2927 87.1875 43.739 87.1875 49.4062C87.1875 70.2382 70.2383 87.1875 49.4062 87.1875C40.487 87.1875 32.0472 84.1068 25.2786 78.4687H34.875V72.6562H20.3438C18.7395 72.6562 17.4375 73.9582 17.4375 75.5625V90.0937H23.25V84.226C30.7598 89.8903 39.8331 93 49.4062 93C73.4438 93 93 73.4438 93 49.4062C93 42.87 91.5876 36.5838 88.8034 30.7219Z" fill="#7A7585"/>
</svg>
