<svg width="187" height="187" viewBox="0 0 187 187" fill="none" xmlns="http://www.w3.org/2000/svg">
<path d="M64.1526 80.9534L54.4724 49.4965L60.0503 52.2869L62.6653 47.0596L50.9778 41.2159C49.7127 40.5818 48.1816 40.9471 47.3343 42.0778L38.5686 53.7653L43.2436 57.2687L48.5673 50.1714L57.4936 79.1798L23.1499 81.8212L23.5999 87.6474L61.5842 84.7255C62.4696 84.6583 63.2731 84.1879 63.7727 83.4545C64.2753 82.724 64.4126 81.8007 64.1526 80.9534Z" fill="#4D5D7A"/>
<path d="M29.2188 154.859H11.6875C8.45883 154.859 5.84375 152.244 5.84375 149.016V128.685C5.84375 121.795 10.6561 115.844 17.391 114.4L46.75 108.109L70.7065 76.968C74.0228 72.6524 79.1594 70.125 84.6 70.125H119.928C125.372 70.125 130.506 72.6524 133.825 76.968L157.781 108.109L181.156 119.797V149.016C181.156 152.244 178.541 154.859 175.312 154.859H157.781" fill="#21212B"/>
<path d="M133.825 76.968C130.508 72.6524 125.372 70.125 119.931 70.125H84.6C79.1565 70.125 74.0228 72.6524 70.7035 76.968L46.75 108.109L17.391 114.4C10.6561 115.844 5.84375 121.795 5.84375 128.685V130.608C20.494 138.497 38.7032 143.172 58.4375 143.172C101.687 143.172 137.597 120.717 144.767 91.1917L133.825 76.968Z" fill="#21212B"/>
<path d="M143.172 111.031L125.337 85.5525C123.695 83.2092 121.015 81.8125 118.155 81.8125H86.3765C83.516 81.8125 80.8366 83.2092 79.1945 85.5525L61.3594 111.031H143.172Z" fill="#EBF7FE"/>
<path d="M66.4141 103.811C70.829 104.7 75.504 105.188 80.3514 105.188C100.542 105.188 117.81 96.904 124.989 85.1639C123.332 83.0777 120.84 81.8125 118.155 81.8125H86.3763C83.5158 81.8125 80.8364 83.2092 79.1943 85.5525L66.4141 103.811Z" fill="#EBF7FE"/>
<path d="M5.84375 128.685V137.322L17.5312 137.328V125.641L6.20022 125.635C5.98984 126.625 5.84375 127.639 5.84375 128.685Z" fill="#F9D18B"/>
<path d="M169.469 143.172H181.156V119.797L169.469 113.953V143.172Z" fill="#E47C6E"/>
<path d="M49.6719 175.312C60.9678 175.312 70.125 166.155 70.125 154.859C70.125 143.563 60.9678 134.406 49.6719 134.406C38.3759 134.406 29.2188 143.563 29.2188 154.859C29.2188 166.155 38.3759 175.312 49.6719 175.312Z" fill="#4D5D7A"/>
<path d="M137.328 175.312C148.624 175.312 157.781 166.155 157.781 154.859C157.781 143.563 148.624 134.406 137.328 134.406C126.032 134.406 116.875 143.563 116.875 154.859C116.875 166.155 126.032 175.312 137.328 175.312Z" fill="#4D5D7A"/>
<path d="M49.6719 163.625C54.513 163.625 58.4375 159.7 58.4375 154.859C58.4375 150.018 54.513 146.094 49.6719 146.094C44.8308 146.094 40.9062 150.018 40.9062 154.859C40.9062 159.7 44.8308 163.625 49.6719 163.625Z" fill="#8892A0"/>
<path d="M137.328 163.625C142.169 163.625 146.094 159.7 146.094 154.859C146.094 150.018 142.169 146.094 137.328 146.094C132.487 146.094 128.562 150.018 128.562 154.859C128.562 159.7 132.487 163.625 137.328 163.625Z" fill="#8892A0"/>
<path d="M5.84375 175.312H181.156V181.156H5.84375V175.312Z" fill="#8892A0"/>
<path d="M93.5 119.797H105.188V125.641H93.5V119.797Z" fill="white"/>
<path d="M134.406 119.797H146.094V125.641H134.406V119.797Z" fill="white"/>
<path d="M17.5312 5.84375V6.84595C17.5312 13.689 20.2486 20.2486 25.0872 25.0872C27.7315 27.7315 29.2188 31.3196 29.2188 35.0625C29.2188 41.5169 23.9857 46.75 17.5312 46.75C11.0768 46.75 5.84375 41.5169 5.84375 35.0625C5.84375 31.3196 7.33098 27.7315 9.97528 25.0872C14.8139 20.2486 17.5312 13.689 17.5312 6.84595V5.84375Z" fill="#D4EDEF"/>
<path d="M39.3051 69.669L45.444 72.737L48.0591 67.5098L36.3716 61.666C35.1035 61.0349 33.5724 61.3972 32.728 62.528L23.9624 74.2155L28.6344 77.7217L33.6279 71.0628L39.907 98.2742L9.47278 90.6656L8.05859 96.3341L43.1211 105.1C43.3548 105.158 43.5915 105.187 43.8282 105.187C44.585 105.187 45.3242 104.892 45.8735 104.352C46.601 103.639 46.9049 102.599 46.6741 101.611L39.3051 69.669Z" fill="#8892A0"/>
</svg>
