<svg width="34" height="34" viewBox="0 0 34 34" fill="none" xmlns="http://www.w3.org/2000/svg">
<path d="M31.875 10.625H33.4688V9.5625H32.2309L29.7314 3.49191C28.9903 1.69362 27.2553 0.53125 25.3103 0.53125H16.6563C15.028 0.53125 13.5267 1.34778 12.6416 2.71469L8.16213 9.63741L0.916937 11.7082C0.6885 11.773 0.53125 11.9818 0.53125 12.2188V19.125C0.53125 19.4182 0.768719 19.6562 1.0625 19.6562H3.75009C4.01519 22.0432 6.04297 23.9062 8.5 23.9062C10.957 23.9062 12.9848 22.0432 13.2499 19.6562H14.9451L15.232 20.0871C16.0411 21.3005 16.4688 22.7131 16.4688 24.1719C16.4688 25.6307 16.0411 27.0433 15.232 28.2567L14.8442 28.8389C14.5169 29.3298 14.3443 29.9014 14.3443 30.4906C14.3438 32.1327 15.6798 33.4688 17.3214 33.4688C17.9111 33.4688 18.4827 33.2956 18.9731 32.9688L19.3343 32.7282C19.9298 32.3313 20.5743 32.02 21.2495 31.7895V33.4688H22.312V31.3438C22.312 31.1663 22.2233 31.0006 22.0756 30.9017L19.125 28.9345V27.0938C19.125 26.801 19.363 26.5625 19.6562 26.5625C19.9495 26.5625 20.1875 26.801 20.1875 27.0938V28.6875H21.25V27.0938V21.7812C21.25 21.4885 21.488 21.25 21.7812 21.25C22.0745 21.25 22.3125 21.4885 22.3125 21.7812V22.8438V25.5H23.375V22.8438V21.7812V20.7188C23.375 20.426 23.613 20.1875 23.9062 20.1875C24.1995 20.1875 24.4375 20.426 24.4375 20.7188V21.7812V22.8438V25.5H25.5V22.8438V21.7812C25.5 21.4885 25.738 21.25 26.0312 21.25C26.3245 21.25 26.5625 21.4885 26.5625 21.7812V23.9062V25.5H27.625V23.9062C27.625 23.6135 27.863 23.375 28.1562 23.375C28.4495 23.375 28.6875 23.6135 28.6875 23.9062V29.5301L27.7807 30.4369C27.6808 30.5362 27.625 30.6717 27.625 30.8125V33.4688H28.6875V32.8674L28.8389 32.9683C29.3298 33.2956 29.9009 33.4688 30.4911 33.4688C32.1327 33.4688 33.4688 32.1327 33.4688 30.4911C33.4688 29.9014 33.2961 29.3303 32.9688 28.8394L32.581 28.2572C31.7714 27.0433 31.3438 25.6307 31.3438 24.1719C31.3438 22.7131 31.7714 21.3005 32.5805 20.0871L32.9683 19.5048C33.2956 19.014 33.4682 18.4423 33.4682 17.8532C33.4688 16.2111 32.1327 14.875 30.4911 14.875C29.9014 14.875 29.3298 15.0482 28.8394 15.3749L28.4782 15.6156C27.1198 16.5213 25.5388 17 23.9062 17C22.2737 17 20.6927 16.5213 19.3348 15.6161L18.9736 15.3754C18.4827 15.0482 17.9116 14.875 17.3214 14.875C15.6798 14.875 14.3438 16.2111 14.3438 17.8527C14.3438 18.105 14.382 18.3526 14.4436 18.5938H13.2499C12.9848 16.2068 10.957 14.3438 8.5 14.3438C6.04297 14.3438 4.01519 16.2068 3.75009 18.5938H1.59375V15.4062H3.1875C3.48128 15.4062 3.71875 15.1683 3.71875 14.875V12.0121L8.64556 10.6043C8.76934 10.5692 8.87613 10.4901 8.94572 10.3822L13.5336 3.29216C14.2221 2.22859 15.3893 1.59375 16.6563 1.59375H25.3103C26.8233 1.59375 28.1733 2.49794 28.7491 3.89672L31.3841 10.2962C31.4654 10.4948 31.6598 10.625 31.875 10.625ZM17.3214 15.9375C17.7007 15.9375 18.0678 16.0485 18.3839 16.2589L18.7452 16.4996C20.2789 17.5222 22.0633 18.0625 23.9062 18.0625C25.7492 18.0625 27.5336 17.5222 29.0673 16.5001L29.4286 16.2594C29.7447 16.0491 30.1118 15.938 30.4911 15.938C31.5472 15.9375 32.4062 16.7965 32.4062 17.8527C32.4062 18.232 32.2952 18.5996 32.0848 18.9152L31.697 19.4974C30.7705 20.8861 30.2812 22.5022 30.2812 24.1719C30.2812 25.8416 30.7705 27.4577 31.6965 28.8463L32.0843 29.4286C32.2947 29.7442 32.4057 30.1118 32.4057 30.4911C32.4062 31.5472 31.5472 32.4062 30.4911 32.4062C30.1118 32.4062 29.7447 32.2952 29.4286 32.0848L29.0673 31.8442C28.9436 31.7618 28.8145 31.6891 28.6875 31.6131V31.033L29.5943 30.1261C29.6942 30.0263 29.75 29.8908 29.75 29.75V23.9062C29.75 23.0276 29.0349 22.3125 28.1562 22.3125C27.9692 22.3125 27.7918 22.3507 27.625 22.4102V21.7812C27.625 20.9026 26.9099 20.1875 26.0312 20.1875C25.8214 20.1875 25.6222 20.2305 25.4384 20.3044C25.2551 19.627 24.641 19.125 23.9062 19.125C23.1715 19.125 22.5579 19.627 22.3741 20.3044C22.1903 20.2305 21.9911 20.1875 21.7812 20.1875C20.9026 20.1875 20.1875 20.9026 20.1875 21.7812V25.5977C20.0207 25.5382 19.8433 25.5 19.6562 25.5C18.7776 25.5 18.0625 26.2151 18.0625 27.0938V29.2188C18.0625 29.3962 18.1512 29.5619 18.2989 29.6608L20.3193 31.0075C19.771 31.237 19.2424 31.5122 18.7452 31.8437L18.3839 32.0843C18.0678 32.2947 17.7007 32.4057 17.3214 32.4057C16.2653 32.4062 15.4062 31.5472 15.4062 30.4911C15.4062 30.1118 15.5173 29.7442 15.7277 29.4286L16.1155 28.8463C17.042 27.4577 17.5312 25.8416 17.5312 24.1719C17.5312 22.5022 17.042 20.8861 16.116 19.4974L15.7282 18.9152C15.5178 18.5996 15.4068 18.232 15.4068 17.8527C15.4062 16.7965 16.2653 15.9375 17.3214 15.9375ZM8.5 15.4062C10.5501 15.4062 12.2188 17.0744 12.2188 19.125C12.2188 21.1756 10.5501 22.8438 8.5 22.8438C6.44991 22.8438 4.78125 21.1756 4.78125 19.125C4.78125 17.0744 6.44991 15.4062 8.5 15.4062ZM2.65625 14.3438H1.59375V12.6193L2.65625 12.316V14.3438Z" fill="#C1A671"/>
<path d="M8.5 21.7812C9.96466 21.7812 11.1562 20.5897 11.1562 19.125C11.1562 17.6603 9.96466 16.4688 8.5 16.4688C7.03534 16.4688 5.84375 17.6603 5.84375 19.125C5.84375 20.5897 7.03534 21.7812 8.5 21.7812ZM8.5 17.5312C9.37869 17.5312 10.0938 18.2463 10.0938 19.125C10.0938 20.0037 9.37869 20.7188 8.5 20.7188C7.62131 20.7188 6.90625 20.0037 6.90625 19.125C6.90625 18.2463 7.62131 17.5312 8.5 17.5312Z" fill="#C1A671"/>
<path d="M29.6564 10.3944C29.7558 10.2505 29.7776 10.0667 29.7143 9.90303L27.5824 4.35891C27.1904 3.3405 26.1937 2.65625 25.1031 2.65625H17.1248C16.1956 2.65625 15.3499 3.12906 14.8622 3.92063L11.2348 9.81537C11.1339 9.97953 11.1296 10.1846 11.2237 10.353C11.3177 10.5214 11.4951 10.625 11.6874 10.625H29.2187C29.3935 10.625 29.5576 10.5389 29.6564 10.3944ZM15.7674 4.47738C16.0596 4.00244 16.5675 3.71875 17.1248 3.71875H20.1874V9.5625H12.6378L15.7674 4.47738ZM21.2499 9.5625V3.71875H25.1031C25.7571 3.71875 26.3552 4.12941 26.5906 4.74034L28.4452 9.5625H21.2499Z" fill="#C1A671"/>
<path d="M19.125 11.6875H21.25V12.75H19.125V11.6875Z" fill="#C1A671"/>
<path d="M27.625 11.6875H29.75V12.75H27.625V11.6875Z" fill="#C1A671"/>
<path d="M12.75 29.75C11.5781 29.75 10.625 28.7969 10.625 27.625C10.625 27.3318 10.3875 27.0938 10.0938 27.0938C9.79997 27.0938 9.5625 27.3318 9.5625 27.625C9.5625 28.7969 8.60944 29.75 7.4375 29.75C7.14372 29.75 6.90625 29.988 6.90625 30.2812C6.90625 30.5745 7.14372 30.8125 7.4375 30.8125C8.60944 30.8125 9.5625 31.7656 9.5625 32.9375C9.5625 33.2308 9.79997 33.4688 10.0938 33.4688C10.3875 33.4688 10.625 33.2308 10.625 32.9375C10.625 31.7656 11.5781 30.8125 12.75 30.8125C13.0438 30.8125 13.2812 30.5745 13.2812 30.2812C13.2812 29.988 13.0438 29.75 12.75 29.75ZM10.0938 31.1775C9.85788 30.8226 9.55241 30.5177 9.19753 30.2812C9.55241 30.0454 9.85734 29.7399 10.0938 29.385C10.3296 29.7399 10.6351 30.0448 10.99 30.2812C10.6351 30.5171 10.3296 30.8226 10.0938 31.1775Z" fill="#C1A671"/>
<path d="M6.375 26.0312C5.20306 26.0312 4.25 25.0782 4.25 23.9062C4.25 23.613 4.01253 23.375 3.71875 23.375C3.42497 23.375 3.1875 23.613 3.1875 23.9062C3.1875 25.0782 2.23444 26.0312 1.0625 26.0312C0.768719 26.0312 0.53125 26.2692 0.53125 26.5625C0.53125 26.8558 0.768719 27.0938 1.0625 27.0938C2.23444 27.0938 3.1875 28.0468 3.1875 29.2188C3.1875 29.512 3.42497 29.75 3.71875 29.75C4.01253 29.75 4.25 29.512 4.25 29.2188C4.25 28.0468 5.20306 27.0938 6.375 27.0938C6.66878 27.0938 6.90625 26.8558 6.90625 26.5625C6.90625 26.2692 6.66878 26.0312 6.375 26.0312ZM3.71875 27.4587C3.48288 27.1038 3.17741 26.7984 2.82253 26.5625C3.17741 26.3266 3.48288 26.0212 3.71875 25.6663C3.95462 26.0212 4.26009 26.3266 4.61497 26.5625C4.26009 26.7984 3.95462 27.1038 3.71875 27.4587Z" fill="#C1A671"/>
<path d="M1.0625 4.25C2.23444 4.25 3.1875 5.20306 3.1875 6.375C3.1875 6.66825 3.42497 6.90625 3.71875 6.90625C4.01253 6.90625 4.25 6.66825 4.25 6.375C4.25 5.20306 5.20306 4.25 6.375 4.25C6.66878 4.25 6.90625 4.012 6.90625 3.71875C6.90625 3.4255 6.66878 3.1875 6.375 3.1875C5.20306 3.1875 4.25 2.23444 4.25 1.0625C4.25 0.76925 4.01253 0.53125 3.71875 0.53125C3.42497 0.53125 3.1875 0.76925 3.1875 1.0625C3.1875 2.23444 2.23444 3.1875 1.0625 3.1875C0.768719 3.1875 0.53125 3.4255 0.53125 3.71875C0.53125 4.012 0.768719 4.25 1.0625 4.25ZM3.71875 2.82253C3.95462 3.17741 4.26009 3.48288 4.61497 3.71875C4.26009 3.95462 3.95462 4.26009 3.71875 4.61497C3.48288 4.26009 3.17741 3.95462 2.82253 3.71875C3.17741 3.48288 3.48288 3.17741 3.71875 2.82253Z" fill="#C1A671"/>
</svg>
