<svg width="186" height="186" viewBox="0 0 186 186" fill="none" xmlns="http://www.w3.org/2000/svg">
<path d="M180.188 104.625H5.8125V66.8438L46.5 55.2188L71.5984 16.4319C75.8822 9.8115 83.2321 5.8125 91.1167 5.8125H138.46C147.882 5.8125 156.371 11.4971 159.957 20.2101L174.375 55.2188H180.188" fill="#BF0000"/>
<path d="M55.2188 87.1875C104.977 87.1875 145.312 59.8629 145.312 26.1562C145.312 19.0708 143.511 12.2731 140.232 5.94619C139.642 5.89969 139.061 5.8125 138.46 5.8125H91.1167C83.2292 5.8125 75.8822 9.8115 71.5955 16.4319L46.5 55.2188L5.8125 66.8438V77.1842C20.0008 83.5024 36.9704 87.1875 55.2188 87.1875Z" fill="#BF0000"/>
<path d="M154.031 174.57C155.179 175.206 156.304 175.889 157.402 176.622L159.379 177.938C161.576 179.406 164.16 180.188 166.801 180.188C174.195 180.188 180.188 174.195 180.188 166.801C180.188 164.16 179.406 161.576 177.941 159.376L175.819 156.191C171.088 149.099 168.562 140.761 168.562 132.234C168.562 123.707 171.088 115.369 175.816 108.275L177.938 105.09C179.406 102.893 180.188 100.309 180.188 97.6674C180.188 90.2739 174.195 84.2812 166.801 84.2812C164.16 84.2812 161.576 85.063 159.376 86.5307L157.4 87.8472C149.521 93.1017 140.256 95.9062 130.781 95.9062C121.307 95.9062 112.042 93.1017 104.16 87.8472L102.184 86.5307C99.9866 85.063 97.403 84.2812 94.7612 84.2812C87.3677 84.2812 81.375 90.2739 81.375 97.6674C81.375 100.309 82.1568 102.893 83.6244 105.093L85.746 108.278C90.4745 115.369 93 123.707 93 132.234C93 140.761 90.4745 149.099 85.746 156.193L83.6244 159.379C82.1568 161.576 81.375 164.16 81.375 166.801C81.375 174.195 87.3677 180.188 94.7612 180.188C97.403 180.188 99.9866 179.406 102.187 177.941L104.163 176.624C108.31 173.861 112.838 171.774 117.581 170.417" fill="#F5CF88"/>
<path d="M104.16 87.8472L102.184 86.5307C99.9866 85.063 97.403 84.2812 94.7612 84.2812C87.3677 84.2812 81.375 90.2739 81.375 97.6674C81.375 100.309 82.1568 102.893 83.6215 105.093L85.7431 108.278C90.4745 115.369 93 123.707 93 132.234C93 140.761 90.4745 149.099 85.746 156.193L85.2839 156.888C123.469 155.885 154.031 131.578 154.031 101.719C154.031 97.9203 153.534 94.2119 152.593 90.6285C145.859 94.0666 138.396 95.9062 130.781 95.9062C121.307 95.9062 112.042 93.1017 104.16 87.8472Z" fill="#FADFB2"/>
<path d="M154.031 180.188V168.562L159.844 162.75V130.781C159.844 127.57 157.243 124.969 154.031 124.969C150.82 124.969 148.219 127.57 148.219 130.781V119.156C148.219 115.945 145.618 113.344 142.406 113.344C139.195 113.344 136.594 115.945 136.594 119.156V113.344C136.594 110.132 133.993 107.531 130.781 107.531C127.57 107.531 124.969 110.132 124.969 113.344V119.156C124.969 115.945 122.368 113.344 119.156 113.344C115.945 113.344 113.344 115.945 113.344 119.156V148.219C113.344 145.007 110.743 142.406 107.531 142.406C104.32 142.406 101.719 145.007 101.719 148.219V159.844L119.156 171.469V180.188" fill="#EFBE9A"/>
<path d="M148.178 24.8891L159.844 55.2188H63.9375L83.7843 22.971C85.9 19.5329 89.6462 17.4375 93.683 17.4375H137.329C142.139 17.4375 146.452 20.399 148.178 24.8891Z" fill="#EBF7FE"/>
<path d="M82.8283 46.5C114.07 46.5 139.648 34.1775 142.156 18.507C140.671 17.8269 139.035 17.4375 137.329 17.4375H93.6831C89.6463 17.4375 85.8973 19.5329 83.7815 22.971L69.7676 45.7415C73.9787 46.2239 78.3352 46.5 82.8283 46.5Z" fill="#EBF7FE"/>
<path d="M17.4375 81.3751V63.522L5.8125 66.8438V81.3751H17.4375Z" fill="#F9D18B"/>
<path d="M46.5 127.875C59.3406 127.875 69.75 117.466 69.75 104.625C69.75 91.7844 59.3406 81.375 46.5 81.375C33.6594 81.375 23.25 91.7844 23.25 104.625C23.25 117.466 33.6594 127.875 46.5 127.875Z" fill="#4D5D7A"/>
<path d="M46.5 116.25C52.9203 116.25 58.125 111.045 58.125 104.625C58.125 98.2047 52.9203 93 46.5 93C40.0797 93 34.875 98.2047 34.875 104.625C34.875 111.045 40.0797 116.25 46.5 116.25Z" fill="#8892A0"/>
<path d="M40.6875 165.656C48.7117 165.656 55.2188 172.163 55.2188 180.188C55.2188 172.163 61.7258 165.656 69.75 165.656C61.7258 165.656 55.2188 159.149 55.2188 151.125C55.2188 159.149 48.7117 165.656 40.6875 165.656Z" fill="#D4EDEF"/>
<path d="M5.8125 145.312C13.8367 145.312 20.3438 151.82 20.3438 159.844C20.3438 151.82 26.8508 145.312 34.875 145.312C26.8508 145.312 20.3438 138.805 20.3438 130.781C20.3438 138.805 13.8367 145.312 5.8125 145.312Z" fill="#D4EDEF"/>
<path d="M5.8125 20.3438C13.8367 20.3438 20.3438 26.8508 20.3438 34.875C20.3438 26.8508 26.8508 20.3438 34.875 20.3438C26.8508 20.3438 20.3438 13.8367 20.3438 5.8125C20.3438 13.8367 13.8367 20.3438 5.8125 20.3438Z" fill="#D4EDEF"/>
<path d="M110.438 17.4375H116.25V55.2188H110.438V17.4375Z" fill="#8892A0"/>
<path d="M104.625 63.9375H116.25V69.75H104.625V63.9375Z" fill="white"/>
<path d="M151.125 63.9375H162.75V69.75H151.125V63.9375Z" fill="white"/>
<path d="M110.438 148.219H116.25V154.031H110.438V148.219Z" fill="#DB9B7C"/>
<path d="M122.062 119.156H127.875V139.5H122.062V119.156Z" fill="#DB9B7C"/>
<path d="M133.688 119.156H139.5V139.5H133.688V119.156Z" fill="#DB9B7C"/>
<path d="M145.312 130.781H151.125V139.5H145.312V130.781Z" fill="#DB9B7C"/>
</svg>
