<svg width="34" height="33" viewBox="0 0 34 33" fill="none" xmlns="http://www.w3.org/2000/svg">
<path d="M33.8045 0.183808C33.6799 0.0661431 33.511 0 33.3348 0L16.9993 0.000815807C16.6327 0.000815807 16.3354 0.28183 16.3354 0.62836V2.42295L10.0408 4.01685C9.68651 4.10659 9.47627 4.45067 9.57123 4.7854L12.8336 16.2909L10.0114 18.9579C9.65218 18.4623 9.04908 18.1363 8.36689 18.1363H1.99211C0.893626 18.1363 0 18.9809 0 20.0189V30.2476C0 31.2857 0.893626 32.1302 1.99211 32.1302H8.36696C9.30016 32.1302 10.0852 31.5205 10.3004 30.7007L11.0899 31.3514C11.6995 31.8537 12.4804 32.1303 13.2892 32.1303H33.335C33.7017 32.1303 33.999 31.8493 33.999 31.5028V0.627544C33.9989 0.461119 33.929 0.301472 33.8045 0.183808ZM9.03089 30.2477C9.03089 30.5936 8.73299 30.8752 8.36683 30.8752H1.99205C1.62589 30.8752 1.32799 30.5937 1.32799 30.2477V20.019C1.32799 19.6729 1.62589 19.3914 1.99205 19.3914H4.51541V26.6204C4.51541 26.9669 4.81278 27.248 5.17947 27.248C5.54616 27.248 5.84353 26.9669 5.84353 26.6204V19.3914H8.36689C8.73306 19.3914 9.03095 19.6729 9.03095 20.019V30.2477H9.03089ZM11.0259 5.06673L16.3354 3.72228V6.04764L15.8903 6.16035C15.7201 6.20346 15.5751 6.30857 15.4871 6.45272C15.399 6.59687 15.3751 6.76812 15.4207 6.9289C15.6759 7.82886 15.1088 8.75719 14.1564 8.99835C13.9861 9.04153 13.8409 9.14683 13.7529 9.29129C13.6649 9.43569 13.6412 9.60726 13.6872 9.76816L16.2757 18.826H14.9429L14.256 16.2867C14.2342 16.2059 14.1959 16.1314 14.1447 16.0666L11.0259 5.06673ZM16.3354 8.9255V14.2208L15.1242 9.98265C15.6301 9.73578 16.0442 9.36641 16.3354 8.9255ZM25.8755 30.8752H13.289C12.8013 30.8752 12.3303 30.7084 11.9626 30.4054L10.359 29.0838V20.4044L13.2582 17.6647L13.784 19.6088C13.8591 19.8866 14.1239 20.0809 14.4273 20.0809L27.483 20.0817C27.9957 20.0817 28.4127 20.4758 28.4127 20.9602C28.4127 21.4447 27.9957 21.8388 27.483 21.8388H20.7933C20.4266 21.8388 20.1292 22.1198 20.1292 22.4663C20.1292 22.8129 20.4266 23.0939 20.7933 23.0939H29.5615C30.0742 23.0939 30.4912 23.488 30.4912 23.9724C30.4912 24.4569 30.0742 24.851 29.5615 24.851H20.7933C20.4266 24.851 20.1292 25.132 20.1292 25.4785C20.1292 25.8251 20.4266 26.1061 20.7933 26.1061H28.1406C28.6533 26.1061 29.0703 26.5002 29.0703 26.9846C29.0703 27.4691 28.6533 27.8632 28.1406 27.8632H20.7933C20.4266 27.8632 20.1292 28.1442 20.1292 28.4907C20.1292 28.8373 20.4266 29.1183 20.7933 29.1183H25.8755C26.3882 29.1183 26.8052 29.5124 26.8052 29.9969C26.8051 30.4811 26.3881 30.8752 25.8755 30.8752ZM32.6709 30.8752H32.6708H27.9322C28.0609 30.607 28.1332 30.3097 28.1332 29.9966C28.1332 29.6835 28.0609 29.3862 27.9322 29.118H28.1406C29.3855 29.118 30.3984 28.1609 30.3984 26.9845C30.3984 26.6413 30.3117 26.3171 30.1587 26.0295C31.1147 25.7814 31.8192 24.9533 31.8192 23.9723C31.8192 23.4964 31.6533 23.0564 31.3735 22.7012V14.7477C31.3735 14.4012 31.0762 14.1202 30.7095 14.1202C30.3428 14.1202 30.0454 14.4012 30.0454 14.7477V21.8887C29.8894 21.8564 29.7275 21.8388 29.5614 21.8388H29.5396C29.6684 21.5706 29.7407 21.2734 29.7407 20.9602C29.7407 19.7837 28.7278 18.8266 27.4829 18.8266H26.4155C27.5489 18.3673 28.345 17.3026 28.345 16.0651C28.345 14.4091 26.9194 13.0618 25.167 13.0618C23.4147 13.0618 21.989 14.4091 21.989 16.0651C21.989 17.3026 22.7852 18.3673 23.9186 18.8266H20.2886V6.89439C21.4749 6.65008 22.411 5.76556 22.6694 4.64445H27.6646C27.923 5.76556 28.8591 6.65008 30.0453 6.89439V8.84542C30.0453 9.19195 30.3427 9.47296 30.7094 9.47296C31.0761 9.47296 31.3735 9.19195 31.3735 8.84542V6.33411C31.3735 5.98758 31.0761 5.70657 30.7094 5.70657C29.7235 5.70657 28.9215 4.94856 28.9215 4.01691C28.9215 3.67038 28.6241 3.38936 28.2574 3.38936H22.0766C21.7099 3.38936 21.4126 3.67038 21.4126 4.01691C21.4126 4.94862 20.6105 5.70657 19.6246 5.70657C19.2579 5.70657 18.9606 5.98758 18.9606 6.33411V18.8266H17.6635V1.25578L32.6709 1.25509V30.8752ZM25.1672 17.8133C24.1471 17.8133 23.3173 17.0291 23.3173 16.0652C23.3173 15.1013 24.1472 14.317 25.1672 14.317C26.1872 14.317 27.017 15.1012 27.017 16.0651C27.017 17.029 26.1872 17.8133 25.1672 17.8133Z" fill="#C1A671"/>
</svg>
