<svg width="52" height="52" viewBox="0 0 52 52" fill="none" xmlns="http://www.w3.org/2000/svg">
<g clip-path="url(#clip0)">
<path d="M0.419434 7.00732C0.419434 7.00732 20.5485 12.8783 26.4194 17.0718C32.2904 21.2654 38.1614 34.6847 39.8388 43.0718C40.6775 47.2654 40.9007 51.6416 40.9007 51.6416H0.419434V7.00732Z" fill="#7A7585"/>
<path d="M0.419434 49.1255V51.6416H40.9007C40.9007 51.6416 40.8487 50.6317 40.7025 49.1255H0.419434Z" fill="#D6D6D0"/>
<path d="M39.8387 45.588C40.2757 47.7736 40.5447 50.0018 40.7032 51.6416H40.9014C40.9014 51.6416 40.6782 47.2654 39.8395 43.0718C38.1621 34.6847 32.2911 21.2654 26.4202 17.0718C20.5492 12.8783 0.420166 7.00732 0.420166 7.00732V9.52345C0.420166 9.52345 20.5492 15.3944 26.4202 19.588C32.2911 23.7815 38.1613 37.2009 39.8387 45.588Z" fill="#EEEFEB"/>
<path d="M40.9014 51.8785H0.419355C0.187973 51.8785 0 51.6905 0 51.4591V7.00751C0 6.87564 0.062248 6.75073 0.167906 6.67169C0.272744 6.59225 0.408298 6.56686 0.536889 6.60453C1.36127 6.84533 20.8015 12.5435 26.6626 16.7305C32.9235 21.2033 38.6703 35.0957 40.2499 42.9897C41.0849 47.1648 41.3175 51.3944 41.32 51.4362C41.3257 51.5513 41.2847 51.6635 41.2049 51.7474C41.1263 51.8306 41.0161 51.8785 40.9014 51.8785ZM0.83871 51.0398H40.4534C40.3711 49.8579 40.0938 46.4871 39.4267 43.1539C37.841 35.2247 32.0327 21.5965 26.1753 17.4132C20.962 13.6893 4.07274 8.53545 0.83871 7.56938V51.0398Z" fill="#EEEFEB"/>
<path d="M27.2582 22.9429C22.2259 22.9429 10.484 26.2977 7.96787 29.6525C5.45174 33.0074 1.25819 40.5558 4.61303 42.2332C6.29045 43.0719 12.1614 43.0719 17.1937 43.0719H39.8388C38.6639 37.1964 35.4299 28.8556 31.5807 22.9429C30.4402 22.9429 29.0044 22.9429 27.2582 22.9429Z" fill="#FFD3B4" fill-opacity="0.44"/>
<path d="M17.1936 40.5556C12.1614 40.5556 6.29042 40.5556 4.613 39.7169C4.05113 39.4356 3.71572 38.9785 3.5343 38.415C3.16041 40.1572 3.35903 41.6057 4.613 42.233C6.29042 43.0718 12.1614 43.0718 17.1936 43.0718H39.8388C39.6795 42.2748 39.4788 41.4304 39.2483 40.5556C33.3982 40.5556 20.9928 40.5556 17.1936 40.5556Z" fill="#EEEFEB"/>
<path d="M7.96766 32.1687C10.4838 28.8138 22.2257 25.459 27.258 25.459H30.6538C31.2308 25.459 31.7718 25.7473 32.0756 26.2379C35.1905 31.2583 37.8459 37.771 39.2473 43.0719H39.8386C38.6637 37.1964 35.4297 28.8556 31.5805 22.9429C30.44 22.9429 29.0042 22.9429 27.258 22.9429C22.2257 22.9429 10.4838 26.2977 7.96766 29.6525C5.87335 32.4451 2.63195 38.1326 3.53413 40.9313C4.15989 38.0134 6.39262 34.2695 7.96766 32.1687Z" fill="white"/>
<path d="M39.8388 43.4912H17.1937C12.0365 43.4912 6.19132 43.4912 4.42504 42.6078C3.70796 42.2487 3.24519 41.6475 3.04985 40.8198C2.34997 37.8573 5.40708 32.3672 7.63245 29.4006C8.74185 27.9202 11.3522 26.6298 13.3457 25.8074C13.5595 25.7222 13.8052 25.8218 13.8933 26.0359C13.9813 26.2497 13.879 26.4946 13.6652 26.5835C10.9451 27.7048 9.09159 28.8531 8.30325 29.9039C6.25439 32.6363 3.23741 37.9638 3.86644 40.6278C4.00404 41.2105 4.30955 41.6123 4.80098 41.858C6.38953 42.6525 12.3805 42.6525 17.1937 42.6525H39.324C38.0095 36.5161 34.784 28.6995 31.3534 23.3621H27.2582C27.0268 23.3621 26.8388 23.1742 26.8388 22.9428C26.8388 22.711 27.0268 22.5234 27.2582 22.5234H31.5807C31.7228 22.5234 31.8551 22.5947 31.9325 22.7135C35.5556 28.2793 38.9751 36.6169 40.25 42.9895C40.2741 43.1128 40.2422 43.2401 40.1628 43.3376C40.0837 43.4347 39.9645 43.4912 39.8388 43.4912Z" fill="#EEEFEB"/>
<path d="M17.3026 25.2582C17.124 25.2582 16.9581 25.1431 16.9016 24.9629C16.8328 24.7413 16.9561 24.5075 17.1785 24.4387C18.2764 24.0984 19.401 23.7888 20.5198 23.5205C20.7454 23.4677 20.9719 23.6057 21.0256 23.8305C21.0792 24.0562 20.9408 24.2827 20.7155 24.3363C19.6143 24.6005 18.5078 24.9051 17.4266 25.2405C17.3857 25.2516 17.3439 25.2582 17.3026 25.2582Z" fill="#EEEFEB"/>
<path d="M18.8711 35.1041C18.8711 37.6514 16.8058 39.717 14.2582 39.717C11.7105 39.717 9.64526 37.6514 9.64526 35.1041C9.64526 32.5565 11.7105 30.4912 14.2582 30.4912C16.8058 30.4912 18.8711 32.5565 18.8711 35.1041Z" fill="#E9E9E9"/>
<path d="M14.2582 35.943C14.2582 36.8694 13.5071 37.6205 12.5807 37.6205C11.6544 37.6205 10.9033 36.8694 10.9033 35.943C10.9033 35.0163 11.6544 34.2656 12.5807 34.2656C13.5071 34.2656 14.2582 35.0163 14.2582 35.943Z" fill="#FFD3B4" fill-opacity="0.44"/>
<path d="M17.6128 33.846C17.6128 34.5405 17.0497 35.104 16.3547 35.104C15.6598 35.104 15.0967 34.5405 15.0967 33.846C15.0967 33.151 15.6598 32.5879 16.3547 32.5879C17.0497 32.5879 17.6128 33.151 17.6128 33.846Z" fill="#FFD3B4" fill-opacity="0.44"/>
<path d="M12.8664 39.9233C12.8246 39.9233 12.782 39.9176 12.7398 39.9041C11.7836 39.6022 10.9465 39.026 10.3187 38.2377C10.1741 38.0563 10.2045 37.793 10.3855 37.648C10.5669 37.5038 10.831 37.5333 10.9752 37.7151C11.4994 38.3728 12.1972 38.8532 12.9933 39.1047C13.2137 39.1743 13.3361 39.4102 13.2665 39.6309C13.2096 39.8086 13.0453 39.9233 12.8664 39.9233Z" fill="#EEEFEB"/>
<path d="M16.6493 39.4692C16.5076 39.4692 16.3692 39.3979 16.2902 39.2673C16.1693 39.0691 16.2332 38.8119 16.431 38.6911C17.6961 37.9228 18.4516 36.5824 18.4516 35.104C18.4516 32.7914 16.5703 30.9105 14.2581 30.9105C11.9459 30.9105 10.0645 32.7914 10.0645 35.104C10.0645 35.3354 9.87657 35.5234 9.64518 35.5234C9.4138 35.5234 9.22583 35.3354 9.22583 35.104C9.22583 32.3287 11.4827 30.0718 14.2581 30.0718C17.0334 30.0718 19.2903 32.3287 19.2903 35.104C19.2903 36.8777 18.3837 38.4871 16.8655 39.4082C16.7976 39.4491 16.723 39.4692 16.6493 39.4692Z" fill="#EEEFEB"/>
<path d="M33.9679 33.4266C33.9679 36.9006 31.1515 39.7169 27.6775 39.7169C24.2035 39.7169 21.3872 36.9006 21.3872 33.4266C21.3872 29.9521 24.2035 27.1362 27.6775 27.1362C31.1515 27.1362 33.9679 29.9521 33.9679 33.4266Z" fill="#E9E9E9"/>
<path d="M29.8094 27.9266C29.7623 27.9266 29.714 27.9188 29.6677 27.9012C28.5329 27.4929 27.2646 27.4467 26.1008 27.7698C25.8792 27.8316 25.6462 27.701 25.5839 27.4778C25.5221 27.2546 25.6527 27.0232 25.8759 26.961C27.2069 26.592 28.6546 26.6448 29.9511 27.1121C30.1694 27.1911 30.2824 27.4307 30.2038 27.649C30.1424 27.8201 29.9814 27.9266 29.8094 27.9266Z" fill="#EEEFEB"/>
<path d="M27.6775 40.1365C23.9778 40.1365 20.9678 37.126 20.9678 33.4268C20.9678 31.2903 21.9994 29.2623 23.728 28.0026C23.9151 27.8658 24.1776 27.9072 24.3132 28.0939C24.45 28.2811 24.409 28.5436 24.2219 28.6795C22.7099 29.7832 21.8065 31.5573 21.8065 33.4268C21.8065 36.6641 24.4401 39.2977 27.6775 39.2977C30.9148 39.2977 33.5484 36.6641 33.5484 33.4268C33.5484 32.0839 33.1074 30.8197 32.2727 29.7713C32.1286 29.5903 32.1585 29.3262 32.3399 29.182C32.5217 29.0375 32.7851 29.0678 32.9296 29.2488C33.8822 30.4475 34.3871 31.8919 34.3871 33.4268C34.3871 37.126 31.3771 40.1365 27.6775 40.1365Z" fill="#EEEFEB"/>
<path d="M31.4517 33.427C31.4517 35.5111 29.762 37.2012 27.6775 37.2012C25.593 37.2012 23.9033 35.5111 23.9033 33.427C23.9033 31.3425 25.593 29.6528 27.6775 29.6528C29.762 29.6528 31.4517 31.3425 31.4517 33.427Z" fill="#FFD3B4" fill-opacity="0.44"/>
<path d="M26.5149 37.4378C26.4723 37.4378 26.4289 37.4313 26.3859 37.4178C25.5705 37.1544 24.8636 36.6528 24.3411 35.9684C24.201 35.785 24.2362 35.5212 24.4201 35.3804C24.6044 35.2387 24.8669 35.2755 25.0078 35.4594C25.4263 36.0069 25.9919 36.4087 26.6443 36.6192C26.8646 36.6904 26.9854 36.9271 26.9141 37.1466C26.8564 37.3248 26.6922 37.4378 26.5149 37.4378Z" fill="#EEEFEB"/>
<path d="M29.6055 37.091C29.463 37.091 29.3237 37.0181 29.2451 36.8866C29.1268 36.6876 29.1923 36.43 29.3909 36.3112C30.4032 35.7088 31.0323 34.6035 31.0323 33.4269C31.0323 31.5767 29.5277 30.0721 27.6774 30.0721C25.8272 30.0721 24.3226 31.5767 24.3226 33.4269C24.3226 33.6583 24.1346 33.8463 23.9032 33.8463C23.6719 33.8463 23.4839 33.6583 23.4839 33.4269C23.4839 31.1144 25.3653 29.2334 27.6774 29.2334C29.9896 29.2334 31.871 31.1144 31.871 33.4269C31.871 34.898 31.0851 36.2793 29.8205 37.0324C29.7533 37.0725 29.6788 37.091 29.6055 37.091Z" fill="#EEEFEB"/>
<path d="M43.1936 22.9429H46.5485C49.3279 22.9429 51.5807 25.1953 51.5807 27.9751V49.7816C51.5807 50.7083 50.8301 51.459 49.9033 51.459H39.8388C38.912 51.459 38.1614 50.7083 38.1614 49.7816V27.9751C38.1614 25.1953 40.4142 22.9429 43.1936 22.9429Z" fill="#EBF7FE"/>
<path d="M38.1614 30.4912H51.5807V43.9106H38.1614V30.4912Z" fill="#F0F0E6"/>
<path d="M41.1807 44.3299H38.1613C37.9299 44.3299 37.7419 44.1419 37.7419 43.9106C37.7419 43.6788 37.9299 43.4912 38.1613 43.4912H41.1807C41.4121 43.4912 41.6001 43.6788 41.6001 43.9106C41.6001 44.1419 41.4121 44.3299 41.1807 44.3299Z" fill="#EEEFEB"/>
<path d="M48.3609 44.3299H46.0483C45.8169 44.3299 45.6289 44.1419 45.6289 43.9106C45.6289 43.6788 45.8169 43.4912 46.0483 43.4912H48.3609C48.5922 43.4912 48.7802 43.6788 48.7802 43.9106C48.7802 44.1419 48.5922 44.3299 48.3609 44.3299Z" fill="#EEEFEB"/>
<path d="M51.5808 44.3299H50.3698C50.138 44.3299 49.9504 44.1419 49.9504 43.9106C49.9504 43.6788 50.138 43.4912 50.3698 43.4912H51.5808C51.8121 43.4912 52.0001 43.6788 52.0001 43.9106C52.0001 44.1419 51.8121 44.3299 51.5808 44.3299Z" fill="#EEEFEB"/>
<path d="M51.5806 30.9105H49.9433C49.7119 30.9105 49.5239 30.7225 49.5239 30.4911C49.5239 30.2593 49.7119 30.0718 49.9433 30.0718H51.5806C51.812 30.0718 51.9999 30.2593 51.9999 30.4911C51.9999 30.7225 51.812 30.9105 51.5806 30.9105Z" fill="#EEEFEB"/>
<path d="M46.4746 30.9105H43.3102C43.0784 30.9105 42.8909 30.7225 42.8909 30.4911C42.8909 30.2593 43.0784 30.0718 43.3102 30.0718H46.4746C46.706 30.0718 46.894 30.2593 46.894 30.4911C46.894 30.7225 46.706 30.9105 46.4746 30.9105Z" fill="#EEEFEB"/>
<path d="M41.2409 30.9105H38.1613C37.9299 30.9105 37.7419 30.7225 37.7419 30.4911C37.7419 30.2593 37.9299 30.0718 38.1613 30.0718H41.2409C41.4727 30.0718 41.6603 30.2593 41.6603 30.4911C41.6603 30.7225 41.4735 30.9105 41.2409 30.9105Z" fill="#EEEFEB"/>
<path d="M49.9033 49.7814H39.8388C38.912 49.7814 38.1614 49.0308 38.1614 48.104V49.7814C38.1614 50.7082 38.912 51.4588 39.8388 51.4588H49.9033C50.8301 51.4588 51.5807 50.7082 51.5807 49.7814V48.104C51.5807 49.0308 50.8301 49.7814 49.9033 49.7814Z" fill="#EBF7FE"/>
<path d="M46.5485 22.9429H43.1936C40.4142 22.9429 38.1614 25.1953 38.1614 27.9751V29.6525C38.1614 26.8727 40.4142 24.6203 43.1936 24.6203H46.5485C49.3279 24.6203 51.5807 26.8727 51.5807 29.6525V27.9751C51.5807 25.1953 49.3279 22.9429 46.5485 22.9429Z" fill="#EBF7FE"/>
<path d="M49.9032 51.8785H39.8387C38.683 51.8785 37.7419 50.9374 37.7419 49.7817V27.9753C37.7419 25.2896 39.7421 22.9713 42.395 22.5814C42.6292 22.5446 42.8373 22.7063 42.8709 22.9352C42.904 23.1642 42.7455 23.3771 42.5166 23.4107C40.2732 23.7412 38.5807 25.7028 38.5807 27.9753V49.7817C38.5807 50.4751 39.145 51.0398 39.8387 51.0398H49.9032C50.597 51.0398 51.1613 50.4751 51.1613 49.7817V27.9753C51.1613 25.6971 49.5318 23.7817 47.2855 23.4209C47.0574 23.3841 46.9014 23.1691 46.9383 22.9402C46.9743 22.7121 47.1848 22.556 47.4191 22.5933C50.0736 23.0192 52 25.2826 52 27.9753V49.7817C52 50.9374 51.0589 51.8785 49.9032 51.8785Z" fill="#EEEFEB"/>
<path d="M45.7097 39.7172H43.1936C41.8037 39.7172 40.6775 38.5906 40.6775 37.201V36.3623C40.6775 34.9724 41.8037 33.8462 43.1936 33.8462H45.7097V39.7172Z" fill="#FFD3B4" fill-opacity="0.44"/>
<path d="M41.1078 39.0267C40.9727 39.0267 40.8408 38.962 40.7597 38.842C40.4317 38.3567 40.2581 37.7887 40.2581 37.201V36.3623C40.2581 35.5781 40.5632 34.8405 41.1177 34.2864C41.2815 34.1226 41.5472 34.1226 41.7106 34.2864C41.874 34.4498 41.874 34.7156 41.7106 34.8794C41.3146 35.2758 41.0968 35.8017 41.0968 36.3623V37.201C41.0968 37.6212 41.22 38.0262 41.4547 38.3727C41.5841 38.5648 41.5337 38.8256 41.3417 38.9546C41.2696 39.0034 41.1881 39.0267 41.1078 39.0267Z" fill="#EEEFEB"/>
<path d="M45.7097 40.1364H43.1935C42.9621 40.1364 42.7742 39.9485 42.7742 39.7171C42.7742 39.4853 42.9621 39.2977 43.1935 39.2977H45.2903V34.2655H43.1935C42.9621 34.2655 42.7742 34.0775 42.7742 33.8461C42.7742 33.6143 42.9621 33.4268 43.1935 33.4268H45.7097C45.941 33.4268 46.129 33.6143 46.129 33.8461V39.7171C46.129 39.9485 45.941 40.1364 45.7097 40.1364Z" fill="#EEEFEB"/>
<path d="M49.9033 37.6204H47.3871C47.1557 37.6204 46.9678 37.4325 46.9678 37.2011C46.9678 36.9693 47.1557 36.7817 47.3871 36.7817H49.9033C50.1346 36.7817 50.3226 36.9693 50.3226 37.2011C50.3226 37.4325 50.1346 37.6204 49.9033 37.6204Z" fill="#EEEFEB"/>
<path d="M47.387 35.943C47.2797 35.943 47.1724 35.9016 47.0901 35.8205C46.9267 35.6567 46.9267 35.3909 47.0901 35.2275L48.7675 33.5501C48.9309 33.3863 49.1971 33.3863 49.3605 33.5501C49.5239 33.7135 49.5239 33.9793 49.3605 34.1431L47.6831 35.8205C47.6016 35.9016 47.4943 35.943 47.387 35.943Z" fill="#EEEFEB"/>
<path d="M49.0644 40.9752C48.9571 40.9752 48.8498 40.9338 48.7675 40.8527L47.0901 39.1753C46.9267 39.0115 46.9267 38.7457 47.0901 38.5823C47.2535 38.4185 47.5197 38.4185 47.6831 38.5823L49.3605 40.2597C49.5239 40.4231 49.5239 40.6889 49.3605 40.8527C49.279 40.9338 49.1717 40.9752 49.0644 40.9752Z" fill="#EEEFEB"/>
<path d="M41.9354 5.74951L43.1214 7.91836L45.2902 9.10435L43.1214 10.2899L41.9354 12.4592L40.7494 10.2899L38.5806 9.10435L40.7494 7.91836L41.9354 5.74951Z" fill="#FFD3B4" fill-opacity="0.44"/>
<path d="M40.7494 8.75707L41.9354 7.42693L43.1214 8.75707L45.2902 9.10435L43.1214 7.91836L41.9354 5.74951L40.7494 7.91836L38.5806 9.10435L40.7494 8.75707Z" fill="white"/>
<path d="M22.6451 0.717285L24.424 3.97056L27.6773 5.74954L24.424 7.52811L22.6451 10.7818L20.8661 7.52811L17.6128 5.74954L20.8661 3.97056L22.6451 0.717285Z" fill="#FFD3B4" fill-opacity="0.44"/>
<path d="M20.8661 5.64798L22.6451 2.3947L24.424 5.64798L26.9828 5.74954H27.6773L24.424 3.97056L22.6451 0.717285L20.8661 3.97056L17.6128 5.74954H18.3073L20.8661 5.64798Z" fill="white"/>
<path d="M41.9356 12.8782C41.782 12.8782 41.6411 12.7942 41.5682 12.6599L40.4408 10.5992L38.3805 9.47214C38.2453 9.39802 38.1614 9.25714 38.1614 9.10398C38.1614 8.95041 38.2453 8.80953 38.3792 8.73664L40.44 7.60921L41.5674 5.54847C41.714 5.27942 42.1563 5.27942 42.3029 5.54847L43.4303 7.60921L45.4907 8.73664C45.6258 8.80953 45.7098 8.95041 45.7098 9.10398C45.7098 9.25714 45.6258 9.39802 45.4919 9.47133L43.4312 10.5983L42.3037 12.6591C42.23 12.7942 42.0891 12.8782 41.9356 12.8782ZM39.4547 9.10398L40.9511 9.92221C41.0215 9.96112 41.0793 10.0189 41.1177 10.0893L41.9356 11.5849L42.7542 10.0885C42.7927 10.018 42.8505 9.9603 42.9209 9.92139L44.4165 9.10398L42.9201 8.28534C42.8496 8.24643 42.7919 8.18869 42.7534 8.11825L41.9356 6.62307L41.1169 8.11907C41.0784 8.18951 41.0207 8.24766 40.9503 8.28616L39.4547 9.10398Z" fill="#EEEFEB"/>
<path d="M22.6452 11.2008C22.4916 11.2008 22.3508 11.1168 22.2779 10.9825L20.5579 7.83735L17.4127 6.11734C17.2776 6.04321 17.1936 5.90234 17.1936 5.74917C17.1936 5.5956 17.2776 5.45472 17.4115 5.38183L20.5566 3.66141L22.2771 0.516247C22.4237 0.247188 22.866 0.247188 23.0126 0.516247L24.7326 3.66141L27.8777 5.38183C28.0129 5.45472 28.0968 5.5956 28.0968 5.74917C28.0968 5.90234 28.0129 6.04321 27.879 6.11652L24.7338 7.83653L23.0134 10.9817C22.9397 11.1168 22.7988 11.2008 22.6452 11.2008ZM18.4869 5.74917L21.0677 7.1604C21.1382 7.19931 21.1959 7.25705 21.2344 7.32749L22.6452 9.9075L24.0569 7.32667C24.0954 7.25623 24.1531 7.19808 24.2235 7.15958L26.8035 5.74917L24.2227 4.33754C24.1523 4.29904 24.0945 4.24089 24.056 4.17045L22.6452 1.59084L21.2336 4.17127C21.1951 4.24171 21.1373 4.29986 21.0669 4.33836L18.4869 5.74917Z" fill="#EEEFEB"/>
<path d="M42.3547 16.2334H47.387V22.9431H42.3547V16.2334Z" fill="#E9E9E9"/>
<path d="M42.3547 16.2334H47.387V17.9108H42.3547V16.2334Z" fill="#D6D6D0"/>
<path d="M47.3872 23.3624H46.0619C45.8305 23.3624 45.6426 23.1744 45.6426 22.943C45.6426 22.7112 45.8305 22.5236 46.0619 22.5236H46.9678V16.6527H42.7743V22.5236H43.3369C43.5683 22.5236 43.7563 22.7112 43.7563 22.943C43.7563 23.1744 43.5683 23.3624 43.3369 23.3624H42.3549C42.1235 23.3624 41.9355 23.1744 41.9355 22.943V16.2333C41.9355 16.0015 42.1235 15.814 42.3549 15.814H47.3872C47.6185 15.814 47.8065 16.0015 47.8065 16.2333V22.943C47.8065 23.1744 47.6185 23.3624 47.3872 23.3624Z" fill="#EEEFEB"/>
</g>
<defs>
<clipPath id="clip0">
<rect width="52" height="52" fill="white"/>
</clipPath>
</defs>
</svg>
