<svg width="193" height="193" viewBox="0 0 193 193" fill="none" xmlns="http://www.w3.org/2000/svg">
<g clip-path="url(#clip0)">
<path d="M19.11 131.895L17.7334 150.917C34.5297 173.913 61.6955 188.854 92.3535 188.854C130.819 188.854 163.787 165.335 177.675 131.895H19.11Z" fill="#74727F"/>
<path d="M67.7378 131.895C101.909 131.895 105.77 179.24 76.7466 187.539C81.82 188.403 87.034 188.854 92.3536 188.854C130.819 188.854 163.787 165.335 177.675 131.895H67.7378Z" fill="#7A7585"/>
<path d="M92.3536 4.14648C66.4886 4.14648 43.1115 14.7841 26.3457 31.917L19.1101 131.895H177.667C182.196 120.993 184.707 109.041 184.707 96.5C184.707 45.4945 143.359 4.14648 92.3536 4.14648Z" fill="#D4EDEF"/>
<path d="M177.071 133.314C177.276 132.843 177.478 132.37 177.676 131.895H177.668C177.47 132.369 177.275 132.844 177.071 133.314Z" fill="#E9E9E9"/>
<path d="M49.3997 31.9747L26.7531 31.5001C23.342 34.9425 20.2013 38.6517 17.3628 42.5939H102.663C101.774 39.4791 99.2906 37.0786 96.1494 36.2886C81.7766 32.6736 63.3986 32.268 49.3997 31.9747Z" fill="#EEEFEB"/>
<path d="M28.5704 42.4144C29.6477 41.8927 30.1871 40.6401 29.7272 39.5353C27.7071 34.6846 31.7473 31.6049 31.7473 31.6049L26.7531 31.5001C23.342 34.9425 20.2012 38.6517 17.3628 42.5939H28.2247C28.3412 42.5298 28.4569 42.4695 28.5704 42.4144Z" fill="#D6D6D0"/>
<path d="M186.918 91.8315C186.402 84.5472 180.342 78.902 173.04 78.902H124.894C123.242 78.902 121.713 78.1745 120.668 76.9742V102.313H162.67C164.986 102.313 167.057 103.756 167.858 105.93L173.377 120.893H188.978L186.918 91.8315Z" fill="#C81515"/>
<path d="M0 96.5C0 98.4533 0.0678516 100.39 0.187346 102.313H18.1673C20.4833 102.313 22.5539 103.757 23.3553 105.93L34.8237 137.027C34.9888 137.475 35.0857 137.931 35.1317 138.384H57.6505V41.7189H18.0006C6.68979 57.045 0 75.9903 0 96.5H0Z" fill="#BF0000"/>
<path d="M18.0006 41.7189C6.68979 57.045 0 75.9903 0 96.5C0 98.4533 0.0678516 100.39 0.187346 102.313H18.1673C20.4833 102.313 22.5539 103.757 23.3553 105.93L23.7058 106.88C23.7058 85.4352 23.7058 58.1936 23.7058 52.2163C23.7058 45.9758 26.45 43.4415 28.5704 42.4143C28.9146 42.2477 29.2029 42.0057 29.4223 41.7189H18.0006Z" fill="#BF0000"/>
<path d="M106.148 128.509L114.475 105.93C115.276 103.757 117.347 102.313 119.663 102.313H121.981V78.0817C120.95 77.4537 120.124 76.4985 119.668 75.3212L108.087 45.433C107.219 43.1943 105.065 41.7189 102.664 41.7189H56.3384V128.509H106.148Z" fill="#C81515"/>
<path d="M70.4417 56.111V75.0069C70.4417 77.1582 72.1854 78.9016 74.3363 78.9016H121.981V78.0813C120.949 77.4533 120.123 76.4981 119.667 75.3209L110.714 52.2156H74.336C72.1854 52.2163 70.4417 53.9601 70.4417 56.111Z" fill="#4B4A55"/>
<path d="M87.9722 75.0073V56.111C87.9722 53.9601 89.716 52.2163 91.8669 52.2163H74.3363C72.1854 52.2163 70.4417 53.9601 70.4417 56.111V75.0073C70.4417 77.1582 72.1854 78.902 74.3363 78.902H91.8669C89.716 78.902 87.9722 77.1582 87.9722 75.0073Z" fill="#363540"/>
<path d="M38.2706 52.2163H11.2932C6.79501 60.4328 3.51363 69.4088 1.68164 78.902H38.2702C40.4211 78.902 42.1649 77.1582 42.1649 75.0073V56.111C42.1657 53.9601 40.4219 52.2163 38.2706 52.2163Z" fill="#4B4A55"/>
<path d="M1.68188 78.902H23.7057C23.7057 66.363 23.7057 55.6926 23.7057 52.2163H11.2931C6.79488 60.4328 3.5135 69.4088 1.68188 78.902Z" fill="#363540"/>
<path d="M78.6901 93.3325H72.191C70.3794 93.3325 68.9104 91.8639 68.9104 90.0519C68.9104 88.2402 70.379 86.7712 72.191 86.7712H78.6901C80.5017 86.7712 81.9707 88.2398 81.9707 90.0519C81.9707 91.8635 80.5021 93.3325 78.6901 93.3325Z" fill="#4E0000"/>
<path d="M140.955 93.3325H136.206C134.394 93.3325 132.925 91.8639 132.925 90.0519C132.925 88.2402 134.394 86.7712 136.206 86.7712H140.955C142.767 86.7712 144.236 88.2398 144.236 90.0519C144.236 91.8635 142.767 93.3325 140.955 93.3325Z" fill="#FFC743"/>
<path d="M186.22 90.0519H184.919C182.032 90.0519 179.67 92.4139 179.67 95.301V106.014C179.67 108.901 182.032 111.263 184.919 111.263H186.22C189.107 111.263 191.469 108.901 191.469 106.014V95.301C191.469 92.4139 189.107 90.0519 186.22 90.0519Z" fill="#EEEFEB"/>
<path d="M186.22 102.121H184.919C182.032 102.121 179.67 99.7592 179.67 96.8721V106.013C179.67 108.9 182.032 111.262 184.919 111.262H186.22C189.107 111.262 191.469 108.9 191.469 106.013V96.8721C191.469 99.7592 189.107 102.121 186.22 102.121Z" fill="#D6D6D0"/>
<path d="M123.122 70.8984H117.007C115.332 70.8984 113.962 72.269 113.962 73.9442V83.8596C113.962 85.5348 115.332 86.9054 117.007 86.9054H123.122C126.905 86.9054 130 83.8102 130 80.0275V77.7763C130 73.9936 126.905 70.8984 123.122 70.8984Z" fill="#EEEFEB"/>
<path d="M119.347 80.0275V77.7763C119.347 74.5274 121.633 71.7922 124.673 71.0828C124.174 70.9663 123.656 70.8984 123.122 70.8984H117.007C115.332 70.8984 113.961 72.269 113.961 73.9442V83.8596C113.961 85.5348 115.332 86.9054 117.007 86.9054H123.122C123.656 86.9054 124.174 86.8375 124.673 86.721C121.633 86.0116 119.347 83.2764 119.347 80.0275Z" fill="#D6D6D0"/>
<path d="M26.3987 127.455L30.3884 138.273C30.5749 138.779 30.6843 139.294 30.7367 139.807H107.094C107.146 139.294 107.255 138.779 107.442 138.273L111.431 127.455H26.3987Z" fill="#5F5E6A"/>
<path d="M87.6819 127.455C91.9497 127.455 94.9016 131.721 93.3995 135.716C93.3825 135.761 93.3656 135.805 93.349 135.849C92.4533 138.231 90.1758 139.807 87.6313 139.807H107.093C107.145 139.294 107.254 138.779 107.441 138.272L111.431 127.454H87.6819V127.455Z" fill="#4B4A55"/>
<path d="M117.473 108.641H164.859V123.951H117.473V108.641Z" fill="#21212B"/>
<path d="M141.166 162.825C126.951 162.825 115.385 151.26 115.385 137.044C115.385 122.828 126.951 111.263 141.166 111.263C155.382 111.263 166.948 122.828 166.948 137.044C166.948 151.259 155.382 162.825 141.166 162.825ZM141.166 122.49C133.141 122.49 126.612 129.019 126.612 137.044C126.612 145.069 133.141 151.598 141.166 151.598C149.191 151.598 155.721 145.069 155.721 137.044C155.721 129.019 149.192 122.49 141.166 122.49Z" fill="#363540"/>
<path d="M141.166 162.825C126.951 162.825 115.385 151.26 115.385 137.044C115.385 122.828 126.951 111.263 141.166 111.263C155.382 111.263 166.948 122.828 166.948 137.044C166.948 151.259 155.382 162.825 141.166 162.825ZM141.166 122.49C133.141 122.49 126.612 129.019 126.612 137.044C126.612 145.069 133.141 151.598 141.166 151.598C149.191 151.598 155.721 145.069 155.721 137.044C155.721 129.019 149.192 122.49 141.166 122.49Z" fill="#363540"/>
<path d="M157.799 156.72C153.587 155.984 152.936 153.207 152.946 151.529C152.95 150.813 152.47 150.188 151.772 150.027C150.757 149.792 150.058 149.385 149.578 148.909C147.201 150.6 144.299 151.598 141.167 151.598C133.142 151.598 126.613 145.069 126.613 137.044C126.613 130.687 130.711 125.272 136.403 123.294C136.214 122.428 136.368 121.58 136.589 120.923C136.823 120.225 136.52 119.473 135.877 119.111C131.634 116.722 134.77 112.09 134.79 112.061C123.648 114.907 115.385 125.028 115.385 137.044C115.385 151.259 126.951 162.825 141.166 162.825C147.501 162.825 153.306 160.524 157.799 156.72Z" fill="#21212B"/>
<path d="M141.166 151.598C149.204 151.598 155.72 145.082 155.72 137.044C155.72 129.005 149.204 122.489 141.166 122.489C133.128 122.489 126.612 129.005 126.612 137.044C126.612 145.082 133.128 151.598 141.166 151.598Z" fill="#D6D6D0"/>
<path d="M141.166 151.598C144.299 151.598 147.201 150.6 149.578 148.909C148.794 148.132 148.598 147.169 148.581 146.465C148.565 145.865 148.191 145.338 147.635 145.111C136.515 140.551 137.837 130.385 138.587 127.121C138.724 126.524 138.473 125.92 137.976 125.562C137.025 124.878 136.574 124.079 136.403 123.294C130.711 125.272 126.613 130.687 126.613 137.044C126.613 145.069 133.141 151.598 141.166 151.598Z" fill="#C6C6C1"/>
<path d="M141.167 154.878C131.333 154.878 123.332 146.878 123.332 137.044C123.332 127.21 131.333 119.209 141.167 119.209C151.001 119.209 159.001 127.209 159.001 137.044C159.001 146.878 151.001 154.878 141.167 154.878ZM141.167 125.77C134.95 125.77 129.893 130.827 129.893 137.044C129.893 143.26 134.95 148.317 141.167 148.317C147.383 148.317 152.44 143.26 152.44 137.044C152.44 130.828 147.383 125.77 141.167 125.77Z" fill="#EEEFEB"/>
<path d="M141.167 154.878C145.551 154.878 149.567 153.285 152.676 150.652C152.468 150.346 152.155 150.115 151.772 150.027C149.098 149.408 148.61 147.599 148.581 146.466C148.574 146.195 148.491 145.942 148.355 145.721C146.402 147.342 143.896 148.317 141.167 148.317C134.951 148.317 129.893 143.26 129.893 137.044C129.893 131.765 133.542 127.323 138.448 126.104C138.337 125.894 138.178 125.707 137.976 125.562C135.977 124.124 136.169 122.175 136.589 120.923C136.715 120.549 136.682 120.161 136.529 119.824C128.937 121.871 123.332 128.814 123.332 137.044C123.332 146.878 131.333 154.878 141.167 154.878Z" fill="#D6D6D0"/>
<path d="M189.857 119.581H172.502L178.452 135.715C179.16 137.635 178.731 139.692 177.513 141.16H190.154C191.686 141.16 192.99 139.948 193 138.416C193 138.406 193 138.395 193 138.385V122.725C193 120.988 191.593 119.581 189.857 119.581Z" fill="#4B4A55"/>
<path d="M184.707 138.416C184.707 138.405 184.707 138.395 184.707 138.385V122.725C184.707 120.989 186.114 119.581 187.85 119.581H172.502L178.452 135.715C179.16 137.634 178.731 139.692 177.513 141.16H187.553C186.021 141.16 184.717 139.948 184.707 138.416Z" fill="#363540"/>
<path d="M179.327 135.715L167.858 104.617C167.057 102.444 164.986 101.001 162.67 101.001C151.087 101.001 126.409 101.001 119.662 101.001C117.346 101.001 115.276 102.444 114.474 104.617L103.006 135.715C101.918 138.663 103.503 141.944 106.534 142.903C109.372 143.8 112.406 142.189 113.435 139.395L123.066 113.283C123.337 112.548 124.037 112.06 124.82 112.06H157.512C158.296 112.06 158.996 112.548 159.267 113.283L168.951 139.542C170.009 142.412 173.192 143.872 176.052 142.816C178.917 141.759 180.384 138.58 179.327 135.715Z" fill="#5F5E6A"/>
<path d="M0.794922 108.641C1.32266 112.659 2.10823 116.595 3.13392 120.432L3.13731 120.431L4.62967 123.951H20.3561V108.641H0.794922Z" fill="#21212B"/>
<path d="M1.24878 111.679C1.7407 114.654 2.37775 117.58 3.14674 120.452L5.18417 125.257C8.83571 127.904 11.2177 132.199 11.2177 137.044C11.2177 137.75 11.1626 138.444 11.0643 139.124L13.0987 143.922C14.64 146.493 16.3001 148.984 18.0767 151.385C20.8338 147.282 22.4452 142.348 22.4452 137.044C22.4449 124.393 13.2834 113.849 1.24878 111.679Z" fill="#21212B"/>
<path d="M3.13745 120.431C5.3758 128.796 8.75707 136.694 13.1079 143.944C14.0024 141.821 14.4981 139.489 14.4981 137.044C14.4981 129.493 9.77937 123.028 3.13745 120.431Z" fill="#EEEFEB"/>
<path d="M23.3552 104.618C22.5541 102.445 20.4832 101.001 18.1672 101.001C13.5664 101.001 6.89928 101.001 0.110352 101.001C0.290158 104.751 0.697268 108.441 1.3117 112.06H13.0093C13.7926 112.06 14.493 112.548 14.764 113.283L24.448 139.541C25.5064 142.411 28.6891 143.871 31.549 142.816C34.4142 141.759 35.8806 138.58 34.8236 135.715L23.3552 104.618Z" fill="#5F5E6A"/>
<path d="M114.475 104.618L103.006 135.715C101.919 138.663 103.503 141.944 106.534 142.903C109.373 143.8 112.406 142.189 113.436 139.396L123.066 113.284C123.337 112.549 124.037 112.061 124.82 112.061C115.425 109.779 119.663 101.002 119.663 101.002C117.347 101.001 115.276 102.445 114.475 104.618Z" fill="#4B4A55"/>
<path d="M23.7057 105.568L23.3552 104.618C22.5541 102.445 20.4832 101.001 18.1672 101.001C13.5664 101.001 6.89928 101.001 0.110352 101.001C0.290158 104.751 0.697268 108.441 1.3117 112.06H13.0093C13.7926 112.06 14.493 112.548 14.764 113.283C14.764 103.177 23.7057 105.568 23.7057 105.568Z" fill="#4B4A55"/>
</g>
<defs>
<clipPath id="clip0">
<rect width="193" height="193" fill="white"/>
</clipPath>
</defs>
</svg>
