<svg width="193" height="193" viewBox="0 0 193 193" fill="none" xmlns="http://www.w3.org/2000/svg">
<g clip-path="url(#clip0)">
<path d="M92.3535 4.14648C56.1502 4.14648 24.8178 24.9814 9.67789 55.3122L0.130803 91.5804C0.0452344 93.2096 0 94.8497 0 96.5L16.0982 148.605C32.7346 172.906 60.68 188.854 92.3535 188.854C143.359 188.854 184.707 147.506 184.707 96.5C184.707 45.4945 143.359 4.14648 92.3535 4.14648Z" fill="#D4EDEF"/>
<path d="M181.65 72.868C132.803 63.9942 124.433 112 101.697 104.117C77.787 95.8264 75.9011 119.15 43.0749 107.44C26.7087 101.602 13.3657 102.614 4.09644 105.095L16.096 148.597C32.7313 172.902 60.6771 188.854 92.3536 188.854C143.359 188.854 184.707 147.506 184.707 96.5C184.707 88.331 183.641 80.4116 181.65 72.868Z" fill="#5F5E6A"/>
<path d="M88.6451 176.482C87.938 166.14 103.53 160.3 102.966 149.949C102.73 145.614 99.5319 141.973 95.9392 139.535C92.3464 137.098 88.2354 135.494 84.6803 133.002C78.0361 128.345 73.6959 120.551 73.2349 112.45C73.1516 110.986 73.1972 109.517 73.3604 108.062C66.305 110.894 57.8058 112.695 43.0756 107.441C26.7095 101.603 13.3664 102.614 4.09717 105.095L16.096 148.597C32.7313 172.902 60.6771 188.854 92.3536 188.854C95.5517 188.854 98.7113 188.691 101.826 188.373C95.5592 186.79 89.0782 182.817 88.6451 176.482Z" fill="#5F5E6A"/>
<path d="M34.196 116.318C31.8638 114.879 31.1389 111.823 32.5773 109.491L40.6901 96.3341C42.1278 94.0023 45.1845 93.2766 47.5171 94.7151C49.8493 96.1532 50.5742 99.2095 49.1358 101.542L41.023 114.699C39.583 117.035 36.524 117.753 34.196 116.318Z" fill="#21212B"/>
<path d="M1.54406 79.6226C0.822568 83.5282 0.344215 87.519 0.130859 91.5806L19.3819 99.7074C23.6701 101.518 28.4988 100.26 31.3984 96.9025L15.3869 90.0928C9.94634 87.7791 5.20842 84.1652 1.54406 79.6226Z" fill="#4B4A55"/>
<path d="M53.2944 107.412L53.5892 107.741C53.8146 107.589 56.779 104.232 62.2489 103.724L62.4838 103.702L73.0686 83.6685C72.7769 83.451 71.0346 82.794 69.6436 80.3992L67.5828 76.8509C65.4029 76.7518 60.9036 75.6975 54.7031 77.0903L42.5935 79.8104L42.4966 79.9525C39.9789 83.6534 40.4 88.685 43.4974 91.9162L47.8689 96.4762C49.8536 98.5472 48.7706 102.042 45.8801 102.562L46.2959 104.7C49.0526 104.422 51.5985 105.521 53.2944 107.412Z" fill="#363540"/>
<path d="M73.6354 83.7753C73.3358 83.6358 73.0485 83.4748 72.7681 83.3037L61.7505 104.156C62.1719 104.119 62.5979 104.096 63.0291 104.096C70.9025 104.096 77.2847 110.479 77.2847 118.352C77.2847 121.944 75.9526 125.222 73.7606 127.729H75.6005C77.61 127.729 79.4307 126.619 80.352 124.834L96.1324 94.2493L73.6354 83.7753Z" fill="#4B4A55"/>
<path d="M65.8621 74.7546L69.2671 80.6174C70.1801 82.1893 71.5529 83.443 73.2006 84.2105L95.8675 94.7641L103.341 80.28L65.8621 74.7546Z" fill="#5F5E6A"/>
<path d="M55.4122 112.925C55.4122 116.544 52.9926 119.801 49.528 120.845L49.1755 120.951C49.2162 121.147 49.2615 121.34 49.3097 121.533L51.6457 125.236C52.6303 126.797 54.3209 127.729 56.1676 127.729H74.5735C76.8918 125.128 78.3023 121.701 78.3023 117.943C78.3023 109.814 71.7128 103.225 63.5842 103.225C59.5798 103.225 55.9509 104.826 53.2971 107.421C54.6078 108.885 55.4122 110.811 55.4122 112.925Z" fill="#EEEFEB"/>
<path d="M62.2087 103.291C58.7524 103.612 55.6437 105.127 53.2975 107.421C54.6078 108.885 55.4122 110.811 55.4122 112.925C55.4122 116.545 52.9926 119.801 49.528 120.845L49.1755 120.951C49.2162 121.147 49.2615 121.341 49.3097 121.533L51.6457 125.236C52.6303 126.797 54.3209 127.73 56.1676 127.73H73.7608C54.9633 121.498 62.1729 103.379 62.2087 103.291Z" fill="#D6D6D0"/>
<path d="M155.629 92.675C134.99 92.675 118.259 109.406 118.259 130.046C118.259 150.685 134.99 167.417 155.629 167.417C176.269 167.417 193 150.685 193 130.046C193 109.406 176.269 92.675 155.629 92.675ZM155.629 154.403C142.177 154.403 131.272 143.498 131.272 130.046C131.272 116.594 142.177 105.689 155.629 105.689C169.081 105.689 179.986 116.594 179.986 130.046C179.986 143.498 169.081 154.403 155.629 154.403Z" fill="#21212B"/>
<path d="M155.629 167.417C163.149 167.417 170.148 165.194 176.01 161.373C175.998 161.371 175.987 161.369 175.975 161.368C170.845 160.762 170.052 157.611 170.14 155.438C170.185 154.316 169.553 153.285 168.528 152.826C167.811 152.504 167.321 152.07 166.992 151.59C163.599 153.383 159.734 154.403 155.63 154.403C142.178 154.403 131.273 143.498 131.273 130.046C131.273 120.684 136.559 112.559 144.306 108.483L138.227 96.969C126.354 103.229 118.259 115.691 118.259 130.046C118.259 150.686 134.99 167.417 155.629 167.417Z" fill="black"/>
<path d="M1.57868 113.558C5.57137 117.896 8.01176 123.685 8.01176 130.046C8.01176 131.247 7.92129 132.427 7.75317 133.581C10.0733 138.866 12.8718 143.893 16.0982 148.605C19.2329 143.137 21.0257 136.801 21.0257 130.046C21.0257 115.269 12.4481 102.496 0.000753906 96.4321C0.000753906 96.4547 0 96.4774 0 96.5C0 102.328 0.545828 108.029 1.57868 113.558Z" fill="black"/>
<path d="M175.188 66.3027L163.56 58.4474C159.333 55.5916 154.361 54.0401 149.259 53.9858L127.642 53.7551L127.235 53.4614L121.358 56.1205L127.728 67.904C133.368 65.2861 146.642 60.1278 154.77 65.1402C160.491 68.6673 167.996 70.0432 173.663 70.5642C176.072 70.7862 177.192 67.6571 175.188 66.3027Z" fill="#BF0000"/>
<path d="M145.503 53.9458L127.642 53.7551L127.235 53.4614L121.358 56.1205L127.728 67.904C131.648 66.0845 139.256 63.0409 146.261 63.0349C146.26 63.0345 146.259 63.0338 146.259 63.0334C140.479 58.9389 145.503 53.9462 145.503 53.9458Z" fill="#BF0000"/>
<path d="M104.734 42.9983L94.833 55.0163L116.689 65.1405L104.734 42.9983Z" fill="#4B4A55"/>
<path d="M155.629 157.668C140.399 157.668 128.007 145.277 128.007 130.046C128.007 114.815 140.399 102.423 155.629 102.423C170.86 102.423 183.252 114.815 183.252 130.046C183.252 145.277 170.86 157.668 155.629 157.668ZM155.629 109.261C144.168 109.261 134.844 118.585 134.844 130.046C134.844 141.507 144.168 150.832 155.629 150.832C167.091 150.832 176.415 141.507 176.415 130.046C176.415 118.585 167.09 109.261 155.629 109.261Z" fill="#5F5E6A"/>
<path d="M169.684 153.812C169.405 153.391 169.012 153.043 168.528 152.825C165.479 151.46 166.524 148.057 166.662 147.649C163.462 149.662 159.68 150.831 155.629 150.831C144.168 150.831 134.844 141.507 134.844 130.046C134.844 122.068 139.365 115.129 145.976 111.646L142.785 105.602C134.007 110.234 128.007 119.45 128.007 130.045C128.007 145.277 140.399 157.668 155.629 157.668C160.759 157.668 165.563 156.258 169.684 153.812Z" fill="#4B4A55"/>
<path d="M155.629 145.671C164.259 145.671 171.254 138.675 171.254 130.046C171.254 121.416 164.259 114.421 155.629 114.421C147 114.421 140.004 121.416 140.004 130.046C140.004 138.675 147 145.671 155.629 145.671Z" fill="#EEEFEB"/>
<path d="M163.73 143.41C160.529 142.691 159.912 140.735 159.92 139.307C159.925 138.48 159.539 137.702 158.853 137.24C157.633 136.418 158.217 134.833 158.217 134.833L148.382 116.204C143.403 118.816 140.004 124.033 140.004 130.045C140.004 138.675 147 145.67 155.629 145.67C158.595 145.671 161.368 144.845 163.73 143.41Z" fill="#D6D6D0"/>
<path d="M155.629 138.942C160.543 138.942 164.526 134.959 164.526 130.046C164.526 125.133 160.543 121.149 155.629 121.149C150.716 121.149 146.733 125.133 146.733 130.046C146.733 134.959 150.716 138.942 155.629 138.942Z" fill="#C6C6C1"/>
<path d="M0.758301 108.38C1.24721 112.186 1.97171 115.918 2.90957 119.565L6.2113 129.85C7.33651 132.754 8.60081 135.588 10.0027 138.341C10.8294 135.722 11.2772 132.936 11.2772 130.046C11.2772 121.27 7.15859 113.443 0.758301 108.38Z" fill="#5F5E6A"/>
<path d="M103.087 79.8225L79.9657 124.635C79.1191 126.275 77.4469 127.294 75.601 127.294H56.1679C54.4716 127.294 52.919 126.438 52.0143 125.003L49.1807 120.513C48.5248 120.671 47.844 120.763 47.1399 120.763C45.3366 120.763 43.6617 120.215 42.2719 119.276L38.7097 120.236L44.6494 129.65C47.1591 133.627 51.4651 136.002 56.1679 136.002H75.601C80.7196 136.002 85.3573 133.176 87.7042 128.628L112.424 80.7181L103.087 79.8225Z" fill="#363540"/>
<path d="M74.9461 127.294H56.1678C54.4715 127.294 52.9188 126.438 52.0142 125.003L49.1806 120.512C48.5247 120.67 47.8439 120.763 47.1394 120.763C45.3364 120.763 43.6613 120.214 42.2714 119.276L38.7092 120.236L44.6489 129.649C47.1586 133.627 51.4646 136.002 56.1678 136.002H75.6009C76.1799 136.002 76.7513 135.961 77.3153 135.89C71.0243 133.038 74.9461 127.294 74.9461 127.294Z" fill="#21212B"/>
<path d="M43.811 91.615C40.8364 88.512 40.4384 83.7514 42.8562 80.1971L4.01378 69.5015C2.92853 73.0573 2.05061 76.7032 1.39697 80.4267C5.021 84.7978 9.65639 88.2768 14.9515 90.5283L43.6534 102.735C45.6177 103.57 47.8938 102.745 48.8667 100.846C49.6572 99.3019 49.3824 97.4273 48.1825 96.1754L43.811 91.615Z" fill="#D6D6D0"/>
<path d="M42.8562 80.1975L4.01378 69.5015C2.92853 73.0573 2.05061 76.7032 1.39697 80.4267C5.021 84.7978 9.65639 88.2767 14.9515 90.5283L30.9878 97.3485C28.083 84.7873 41.3329 86.2808 41.3329 86.2808L41.3367 86.2755C41.1158 84.1902 41.6073 82.0333 42.8562 80.1975Z" fill="#C6C6C1"/>
<path d="M121.613 56.4832L127.642 53.7551C129.593 52.8727 130.366 50.5069 129.314 48.6425L124.6 40.2896C123.953 39.1444 122.74 38.4365 121.425 38.4365H111.857L121.613 56.4832Z" fill="#4B4A55"/>
<path d="M150.841 132.634L100.01 38.6067C98.5807 35.9623 99.5653 32.6602 102.21 31.2308C104.854 29.8014 108.156 30.786 109.585 33.4303L160.417 127.458C161.846 130.102 160.862 133.404 158.217 134.834C155.584 136.257 152.277 135.289 150.841 132.634Z" fill="#EEEFEB"/>
<path d="M129.207 81.3796C131.353 80.2193 133.878 80.4689 135.736 81.8018L109.586 33.4304C108.156 30.7857 104.854 29.8015 102.21 31.2309C99.5657 32.6603 98.5807 35.9628 100.011 38.6067L125.979 86.6438C126.037 84.5113 127.195 82.4671 129.207 81.3796Z" fill="#D6D6D0"/>
<path d="M106.347 39.1485C109.449 36.0471 109.449 31.0188 106.347 27.9174C103.246 24.816 98.2177 24.816 95.1163 27.9174C92.0149 31.0188 92.0149 36.0471 95.1163 39.1485C98.2177 42.2499 103.246 42.2499 106.347 39.1485Z" fill="#363540"/>
<path d="M78.8745 39.2671C78.2039 36.6104 79.8138 33.9133 82.471 33.2427L97.4579 29.46C100.114 28.7894 102.812 30.3989 103.482 33.0561C104.153 35.7128 102.543 38.41 99.8858 39.0806L84.8993 42.8633C82.238 43.5354 79.5436 41.919 78.8745 39.2671Z" fill="#4B4A55"/>
<path d="M2.88452 119.486C3.79298 123.032 4.90989 126.494 6.21528 129.862L42.8563 119.99C40.4694 118.537 38.867 115.918 38.867 112.926C38.867 111.743 39.1206 110.62 39.5696 109.602L2.88452 119.486Z" fill="#EEEFEB"/>
<path d="M20.8017 125.931L42.8561 119.989C40.4692 118.537 38.8668 115.918 38.8668 112.925C38.8668 111.743 39.1205 110.62 39.5695 109.602L18.0447 115.401C18.0447 115.401 24.7032 118.202 20.8017 125.931Z" fill="#D6D6D0"/>
<path d="M40.6084 57.9306C31.5235 57.9306 18.9332 56.5321 9.67792 55.3123C8.6085 57.4549 7.61975 59.6446 6.71582 61.8781L29.7232 66.7L44.6942 68.9829C48.3288 69.537 52.0422 69.1661 55.4958 67.9048C59.6928 66.3717 65.7188 64.1304 71.087 61.9832C75.3322 60.2851 77.2777 58.2932 78.1334 56.6158C78.1873 56.5102 78.2453 56.4077 78.3026 56.3044C78.2449 56.263 78.1926 56.2215 78.1334 56.1804C64.2803 46.5308 56.7183 57.9306 40.6084 57.9306Z" fill="#363540"/>
<path d="M59.3421 63.831C53.3659 60.7992 56.9621 54.4766 56.9621 54.4766C52.2558 56.0605 47.133 57.9306 40.6079 57.9306C31.523 57.9306 18.9328 56.5321 9.67743 55.3123C8.60801 57.4549 7.61927 59.6446 6.71533 61.878L29.7227 66.7L44.6937 68.9829C48.3283 69.537 52.0417 69.166 55.4953 67.9048C57.0717 67.3292 58.9064 66.6533 60.8669 65.9201C60.7263 65.0418 60.1797 64.2559 59.3421 63.831Z" fill="#21212B"/>
<path d="M55.7154 114.302C56.4849 109.556 53.2607 105.084 48.5139 104.314C43.7672 103.545 39.2953 106.769 38.5258 111.516C37.7564 116.263 40.9806 120.734 45.7274 121.504C50.4741 122.273 54.9459 119.049 55.7154 114.302Z" fill="#C6C6C1"/>
<path d="M124.671 77.8858L120.592 70.3919C118.136 65.8794 114.263 62.3003 109.571 60.207L89.8933 51.4293C88.1423 50.6483 86.1871 50.4485 84.3144 50.8594L84.3008 50.8624C81.6037 51.4542 79.3887 53.2847 78.1338 55.7443C77.2781 57.4217 75.3327 59.4136 71.0875 61.1117C65.7193 63.2588 59.6933 65.5002 55.4963 67.0333C52.043 68.2946 48.3293 68.6655 44.6947 68.1114L29.7236 65.8285L42.8567 80.1969L54.7986 77.5141C57.8014 76.8393 60.8924 76.6456 63.9563 76.9392L121.64 82.4718C124.123 82.7108 125.864 80.077 124.671 77.8858Z" fill="#BF0000"/>
<path d="M60.8021 67.1294C60.9887 66.4438 60.9103 65.7422 60.6219 65.1406C58.7541 65.838 57.0054 66.4822 55.4953 67.0337C52.0421 68.295 48.3283 68.6659 44.6937 68.1118L29.7227 65.8289L42.8557 80.1973L54.7976 77.5145C57.8004 76.8397 60.8914 76.646 63.9553 76.9396L67.3181 77.2623C59.917 75.1272 59.986 70.1326 60.8021 67.1294Z" fill="#BF0000"/>
<path d="M4.01367 69.5016L42.8557 80.1976L29.7226 65.8293L7.04287 61.0759C5.90258 63.8201 4.89009 66.6307 4.01367 69.5016Z" fill="#EEEFEB"/>
</g>
<defs>
<clipPath id="clip0">
<rect width="193" height="193" fill="white"/>
</clipPath>
</defs>
</svg>
