<svg width="34" height="34" viewBox="0 0 34 34" fill="none" xmlns="http://www.w3.org/2000/svg">
<path d="M33.4334 30.6H31.7334V19.8333C31.7332 19.5204 31.4793 19.2669 31.1663 19.2671C30.9817 19.2672 30.8086 19.3573 30.7026 19.5086L22.7693 30.842C22.59 31.0985 22.6525 31.4518 22.909 31.631C23.0041 31.6976 23.1173 31.7333 23.2334 31.7333H30.6001V33.4333C30.6001 33.7463 30.8538 34 31.1667 34C31.4797 34 31.7334 33.7463 31.7334 33.4333V31.7333H33.4334C33.7464 31.7333 34.0001 31.4796 34.0001 31.1667C34.0001 30.8537 33.7464 30.6 33.4334 30.6ZM30.6001 30.6H24.3214L30.6001 21.6308V30.6Z" fill="#C1A671"/>
<path d="M23.2334 32.8667H16.5246L22.7619 25.5221C22.7761 25.5052 22.7893 25.4877 22.8016 25.4694C23.975 23.7327 23.5842 21.3814 21.9119 20.1178C19.8787 18.6569 17.046 19.1209 15.5852 21.1542C15.0312 21.9252 14.7333 22.8506 14.7334 23.8C14.7334 24.1129 14.9871 24.3667 15.3001 24.3667C15.613 24.3667 15.8667 24.1129 15.8667 23.8C15.8665 21.9222 17.3887 20.3999 19.2664 20.3996C19.9781 20.3996 20.6719 20.6228 21.2501 21.0381C22.4214 21.9356 22.6942 23.5886 21.8734 24.8149L14.8683 33.0667C14.6658 33.3053 14.6951 33.6629 14.9337 33.8654C15.0361 33.9523 15.1658 33.9999 15.3001 34H23.2334C23.5463 34 23.8001 33.7463 23.8001 33.4333C23.8001 33.1204 23.5463 32.8667 23.2334 32.8667Z" fill="#C1A671"/>
<path d="M15.3125 30.0441C15.3243 29.7314 15.0803 29.4683 14.7675 29.4565C14.7675 29.4565 14.7674 29.4565 14.7673 29.4565C7.37446 29.1821 1.44082 23.259 1.15317 15.8667H3.4C3.71294 15.8667 3.96667 15.6129 3.96667 15.3C3.96667 14.9871 3.71294 14.7333 3.4 14.7333H1.15317C1.43671 7.35399 7.35392 1.437 14.7333 1.15373V2.83333C14.7333 3.14628 14.9871 3.4 15.3 3.4C15.6129 3.4 15.8667 3.14628 15.8667 2.83333V1.15373C23.1451 1.43523 29.0194 7.19865 29.4395 14.4704L27.2295 12.2604C27.0044 12.0429 26.6457 12.0492 26.4282 12.2743C26.2161 12.4939 26.2161 12.842 26.4282 13.0617L29.5913 16.2248C29.6509 16.2969 29.7277 16.3528 29.8146 16.3874C29.8368 16.3941 29.8593 16.3996 29.882 16.4039C29.9209 16.4179 29.9612 16.4276 30.0022 16.4328C30.0078 16.4328 30.0129 16.4328 30.0186 16.4328C30.0243 16.4328 30.0294 16.4328 30.0345 16.4328C30.0776 16.4295 30.1202 16.4212 30.1614 16.4078C30.1847 16.405 30.2078 16.4007 30.2305 16.3948C30.3072 16.3675 30.3771 16.3238 30.4351 16.2667L33.6413 13.0617C33.8587 12.8366 33.8525 12.4779 33.6274 12.2604C33.4078 12.0483 33.0597 12.0483 32.84 12.2604L30.5751 14.5237C30.1703 6.40121 23.4727 0.0199042 15.3402 0.00793333C15.3261 0.00736667 15.3142 0 15.3 0C15.2858 0 15.2739 0.00736667 15.2598 0.00793333C6.84123 0.0194792 0.0194792 6.84123 0.00793333 15.2598C0.00793333 15.2739 0 15.2858 0 15.3C0 15.3142 0.00736667 15.3261 0.00793333 15.3402C0.0220292 23.551 6.52028 30.2839 14.7254 30.5892H14.7464C15.0509 30.5892 15.3009 30.3484 15.3125 30.0441Z" fill="#C1A671"/>
<path d="M22.9132 7.68684C22.6919 7.46563 22.3332 7.46563 22.1119 7.68684L16.0225 13.7757C15.5624 13.5705 15.0369 13.5705 14.5769 13.7757L11.6937 10.8925C11.4686 10.6751 11.1098 10.6813 10.8925 10.9064C10.6804 11.126 10.6804 11.4742 10.8925 11.6937L13.77 14.5713C13.366 15.417 13.7241 16.4302 14.5699 16.8342C15.2191 17.1443 15.9933 17.0113 16.5019 16.5025C17.0132 15.9955 17.1449 15.2191 16.8294 14.5718L22.9132 8.48811C23.1344 8.26683 23.1344 7.90813 22.9132 7.68684ZM15.7008 15.7005C15.7007 15.7006 15.7007 15.7006 15.7006 15.7006C15.4765 15.9149 15.1235 15.9149 14.8994 15.7006C14.678 15.4794 14.678 15.1206 14.8992 14.8992C15.1205 14.6779 15.4793 14.6779 15.7006 14.8991C15.922 15.1204 15.922 15.4792 15.7008 15.7005Z" fill="#C1A671"/>
</svg>
