<svg width="186" height="186" viewBox="0 0 186 186" fill="none" xmlns="http://www.w3.org/2000/svg">
<path d="M98.8125 23.25V40.6875H87.1875V23.25" fill="#F9D18B"/>
<path d="M110.438 11.625H93C86.5801 11.625 81.375 16.8301 81.375 23.25H110.438V11.625Z" fill="#F5B953"/>
<path d="M122.062 11.625H154.031V23.25H122.062" fill="#F5B953"/>
<path d="M110.438 5.8125H122.062V29.0625H110.438V5.8125Z" fill="#4D5D7A"/>
<path d="M154.031 11.625H165.656V34.875H154.031V23.25" fill="#4D5D7A"/>
<path d="M119.156 52.3125H66.8438C63.6323 52.3125 61.0312 49.7114 61.0312 46.5C61.0312 43.2886 63.6323 40.6875 66.8438 40.6875H119.156C122.368 40.6875 124.969 43.2886 124.969 46.5C124.969 49.7114 122.368 52.3125 119.156 52.3125Z" fill="#4D5D7A"/>
<path d="M133.688 43.5938H151.125V49.4062H133.688V43.5938Z" fill="#D4EDEF"/>
<path d="M132.752 57.9209L134.589 52.4048L152.034 58.2136L150.197 63.7296L132.752 57.9209Z" fill="#D4EDEF"/>
<path d="M34.875 43.5938H52.3125V49.4062H34.875V43.5938Z" fill="#D4EDEF"/>
<path d="M33.9487 58.3086L51.3933 52.4999L53.23 58.0159L35.7855 63.8247L33.9487 58.3086Z" fill="#D4EDEF"/>
<path d="M180.188 93H162.75L156.938 104.625H180.188V93Z" fill="#8892A0"/>
<path d="M5.8125 93H23.25L29.0625 104.625H5.8125V93Z" fill="#8892A0"/>
<path d="M159.844 104.625L141.616 72.7231C138.509 67.2913 132.731 63.9375 126.474 63.9375H59.5258C53.2687 63.9375 47.491 67.2913 44.3872 72.7231L26.1562 104.625" fill="#21212B"/>
<path d="M148.219 104.625L134.167 81.2064C132.066 77.7044 128.282 75.5625 124.199 75.5625H61.8014C57.7181 75.5625 53.9342 77.7044 51.833 81.2064L37.7812 104.625" fill="#EBF7FE"/>
<path d="M56.672 98.8125C80.6137 98.8125 101.045 89.1725 109.345 75.5625H61.7986C57.7154 75.5625 53.9314 77.7044 51.8302 81.2064L42.0361 97.5308C46.7152 98.3388 51.6035 98.8125 56.672 98.8125Z" fill="#EBF7FE"/>
<path d="M46.5 162.75V174.375C46.5 177.586 43.8989 180.188 40.6875 180.188H17.4375C14.2261 180.188 11.625 177.586 11.625 174.375V156.938" fill="#8892A0"/>
<path d="M139.5 162.75V174.375C139.5 177.586 142.101 180.188 145.312 180.188H168.562C171.774 180.188 174.375 177.586 174.375 174.375V156.938" fill="#8892A0"/>
<path d="M159.844 104.625L180.188 122.062V145.312C180.188 154.944 172.381 162.75 162.75 162.75H23.25C13.6187 162.75 5.8125 154.944 5.8125 145.312V122.062L26.1562 104.625H159.844Z" fill="#21212B"/>
<path d="M5.8125 122.062H31.9688L52.3125 133.688L43.5938 139.5H5.8125" fill="#F9D18B"/>
<path d="M180.188 122.062H154.031L133.688 133.688L142.406 139.5H180.188" fill="#F9D18B"/>
<path d="M63.9375 127.875H122.062V139.5H63.9375V127.875Z" fill="#8892A0"/>
<path d="M133.688 162.75L122.062 151.125H63.9375L52.3125 162.75" fill="#8892A0"/>
<path d="M20.3438 148.219H26.1562V154.031H20.3438V148.219Z" fill="white"/>
<path d="M159.844 148.219H165.656V154.031H159.844V148.219Z" fill="white"/>
</svg>
