<svg width="53" height="53" viewBox="0 0 53 53" fill="none" xmlns="http://www.w3.org/2000/svg">
<g clip-path="url(#clip0)">
<path d="M52.3637 0.831543H44.1609C36.5935 0.831543 29.5547 4.71132 25.5134 11.109L21.8258 16.9488L5.41778 23.5117C2.52006 24.6715 0.618896 27.4781 0.618896 30.5999V35.6108C0.618896 39.8273 4.03685 43.2453 8.25337 43.2453H52.3637V0.831543Z" fill="#7A7585"/>
<path d="M0.618896 33.9141V35.6106C0.618896 39.8271 4.03685 43.2451 8.25337 43.2451H52.3637V41.5485H8.25337C4.03685 41.5485 0.618896 38.1306 0.618896 33.9141Z" fill="#D6D6D0"/>
<path d="M44.1609 0.831543C36.5935 0.831543 29.5547 4.71132 25.5134 11.109L21.8258 16.9488L5.41778 23.5117C2.52006 24.6715 0.618896 27.4781 0.618896 30.5999V32.2964C0.618896 29.1746 2.52006 26.3668 5.41778 25.2083L21.8258 18.6453L25.5142 12.8056C29.5547 6.40787 36.5935 2.52809 44.1609 2.52809H52.3637V0.831543H44.1609Z" fill="#EEEFEB"/>
<path d="M52.3637 43.6692H8.25344C3.81035 43.6692 0.194824 40.0537 0.194824 35.6106V30.5997C0.194824 27.2853 2.18338 24.3486 5.26086 23.1172L21.54 16.6056L25.1547 10.8823C29.2984 4.32346 36.4035 0.407227 44.1618 0.407227H52.3637C52.5982 0.407227 52.7879 0.596929 52.7879 0.831364V43.2451C52.7879 43.4791 52.5982 43.6692 52.3637 43.6692ZM44.1618 1.2555C36.6963 1.2555 29.8592 5.02345 25.8729 11.3354L22.1849 17.1747C22.1373 17.2505 22.0669 17.3089 21.9836 17.3421L5.57565 23.905C2.8229 25.0072 1.0431 27.6349 1.0431 30.5997V35.6106C1.0431 39.5865 4.27756 42.821 8.25344 42.821H51.9396V1.2555H44.1618Z" fill="#EEEFEB"/>
<path d="M27.7934 13.8795L27.489 14.4196C26.8528 15.5503 27.6696 16.9487 28.9673 16.9487H52.1797V3.57053L45.7514 3.5026C38.3207 3.42432 31.4367 7.40185 27.7934 13.8795Z" fill="#EBF7FE"/>
<path d="M45.7523 3.50311C38.3208 3.424 31.4368 7.40153 27.7936 13.8792L27.4891 14.4193C27.1727 14.9809 27.2166 15.6088 27.4991 16.098L27.7936 15.5757C31.4368 9.09808 38.3208 5.12055 45.7523 5.19966L52.1806 5.26759V3.57104L45.7523 3.50311Z" fill="#EBF7FE"/>
<path d="M52.1805 17.3727H45.6114C45.3773 17.3727 45.1872 17.1825 45.1872 16.9485C45.1872 16.7141 45.3773 16.5244 45.6114 16.5244H51.7564V3.98997L45.7472 3.9266C38.4657 3.83672 31.7321 7.74301 28.1633 14.0873L27.8597 14.6282C27.6348 15.0271 27.639 15.4997 27.8697 15.8948C28.1004 16.2883 28.5113 16.5244 28.9681 16.5244C29.2026 16.5244 29.3923 16.7141 29.3923 16.9485C29.3923 17.1825 29.2026 17.3727 28.9681 17.3727C28.2064 17.3727 27.5222 16.9796 27.1378 16.3223C26.7534 15.6649 26.7468 14.8751 27.12 14.2119L27.4236 13.6706C31.1443 7.05668 38.1442 2.98223 45.7563 3.07832L52.1847 3.14625C52.417 3.14874 52.6047 3.33761 52.6047 3.57039V16.9485C52.6047 17.1825 52.4145 17.3727 52.1805 17.3727Z" fill="#EEEFEB"/>
<path d="M40.1373 17.3727H36.6324C36.3984 17.3727 36.2083 17.1826 36.2083 16.9486C36.2083 16.7141 36.3984 16.5244 36.6324 16.5244H40.1373C40.3718 16.5244 40.5615 16.7141 40.5615 16.9486C40.5615 17.1826 40.3718 17.3727 40.1373 17.3727Z" fill="#EEEFEB"/>
<path d="M7.32147 24.583H3.57009C2.01685 25.7916 0.977219 27.5619 0.699707 29.5376V32.2175H5.90823C6.83189 32.2175 7.68348 31.7159 8.13205 30.9082L9.54612 28.3634C10.4888 26.6668 9.26198 24.583 7.32147 24.583Z" fill="#FFD3B4" fill-opacity="0.44"/>
<path d="M3.57009 26.2796H7.3223C8.47832 26.2796 9.37671 27.0218 9.71843 27.9786C10.2987 26.3678 9.11867 24.583 7.3223 24.583H3.57009C2.01685 25.7916 0.977219 27.5619 0.699707 29.5376V31.2342C0.977219 29.2585 2.01685 27.4882 3.57009 26.2796Z" fill="white"/>
<path d="M3.11827 32.6414H0.699772C0.465751 32.6414 0.275635 32.4513 0.275635 32.2173V29.5375C0.571785 27.399 1.64787 25.5421 3.31004 24.2486C3.38377 24.1898 3.4753 24.1587 3.57016 24.1587H7.32236C8.38519 24.1587 9.34199 24.7054 9.88127 25.6216C10.421 26.5378 10.4346 27.64 9.91772 28.5695C9.80423 28.7741 9.54536 28.8486 9.34116 28.7339C9.13572 28.6204 9.06199 28.3624 9.17631 28.1573C9.54536 27.493 9.53542 26.7068 9.15021 26.052C8.76418 25.3971 8.08034 25.007 7.32154 25.007H3.71802C2.29526 26.1597 1.37408 27.7842 1.11977 29.5959L1.12308 31.7932H3.11827C3.35229 31.7932 3.5424 31.9829 3.5424 32.2173C3.5424 32.4513 3.35229 32.6414 3.11827 32.6414Z" fill="#EEEFEB"/>
<path d="M5.90827 32.6417C5.67383 32.6417 5.48413 32.4515 5.48413 32.2175C5.48413 31.9831 5.67383 31.7934 5.90827 31.7934C6.67743 31.7934 7.38819 31.375 7.76221 30.7024C7.87612 30.4978 8.13375 30.4232 8.33919 30.5375C8.5438 30.6514 8.61753 30.9095 8.50363 31.1145C7.97967 32.056 6.98559 32.6417 5.90827 32.6417Z" fill="#EEEFEB"/>
<path d="M34.974 41.9726C34.974 47.8285 30.2269 52.576 24.3705 52.576C18.5146 52.576 13.7671 47.8285 13.7671 41.9726C13.7671 36.1163 18.5146 31.3691 24.3705 31.3691C30.2269 31.3691 34.974 36.1163 34.974 41.9726Z" fill="#5F5E6A"/>
<path d="M24.3705 50.8797C18.8008 50.8797 14.243 46.5828 13.8098 41.1245C13.7874 41.4049 13.7671 41.6857 13.7671 41.9728C13.7671 47.8291 18.5142 52.5762 24.3705 52.5762C30.2273 52.5762 34.974 47.8291 34.974 41.9728C34.974 41.6857 34.9537 41.4049 34.9317 41.1245C34.4981 46.5828 29.9402 50.8797 24.3705 50.8797Z" fill="#5F5E6A"/>
<path d="M24.3705 33.0657C29.9402 33.0657 34.4981 37.3622 34.9317 42.8208C34.9537 42.54 34.974 42.2592 34.974 41.9726C34.974 36.1158 30.2273 31.3691 24.3705 31.3691C18.5142 31.3691 13.7671 36.1158 13.7671 41.9726C13.7671 42.2592 13.7874 42.54 13.8098 42.8208C14.243 37.3622 18.8008 33.0657 24.3705 33.0657Z" fill="#E9E9E9"/>
<path d="M24.3706 53C18.2902 53 13.343 48.0528 13.343 41.9724C13.343 35.8916 18.2902 30.9448 24.3706 30.9448C30.451 30.9448 35.3982 35.8916 35.3982 41.9724C35.3982 48.0528 30.451 53 24.3706 53ZM24.3706 31.7931C18.7578 31.7931 14.1913 36.3592 14.1913 41.9724C14.1913 47.5852 18.7578 52.1517 24.3706 52.1517C29.9838 52.1517 34.5499 47.5852 34.5499 41.9724C34.5499 36.3592 29.9838 31.7931 24.3706 31.7931Z" fill="#EEEFEB"/>
<path d="M29.4603 41.9725C29.4603 44.7832 27.1818 47.0621 24.3707 47.0621C21.5599 47.0621 19.281 44.7832 19.281 41.9725C19.281 39.1613 21.5599 36.8828 24.3707 36.8828C27.1818 36.8828 29.4603 39.1613 29.4603 41.9725Z" fill="#5F5E6A"/>
<path d="M22.3153 47.0544C22.2586 47.0544 22.1998 47.0423 22.1439 47.0187C21.4265 46.7006 20.77 46.2222 20.2473 45.6337C20.0911 45.458 20.1073 45.1909 20.2829 45.0347C20.4577 44.8778 20.7257 44.8939 20.8818 45.0704C21.3246 45.5682 21.88 45.9737 22.4876 46.2425C22.7014 46.3378 22.7987 46.588 22.7039 46.8025C22.6334 46.9603 22.4781 47.0544 22.3153 47.0544Z" fill="#EEEFEB"/>
<path d="M26.6459 46.951C26.4898 46.951 26.3406 46.8653 26.2657 46.717C26.1609 46.5074 26.2462 46.2531 26.4558 46.1479C28.0471 45.3514 29.0362 43.7513 29.0362 41.9728C29.0362 39.3998 26.9437 37.3073 24.3707 37.3073C21.7981 37.3073 19.7052 39.3998 19.7052 41.9728C19.7052 42.2068 19.5155 42.3969 19.2811 42.3969C19.0471 42.3969 18.8569 42.2068 18.8569 41.9728C18.8569 38.9322 21.3305 36.459 24.3707 36.459C27.4109 36.459 29.8845 38.9322 29.8845 41.9728C29.8845 44.0744 28.7165 45.9652 26.8352 46.9063C26.7739 46.9365 26.7097 46.951 26.6459 46.951Z" fill="#EEEFEB"/>
<path d="M45.1534 6.34521L46.3529 8.5388L48.5465 9.73831L46.3529 10.9374L45.1534 13.1314L43.9538 10.9374L41.7603 9.73831L43.9538 8.5388L45.1534 6.34521Z" fill="#FFD3B4" fill-opacity="0.44"/>
<path d="M43.9538 9.38708L45.1534 8.04177L46.3529 9.38708L48.5465 9.73832L46.3529 8.5388L45.1534 6.34521L43.9538 8.5388L41.7603 9.73832L43.9538 9.38708Z" fill="white"/>
<path d="M6.1326 10.5864L7.33211 12.78L9.5257 13.9795L7.33211 15.1786L6.1326 17.3726L4.93309 15.1786L2.7395 13.9795L4.93309 12.78L6.1326 10.5864Z" fill="#FFD3B4" fill-opacity="0.44"/>
<path d="M4.93309 13.6283L6.1326 12.283L7.33211 13.6283L9.5257 13.9795L7.33211 12.78L6.1326 10.5864L4.93309 12.78L2.7395 13.9795L4.93309 13.6283Z" fill="white"/>
<path d="M19.7051 0.407227L21.5044 3.69761L24.7948 5.49688L21.5044 7.29573L19.7051 10.5865L17.9059 7.29573L14.6155 5.49688L17.9059 3.69761L19.7051 0.407227Z" fill="#FFD3B4" fill-opacity="0.44"/>
<path d="M17.9059 5.39415L19.7051 2.10378L21.5044 5.39415L24.0927 5.49688H24.7948L21.5044 3.6976L19.7051 0.407227L17.9059 3.6976L14.6155 5.49688H15.318L17.9059 5.39415Z" fill="white"/>
<path d="M45.1534 13.5554C44.9981 13.5554 44.8556 13.4705 44.7819 13.3346L43.642 11.2504L41.5578 10.1105C41.4211 10.0355 41.3362 9.89305 41.3362 9.73814C41.3362 9.58282 41.4211 9.44033 41.5569 9.36661L43.6412 8.22632L44.7811 6.14208C44.9298 5.86996 45.3767 5.86996 45.525 6.14208L46.6652 8.22632L48.7495 9.36661C48.8858 9.44033 48.9707 9.58282 48.9707 9.73814C48.9707 9.89305 48.8858 10.0355 48.7503 10.1097L46.6661 11.2495L45.5258 13.3338C45.4512 13.4705 45.3087 13.5554 45.1534 13.5554ZM42.6442 9.73814L44.1577 10.5657C44.2289 10.6051 44.2873 10.6635 44.3263 10.7347L45.1534 12.2473L45.9814 10.7339C46.0203 10.6626 46.0792 10.6042 46.1504 10.5649L47.6626 9.73814L46.1496 8.91016C46.0783 8.87081 46.0195 8.81241 45.9806 8.74117L45.1534 7.22894L44.3254 8.742C44.2865 8.81324 44.2281 8.87205 44.1569 8.91099L42.6442 9.73814Z" fill="#EEEFEB"/>
<path d="M6.13267 17.7966C5.97734 17.7966 5.83486 17.7117 5.76113 17.5758L4.62126 15.4916L2.5362 14.3509C2.40034 14.2767 2.31543 14.1343 2.31543 13.9793C2.31543 13.824 2.40034 13.6815 2.5362 13.6078L4.62043 12.4675L5.7603 10.3833C5.909 10.1112 6.35592 10.1112 6.5042 10.3833L7.64448 12.4675L9.72872 13.6078C9.86499 13.6815 9.9499 13.824 9.9499 13.9793C9.9499 14.1343 9.86499 14.2767 9.72955 14.3509L7.64531 15.4908L6.5042 17.5758C6.43047 17.7117 6.28799 17.7966 6.13267 17.7966ZM3.62346 13.9793L5.13694 14.8069C5.20818 14.8463 5.26658 14.9047 5.30552 14.9759L6.13267 16.4886L6.96064 14.9751C6.99958 14.9038 7.05839 14.8454 7.12964 14.8061L8.64187 13.9793L7.12881 13.1514C7.05757 13.112 6.99875 13.0536 6.95982 12.9824L6.13267 11.4701L5.30469 12.9832C5.26575 13.0544 5.20735 13.1133 5.13611 13.1522L3.62346 13.9793Z" fill="#EEEFEB"/>
<path d="M19.7052 11.0105C19.5499 11.0105 19.4074 10.9256 19.3337 10.7897L17.5932 7.60869L14.4122 5.86906C14.2763 5.79409 14.1914 5.65161 14.1914 5.4967C14.1914 5.34138 14.2763 5.19889 14.4122 5.12517L17.5932 3.38513L19.3328 0.204095C19.4815 -0.0680318 19.9284 -0.0680318 20.0767 0.204095L21.8168 3.38513L24.9978 5.12517C25.1341 5.19889 25.219 5.34138 25.219 5.4967C25.219 5.65161 25.1341 5.79409 24.9986 5.86824L21.8176 7.60869L20.0776 10.7897C20.003 10.9256 19.8605 11.0105 19.7052 11.0105ZM15.4994 5.4967L18.1097 6.92402C18.1809 6.96337 18.2394 7.02177 18.2787 7.09302L19.7052 9.70245L21.1329 7.09219C21.1719 7.02095 21.2307 6.96213 21.3019 6.92319L23.9109 5.4967L21.3011 4.06896C21.2299 4.03003 21.171 3.97121 21.1321 3.89997L19.7052 1.29095L18.2775 3.9008C18.2385 3.97204 18.1801 4.03086 18.1089 4.06979L15.4994 5.4967Z" fill="#EEEFEB"/>
<path d="M52.3637 29.6726C52.3637 35.7629 47.4265 40.7002 41.3362 40.7002C35.2458 40.7002 30.3086 35.7629 30.3086 29.6726C30.3086 23.5818 35.2458 18.645 41.3362 18.645C47.4265 18.645 52.3637 23.5818 52.3637 29.6726Z" fill="#FFD3B4" fill-opacity="0.44"/>
<path d="M41.3362 39.0035C35.5324 39.0035 30.7862 34.5169 30.3521 28.8242C30.331 29.1046 30.3086 29.3855 30.3086 29.6725C30.3086 35.7628 35.2458 40.7001 41.3362 40.7001C47.4269 40.7001 52.3637 35.7628 52.3637 29.6725C52.3637 29.3855 52.3426 29.1046 52.3207 28.8242C51.8862 34.5169 47.1403 39.0035 41.3362 39.0035Z" fill="#EEEFEB"/>
<path d="M41.3362 20.3416C47.1403 20.3416 51.8862 24.8277 52.3207 30.5209C52.3418 30.24 52.3637 29.9592 52.3637 29.6726C52.3637 23.5818 47.4269 18.645 41.3362 18.645C35.2458 18.645 30.3086 23.5818 30.3086 29.6726C30.3086 29.9592 30.3297 30.24 30.3521 30.5209C30.7862 24.8277 35.5324 20.3416 41.3362 20.3416Z" fill="white"/>
<path d="M41.336 41.1246C35.0216 41.1246 29.8843 35.9873 29.8843 29.6729C29.8843 28.2613 30.1382 26.8837 30.6385 25.5782C30.7226 25.359 30.9686 25.2513 31.1865 25.3338C31.4052 25.4179 31.515 25.6631 31.4309 25.8818C30.9678 27.0896 30.7326 28.3657 30.7326 29.6729C30.7326 35.5197 35.4888 40.2763 41.336 40.2763C47.1832 40.2763 51.9394 35.5197 51.9394 29.6729C51.9394 23.8257 47.1832 19.0695 41.336 19.0695C40.1655 19.0695 39.0152 19.2583 37.9176 19.6324C37.696 19.7106 37.4554 19.5893 37.3796 19.3677C37.3042 19.1465 37.4231 18.9054 37.6443 18.8301C38.8293 18.4254 40.0723 18.2212 41.336 18.2212C47.6508 18.2212 52.7877 23.3581 52.7877 29.6729C52.7877 35.9873 47.6508 41.1246 41.336 41.1246Z" fill="#EEEFEB"/>
<path d="M33.0324 22.8394C32.9334 22.8394 32.834 22.8046 32.7536 22.7342C32.5772 22.5797 32.5594 22.3117 32.7135 22.1353C33.3608 21.3947 34.1014 20.7399 34.9149 20.1886C35.1083 20.056 35.3722 20.107 35.5035 20.3012C35.6352 20.4955 35.5851 20.7593 35.3908 20.8902C34.6374 21.4017 33.9519 22.0081 33.3521 22.6936C33.2685 22.7901 33.1513 22.8394 33.0324 22.8394Z" fill="#EEEFEB"/>
<path d="M47.2741 30.5207C46.3367 30.5207 45.5775 31.2795 45.5775 32.2172V29.6724C45.5775 28.7347 44.8183 27.9758 43.881 27.9758C42.9436 27.9758 42.1844 28.7347 42.1844 29.6724V27.9758C42.1844 27.0381 41.4252 26.2793 40.4879 26.2793C39.5505 26.2793 38.7913 27.0381 38.7913 27.9758V29.6724C38.7913 28.7347 38.0321 27.9758 37.0948 27.9758C36.1574 27.9758 35.3982 28.7347 35.3982 29.6724V38.1551C35.3982 36.7494 34.2592 35.6103 32.8534 35.6103C32.3854 35.6103 32.0051 35.9901 32.0051 36.4586V40.2883C32.0051 41.6381 32.5415 42.9325 33.4958 43.8876L35.3982 45.7896L37.9431 48.3096V52.5758H47.2741V48.3096L48.607 45.2031C48.8476 44.6017 48.9706 43.9605 48.9706 43.3131V32.2172C48.9706 31.2795 48.2114 30.5207 47.2741 30.5207Z" fill="#D6D6D0"/>
<path d="M37.9431 50.8794H47.2741V52.5759H37.9431V50.8794Z" fill="#D6D6D0"/>
<path d="M40.4878 27.9758C41.4251 27.9758 42.1844 28.7347 42.1844 29.6724V27.9758C42.1844 27.0381 41.4251 26.2793 40.4878 26.2793C39.5505 26.2793 38.7913 27.0381 38.7913 27.9758V29.6724C38.7913 28.7347 39.5505 27.9758 40.4878 27.9758Z" fill="#D6D6D0"/>
<path d="M47.2739 30.521C46.3366 30.521 45.5774 31.2798 45.5774 32.2175V33.9141C45.5774 32.9764 46.3366 32.2175 47.2739 32.2175C48.2113 32.2175 48.9705 32.9764 48.9705 33.9141V32.2175C48.9705 31.2798 48.2113 30.521 47.2739 30.521Z" fill="#D6D6D0"/>
<path d="M43.8809 29.6726C44.8182 29.6726 45.5774 30.4314 45.5774 31.3692V29.6726C45.5774 28.7349 44.8182 27.9761 43.8809 27.9761C42.9435 27.9761 42.1843 28.7349 42.1843 29.6726V31.3692C42.1843 30.4314 42.9435 29.6726 43.8809 29.6726Z" fill="#D6D6D0"/>
<path d="M37.0947 29.6726C38.0321 29.6726 38.7913 30.4314 38.7913 31.3692V29.6726C38.7913 28.7349 38.0321 27.9761 37.0947 27.9761C36.1574 27.9761 35.3982 28.7349 35.3982 29.6726V31.3692C35.3982 30.4314 36.1574 29.6726 37.0947 29.6726Z" fill="#D6D6D0"/>
<path d="M32.8534 37.3069C34.2592 37.3069 35.3982 38.4459 35.3982 39.8517V38.1552C35.3982 36.7494 34.2592 35.6104 32.8534 35.6104C32.3854 35.6104 32.0051 35.9902 32.0051 36.4586V38.1552C32.0051 37.6867 32.3854 37.3069 32.8534 37.3069Z" fill="#D6D6D0"/>
<path d="M38.8431 36.0348C38.6091 36.0348 38.4189 35.8447 38.4189 35.6107V29.8997C38.4189 29.6657 38.6091 29.4756 38.8431 29.4756C39.0771 29.4756 39.2672 29.6657 39.2672 29.8997V35.6107C39.2672 35.8447 39.0771 36.0348 38.8431 36.0348Z" fill="#EEEFEB"/>
<path d="M35.45 41.9724C35.216 41.9724 35.0259 41.7823 35.0259 41.5483V38.3821C35.0259 38.1481 35.216 37.958 35.45 37.958C35.684 37.958 35.8742 38.1481 35.8742 38.3821V41.5483C35.8742 41.7823 35.684 41.9724 35.45 41.9724Z" fill="#EEEFEB"/>
<path d="M42.2361 36.0348C42.0021 36.0348 41.812 35.8447 41.812 35.6107V29.8997C41.812 29.6657 42.0021 29.4756 42.2361 29.4756C42.4702 29.4756 42.6603 29.6657 42.6603 29.8997V35.6107C42.6603 35.8447 42.4702 36.0348 42.2361 36.0348Z" fill="#EEEFEB"/>
<path d="M45.6292 36.0349C45.3952 36.0349 45.2051 35.8448 45.2051 35.6108V32.4446C45.2051 32.2106 45.3952 32.0205 45.6292 32.0205C45.8632 32.0205 46.0533 32.2106 46.0533 32.4446V35.6108C46.0533 35.8448 45.8632 36.0349 45.6292 36.0349Z" fill="#EEEFEB"/>
<path d="M22.6741 26.2793H26.0672V31.3689H22.6741V26.2793Z" fill="#EBF7FE"/>
<path d="M22.6741 26.2793H26.0672V28.4H22.6741V26.2793Z" fill="#EBF7FE"/>
<path d="M26.0672 31.7934C25.8332 31.7934 25.6431 31.6033 25.6431 31.3693V26.7037H23.0983V31.3693C23.0983 31.6033 22.9086 31.7934 22.6741 31.7934C22.4401 31.7934 22.25 31.6033 22.25 31.3693V26.2796C22.25 26.0452 22.4401 25.8555 22.6741 25.8555H26.0672C26.3017 25.8555 26.4914 26.0452 26.4914 26.2796V31.3693C26.4914 31.6033 26.3017 31.7934 26.0672 31.7934Z" fill="#EEEFEB"/>
<path d="M30.3085 37.3071V34.7622L26.0671 31.3691H22.674L18.4326 34.7622V37.3071L19.2809 38.1553V48.3346L18.4326 49.1829V52.576H30.3085V49.1829L29.4602 48.3346V38.1553L30.3085 37.3071Z" fill="#FFD3B4" fill-opacity="0.44"/>
<path d="M18.4326 50.8794H30.3085V52.5759H18.4326V50.8794Z" fill="#EEEFEB"/>
<path d="M30.3085 53H18.4327C18.1987 53 18.0085 52.8099 18.0085 52.5759V49.1828C18.0085 49.0697 18.0537 48.962 18.1324 48.8825L18.8568 48.1589V38.3304L18.1324 37.606C18.0537 37.5273 18.0085 37.4196 18.0085 37.3069V34.7621C18.0085 34.6329 18.0674 34.5115 18.168 34.4303L22.4094 31.0372C22.5929 30.8902 22.86 30.9217 23.0058 31.1035C23.1516 31.2866 23.1222 31.5529 22.9396 31.6995L18.8568 34.9655V37.1313L19.5813 37.8557C19.6604 37.9344 19.7051 38.0421 19.7051 38.1552V48.3345C19.7051 48.4472 19.6604 48.5549 19.5813 48.6348L18.8568 49.358V52.1518H29.8844V49.358L29.16 48.6336C29.0813 48.5549 29.0361 48.4472 29.0361 48.3345V38.1552C29.0361 38.0421 29.0813 37.9344 29.16 37.8549L29.8844 37.1313V34.9655L25.9189 31.7931H24.7227C24.4887 31.7931 24.2985 31.603 24.2985 31.369C24.2985 31.1346 24.4887 30.9449 24.7227 30.9449H26.0672C26.1641 30.9449 26.2573 30.9776 26.3318 31.0372L30.5732 34.4303C30.6743 34.5115 30.7327 34.6329 30.7327 34.7621V37.3069C30.7327 37.4196 30.6879 37.5273 30.6088 37.6072L29.8844 38.3304V48.1589L30.6088 48.8833C30.6879 48.962 30.7327 49.0697 30.7327 49.1828V52.5759C30.7327 52.8099 30.543 53 30.3085 53Z" fill="#EEEFEB"/>
<path d="M20.9775 39.0034H27.7637V47.4862H20.9775V39.0034Z" fill="#F0F0E6"/>
<path d="M20.9776 41.1965C20.7436 41.1965 20.5535 41.0064 20.5535 40.7724V39.0037C20.5535 38.7693 20.7436 38.5796 20.9776 38.5796H22.3826C22.6166 38.5796 22.8067 38.7693 22.8067 39.0037C22.8067 39.2378 22.6166 39.4279 22.3826 39.4279H21.4017V40.7724C21.4017 41.0064 21.212 41.1965 20.9776 41.1965Z" fill="#EEEFEB"/>
<path d="M20.9776 46.0495C20.7436 46.0495 20.5535 45.8594 20.5535 45.6254V43.9359C20.5535 43.7014 20.7436 43.5117 20.9776 43.5117C21.212 43.5117 21.4017 43.7014 21.4017 43.9359V45.6254C21.4017 45.8606 21.212 46.0495 20.9776 46.0495Z" fill="#EEEFEB"/>
<path d="M27.7637 47.9104H22.4691C22.2346 47.9104 22.0449 47.7203 22.0449 47.4863C22.0449 47.2518 22.2346 47.0621 22.4691 47.0621H27.3396V46.7498C27.3396 46.5158 27.5297 46.3257 27.7637 46.3257C27.9982 46.3257 28.1879 46.5158 28.1879 46.7498V47.4863C28.1879 47.7203 27.9982 47.9104 27.7637 47.9104Z" fill="#EEEFEB"/>
<path d="M27.7637 44.749C27.5297 44.749 27.3396 44.5588 27.3396 44.3248V43.1116C27.3396 42.8776 27.5297 42.6875 27.7637 42.6875C27.9982 42.6875 28.1879 42.8776 28.1879 43.1116V44.3248C28.1879 44.5597 27.9982 44.749 27.7637 44.749Z" fill="#EEEFEB"/>
<path d="M27.7638 41.0664C27.5298 41.0664 27.3396 40.8767 27.3396 40.6423V39.4279H24.4622C24.2282 39.4279 24.0381 39.2377 24.0381 39.0037C24.0381 38.7693 24.2282 38.5796 24.4622 38.5796H27.7638C27.9982 38.5796 28.1879 38.7693 28.1879 39.0037V40.6423C28.1879 40.8767 27.9982 41.0664 27.7638 41.0664Z" fill="#EEEFEB"/>
<path d="M24.3707 41.1245L25.1208 42.4951L26.4914 43.2452L25.1208 43.9949L24.3707 45.3659L23.621 43.9949L22.25 43.2452L23.621 42.4951L24.3707 41.1245Z" fill="#FFD3B4" fill-opacity="0.44"/>
<path d="M24.3705 45.7898C24.2152 45.7898 24.0727 45.7049 23.999 45.5691L23.3085 44.3078L22.0473 43.6174C21.9106 43.5424 21.8257 43.3999 21.8257 43.245C21.8257 43.0897 21.9106 42.9472 22.0465 42.8735L23.3077 42.1826L23.9981 40.9214C24.1468 40.6493 24.5938 40.6493 24.742 40.9214L25.4325 42.1826L26.6941 42.8735C26.8304 42.9472 26.9145 43.0905 26.9145 43.245C26.9145 43.3991 26.8296 43.5424 26.6941 43.6166L25.4325 44.307L24.742 45.5682C24.6683 45.7049 24.5258 45.7898 24.3705 45.7898ZM23.1337 43.245L23.8242 43.6224C23.8954 43.6613 23.9542 43.7197 23.9932 43.7909L24.3705 44.4818L24.7483 43.7909C24.7872 43.7197 24.8456 43.6613 24.9168 43.6224L25.6073 43.245L24.9168 42.8673C24.8456 42.8283 24.7872 42.7699 24.7483 42.6987L24.3705 42.0082L23.9932 42.6987C23.9542 42.7699 23.8954 42.8283 23.8242 42.8673L23.1337 43.245Z" fill="#EEEFEB"/>
<path d="M48.9196 35.6003C48.6856 35.6003 48.4955 35.4102 48.4955 35.1761V32.2175C48.4955 31.5159 47.9256 30.9451 47.2247 30.9451C46.5243 30.9451 45.9544 31.5159 45.9544 32.2175C45.9544 32.4516 45.7643 32.6417 45.5303 32.6417C45.2958 32.6417 45.1061 32.4516 45.1061 32.2175V29.6727C45.1061 28.9711 44.5358 28.4003 43.8354 28.4003C43.1345 28.4003 42.5646 28.9711 42.5646 29.6727C42.5646 29.9067 42.3745 30.0968 42.1405 30.0968C41.9065 30.0968 41.7163 29.9067 41.7163 29.6727V27.9762C41.7163 27.2745 41.1464 26.7037 40.4456 26.7037C39.7448 26.7037 39.1748 27.2745 39.1748 27.9762V29.6727C39.1748 29.9067 38.9847 30.0968 38.7507 30.0968C38.5167 30.0968 38.3266 29.9067 38.3266 29.6727C38.3266 28.9711 37.7566 28.4003 37.0558 28.4003C36.355 28.4003 35.785 28.9711 35.785 29.6727C35.785 29.9067 35.5949 30.0968 35.3609 30.0968C35.1269 30.0968 34.9368 29.9067 34.9368 29.6727C34.9368 28.5034 35.8878 27.552 37.0558 27.552C37.5325 27.552 37.972 27.7107 38.3266 27.9762C38.3266 26.8069 39.2775 25.8555 40.4456 25.8555C41.6136 25.8555 42.5646 26.8069 42.5646 27.9762C42.9183 27.7094 43.3586 27.552 43.8354 27.552C45.0034 27.552 45.9544 28.5034 45.9544 29.6727V30.521C46.3081 30.2542 46.7484 30.0968 47.2247 30.0968C48.3932 30.0968 49.3438 31.0483 49.3438 32.2175V35.1761C49.3438 35.411 49.1541 35.6003 48.9196 35.6003Z" fill="#EEEFEB"/>
<path d="M47.2247 53.0003H37.904C37.67 53.0003 37.4799 52.8102 37.4799 52.5762V48.4864L33.1623 44.1874C32.1214 43.1457 31.5486 41.7615 31.5486 40.2886V36.4589C31.5486 35.7573 32.1189 35.1865 32.8202 35.1865C33.7016 35.1865 34.4939 35.573 35.0378 36.1856C35.1156 36.0932 35.232 36.0348 35.3625 36.0348C35.5965 36.0348 35.7866 36.2245 35.7866 36.4589V38.1555C35.7866 38.3895 35.5965 38.5796 35.3625 38.5796C35.1285 38.5796 34.9384 38.3895 34.9384 38.1555C34.9384 36.9862 33.9882 36.0348 32.8202 36.0348C32.587 36.0348 32.3969 36.2245 32.3969 36.4589V40.2886C32.3969 41.5357 32.8815 42.7071 33.7621 43.5877L38.2027 48.0088C38.2834 48.0888 38.3282 48.1973 38.3282 48.3099V52.152H46.8005V48.3099C46.8005 48.2524 46.8126 48.1956 46.8353 48.143L48.1666 45.0357C48.3836 44.4919 48.4954 43.9083 48.4954 43.3118V38.5904C48.4954 38.3564 48.6856 38.1663 48.9196 38.1663C49.154 38.1663 49.3437 38.3564 49.3437 38.5904V43.3118C49.3437 44.0168 49.2116 44.7056 48.9502 45.3596L47.6488 48.3965V52.5762C47.6488 52.8102 47.4591 53.0003 47.2247 53.0003Z" fill="#EEEFEB"/>
<path d="M35.3626 34.4664C35.1286 34.4664 34.9385 34.2762 34.9385 34.0422V32.1336C34.9385 31.8996 35.1286 31.7095 35.3626 31.7095C35.5966 31.7095 35.7867 31.8996 35.7867 32.1336V34.0422C35.7867 34.2762 35.5966 34.4664 35.3626 34.4664Z" fill="#EEEFEB"/>
</g>
<defs>
<clipPath id="clip0">
<rect width="53" height="53" fill="white"/>
</clipPath>
</defs>
</svg>
