<svg width="28" height="28" viewBox="0 0 28 28" fill="none" xmlns="http://www.w3.org/2000/svg">
<path d="M14.0001 27.9877C1.57303 27.9752 -4.67774 12.8833 4.10068 4.08817C9.31179 -1.34234 18.6885 -1.34322 23.8995 4.08839C32.6779 12.8843 26.4264 27.9759 14.0001 27.9877ZM14.0001 2.1752C7.48665 2.1752 2.1876 7.47425 2.1876 13.9877C2.83647 29.6585 25.166 29.654 25.8126 13.9876C25.8126 7.4743 20.5135 2.1752 14.0001 2.1752ZM19.0938 17.5346L15.6382 14.079C15.6686 13.5687 15.4509 13.0809 15.0933 12.7644C15.0936 12.753 15.0938 12.7415 15.0938 12.7299V6.3315C15.0361 4.88032 12.9636 4.88141 12.9063 6.3315V12.7299C12.9063 12.7415 12.9066 12.753 12.9069 12.7644C11.7631 13.7882 12.539 15.7058 14.0914 15.6258L17.5469 19.0814C17.9741 19.5086 18.6666 19.5086 19.0937 19.0814C19.5209 18.6543 19.5209 17.9618 19.0938 17.5346Z" fill="black" fill-opacity="0.74"/>
</svg>
