<svg width="35" height="10" viewBox="0 0 35 10" fill="none" xmlns="http://www.w3.org/2000/svg">
<path d="M0.477095 6.07501C2.54756 7.91471 4.89421 10 9.43334 10C13.9726 9.99993 16.3194 7.91471 18.3899 6.07501C20.348 4.33522 22.0391 2.8326 25.5663 2.8326C29.0936 2.8326 30.7846 4.33522 32.7427 6.07501C33.3158 6.58424 34.179 6.51583 34.6705 5.92212C35.1621 5.32833 35.0961 4.43422 34.5229 3.92499C32.4523 2.08529 30.1056 0 25.5663 0C21.027 0 18.6802 2.08522 16.6097 3.92499C14.6516 5.66478 12.9605 7.1674 9.43334 7.1674C5.9062 7.1674 4.21533 5.66485 2.25738 3.92499C1.68425 3.41576 0.821148 3.4841 0.329507 4.07788C-0.162133 4.6716 -0.0960298 5.56578 0.477095 6.07501Z" fill="url(#paint0_linear)"/>
<defs>
<linearGradient id="paint0_linear" x1="-1.80943e-07" y1="3.21428" x2="35.7143" y2="6.07143" gradientUnits="userSpaceOnUse">
<stop stop-color="#212934"/>
<stop offset="1" stop-color="#C1A671"/>
</linearGradient>
</defs>
</svg>
