<svg width="10" height="14" viewBox="0 0 10 14" fill="none" xmlns="http://www.w3.org/2000/svg">
<path d="M2.37647 13.1872C3.92686 13.9465 5.74092 13.9465 7.29131 13.1872C8.50948 12.5965 9.26885 11.6895 9.54834 10.4924C9.91749 8.90513 9.42706 6.83794 8.10342 4.34888C7.21748 2.68247 6.1628 1.22173 5.43506 0.293608C5.18194 -0.0333449 4.7126 -0.096626 4.38037 0.151225C4.32764 0.193413 4.28018 0.240874 4.23799 0.293608C3.51026 1.22173 2.45557 2.68247 1.56963 4.34888C1.22686 4.98697 0.920998 5.64615 0.657327 6.32115C0.594045 6.48462 0.67842 6.66919 0.841897 6.7272C0.878811 6.74302 0.915725 6.74829 0.952639 6.74829C1.08447 6.74829 1.20049 6.66919 1.24795 6.5479C2.20244 4.06412 3.99541 1.62251 4.7337 0.683842C4.77061 0.631108 4.84444 0.615288 4.89717 0.652202C4.90772 0.662749 4.91826 0.673295 4.92881 0.683842C6.05733 2.12876 9.68018 7.09634 8.92608 10.3501C8.68877 11.3626 8.06651 12.1061 7.01182 12.6176C5.63545 13.2926 4.02705 13.2926 2.65069 12.6176C1.596 12.1061 0.968459 11.3626 0.736428 10.3501C0.609866 9.80161 0.604592 9.21099 0.69424 8.58872C0.720608 8.4147 0.599318 8.2565 0.425295 8.23013C0.409474 8.23013 0.393654 8.22486 0.377834 8.22486C0.219631 8.22486 0.0877953 8.34087 0.0667015 8.4938C-0.0387673 9.22154 -0.0176735 9.88599 0.119436 10.4872C0.398928 11.6842 1.1583 12.5913 2.37647 13.1872Z" fill="#C1A671"/>
</svg>
