<svg width="28" height="28" viewBox="0 0 28 28" fill="none" xmlns="http://www.w3.org/2000/svg">
<path d="M5.70562 18.6125C8.46733 21.9138 11.7918 24.5131 15.5863 26.3523C17.0309 27.0369 18.963 27.8491 21.1155 27.9884C21.2489 27.9942 21.3766 28 21.51 28C22.9547 28 24.1151 27.501 25.0608 26.4741C25.0666 26.4683 25.0782 26.4567 25.084 26.4451C25.4205 26.039 25.8034 25.6734 26.2038 25.2847C26.4764 25.0236 26.7549 24.7509 27.0218 24.4724C28.2576 23.1844 28.2576 21.5483 27.0102 20.3009L23.5233 16.8139C22.9315 16.1989 22.2237 15.874 21.481 15.874C20.7384 15.874 20.0247 16.1989 19.4155 16.8081L17.3384 18.8852C17.147 18.775 16.9497 18.6763 16.7641 18.5835C16.532 18.4675 16.3173 18.3572 16.1258 18.2354C14.2344 17.0344 12.5171 15.4679 10.8751 13.4546C10.0455 12.4045 9.48847 11.5226 9.09974 10.6233C9.64512 10.1301 10.1557 9.61376 10.6488 9.10899C10.8229 8.92913 11.0028 8.74927 11.1826 8.56942C11.8092 7.94281 12.1457 7.21757 12.1457 6.48073C12.1457 5.74389 11.815 5.01865 11.1826 4.39204L9.45366 2.66308C9.25059 2.46001 9.05913 2.26274 8.86186 2.05968C8.47894 1.66515 8.0786 1.25901 7.68407 0.893494C7.08648 0.307501 6.38445 0 5.6418 0C4.90496 0 4.19713 0.307501 3.57632 0.899296L1.40641 3.06921C0.617353 3.85827 0.170606 4.81558 0.0777754 5.92375C-0.0324609 7.3104 0.222823 8.78409 0.88424 10.5653C1.89957 13.3212 3.43128 15.8798 5.70562 18.6125ZM1.49344 6.04559C1.56306 5.27393 1.85896 4.62992 2.41594 4.07294L4.57425 1.91463C4.91076 1.58972 5.28209 1.42147 5.6418 1.42147C5.99572 1.42147 6.35544 1.58972 6.68615 1.92623C7.07487 2.28595 7.44039 2.66307 7.83492 3.06341C8.03219 3.26647 8.23526 3.46954 8.43832 3.67841L10.1673 5.40738C10.527 5.76709 10.7127 6.13262 10.7127 6.49233C10.7127 6.85205 10.527 7.21757 10.1673 7.57729C9.98743 7.75715 9.80757 7.94281 9.62771 8.12267C9.08814 8.66805 8.58337 9.18442 8.02639 9.67758C8.01478 9.68918 8.00898 9.69499 7.99738 9.70659C7.51582 10.1881 7.59124 10.6465 7.70728 10.9946C7.71308 11.012 7.71889 11.0236 7.72469 11.041C8.17144 12.1144 8.79224 13.1355 9.76116 14.3539C11.5017 16.5006 13.3351 18.1658 15.3542 19.448C15.6037 19.6104 15.8706 19.7381 16.12 19.8657C16.3521 19.9818 16.5668 20.092 16.7583 20.2138C16.7815 20.2254 16.7989 20.237 16.8221 20.2487C17.0135 20.3473 17.1992 20.3937 17.3849 20.3937C17.849 20.3937 18.1507 20.0978 18.2493 19.9992L20.4193 17.8293C20.7558 17.4927 21.1213 17.3129 21.481 17.3129C21.922 17.3129 22.2817 17.5856 22.5079 17.8293L26.0065 21.322C26.7027 22.0182 26.6969 22.7725 25.9891 23.5093C25.7454 23.7704 25.4901 24.0199 25.2174 24.281C24.8113 24.6755 24.3878 25.0816 24.0048 25.54C23.3376 26.2594 22.5428 26.5959 21.5158 26.5959C21.4172 26.5959 21.3128 26.5901 21.2141 26.5843C19.3111 26.4625 17.5415 25.7199 16.2129 25.0874C12.6041 23.3411 9.43625 20.8637 6.80799 17.719C4.64388 15.114 3.1876 12.6888 2.22448 10.0895C1.62688 8.49399 1.40061 7.21177 1.49344 6.04559Z" fill="#C1A671"/>
</svg>
