<svg width="27" height="25" viewBox="0 0 27 25" fill="none" xmlns="http://www.w3.org/2000/svg">
<path d="M25.1919 5.72745C23.9866 4.24601 22.3493 3.07572 20.2802 2.2169C18.2111 1.35807 15.9509 0.928711 13.5 0.928711C11.0491 0.928711 8.78901 1.35807 6.71984 2.2169C4.65067 3.07572 3.01344 4.2458 1.80805 5.72745C0.602614 7.20899 0 8.82358 0 10.5714C0 12.078 0.454375 13.4896 1.36349 14.8054C2.27261 16.1213 3.51547 17.2263 5.09264 18.1203C4.98203 18.5219 4.85147 18.9035 4.70075 19.2654C4.55008 19.627 4.41451 19.9233 4.29397 20.1545C4.17334 20.3853 4.01027 20.6416 3.80419 20.9226C3.59843 21.204 3.44275 21.4025 3.33725 21.518C3.23187 21.6336 3.05861 21.8242 2.81739 22.0905C2.57648 22.3565 2.42069 22.5301 2.35045 22.6105C2.34027 22.6156 2.30016 22.6605 2.22987 22.7463C2.15963 22.8315 2.12437 22.874 2.12437 22.874L2.03397 23.0096C1.98368 23.0845 1.96109 23.1324 1.96606 23.1522C1.97112 23.1725 1.96109 23.2227 1.93598 23.3029C1.9108 23.3834 1.91339 23.4437 1.94347 23.4838V23.499C1.98368 23.6696 2.06395 23.8078 2.18448 23.9133C2.30502 24.0184 2.44085 24.0711 2.59136 24.0711H2.66677C3.31984 23.9906 3.89232 23.8805 4.38443 23.7398C7.01621 23.0669 9.32656 21.8514 11.3153 20.0935C12.0686 20.1739 12.7969 20.214 13.4999 20.214C15.9508 20.214 18.211 19.7847 20.2801 18.9256C22.3492 18.0666 23.9865 16.8968 25.1918 15.4153C26.3973 13.9338 27 12.3191 27 10.5713C27 8.82379 26.3974 7.20899 25.1919 5.72745ZM23.4968 14.4135C22.4469 15.5986 21.0306 16.5404 19.2477 17.2384C17.4648 17.9362 15.5487 18.2855 13.4996 18.2855C12.887 18.2855 12.2341 18.2454 11.5411 18.1649L10.6822 18.0748L10.0344 18.6475C8.79904 19.7324 7.41776 20.591 5.89099 21.2239C6.35296 20.4104 6.70454 19.5465 6.94571 18.6326L7.35248 17.186L6.04171 16.4329C4.7359 15.6892 3.72403 14.8079 3.00568 13.7883C2.28744 12.769 1.92848 11.6965 1.92848 10.5716C1.92848 9.19542 2.45331 7.91483 3.50291 6.72955C4.55283 5.54438 5.96894 4.60265 7.75192 3.90457C9.53491 3.20644 11.4507 2.85708 13.4999 2.85708C15.549 2.85708 17.4648 3.20628 19.2477 3.90436C21.0305 4.60249 22.4468 5.54417 23.4968 6.72934C24.5464 7.91462 25.0712 9.19526 25.0712 10.5713C25.0712 11.9474 24.5464 13.2283 23.4968 14.4135Z" fill="#C1A671" fill-opacity="0.21"/>
</svg>
