<svg width="52" height="52" viewBox="0 0 52 52" fill="none" xmlns="http://www.w3.org/2000/svg">
<g clip-path="url(#clip0)">
<path d="M21.387 49.8799H24.7418V51.5573H21.387V49.8799Z" fill="#5F5E6A"/>
<path d="M24.742 51.9766H21.3871C21.1557 51.9766 20.9678 51.7886 20.9678 51.5572V49.8798C20.9678 49.6484 21.1557 49.4604 21.3871 49.4604C21.6185 49.4604 21.8065 49.6484 21.8065 49.8798V51.1379H24.3226V49.8798C24.3226 49.6484 24.5106 49.4604 24.742 49.4604C24.9733 49.4604 25.1613 49.6484 25.1613 49.8798V51.5572C25.1613 51.7886 24.9733 51.9766 24.742 51.9766Z" fill="#EEEFEB"/>
<path d="M4.61304 49.8799H7.96788V51.5573H4.61304V49.8799Z" fill="#5F5E6A"/>
<path d="M7.9678 51.9766H4.61296C4.38158 51.9766 4.1936 51.7886 4.1936 51.5572V49.8798C4.1936 49.6484 4.38158 49.4604 4.61296 49.4604C4.84434 49.4604 5.03231 49.6484 5.03231 49.8798V51.1379H7.54844V49.8798C7.54844 49.6484 7.73641 49.4604 7.9678 49.4604C8.19918 49.4604 8.38715 49.6484 8.38715 49.8798V51.5572C8.38715 51.7886 8.19918 51.9766 7.9678 51.9766Z" fill="#EEEFEB"/>
<path d="M34.8064 38.1382H37.3225V45.6866H34.8064V38.1382Z" fill="#5F5E6A"/>
<path d="M34.8064 38.1382H37.3225V39.8156H34.8064V38.1382Z" fill="#D6D6D0"/>
<path d="M34.8064 44.0088H37.3225V45.6862H34.8064V44.0088Z" fill="#5F5E6A"/>
<path d="M37.3224 46.1058H34.8063C34.5749 46.1058 34.387 45.9179 34.387 45.6865C34.387 45.4551 34.5749 45.2671 34.8063 45.2671H36.9031V38.5575H34.8063C34.5749 38.5575 34.387 38.3695 34.387 38.1381C34.387 37.9067 34.5749 37.7188 34.8063 37.7188H37.3224C37.5538 37.7188 37.7418 37.9067 37.7418 38.1381V45.6865C37.7418 45.9179 37.5538 46.1058 37.3224 46.1058Z" fill="#EEEFEB"/>
<path d="M37.4308 38.8472C37.4308 38.8472 41.5162 38.1379 41.5162 32.267C41.5162 26.396 33.1291 26.396 33.1291 22.2024C33.1291 18.0089 37.3227 17.1702 37.3227 14.6541C37.3227 12.1379 26.4194 12.9766 26.4194 7.10567C26.4194 1.23471 33.9678 0.395996 39.0001 0.395996C44.0323 0.395996 51.5807 1.23471 51.5807 5.42825C51.5807 7.94438 47.3872 7.10567 47.3872 10.4605C47.3872 13.8153 50.742 13.8153 50.742 17.1702C50.742 20.525 46.5485 21.3637 46.5485 25.5573C46.5485 29.7508 49.9033 31.4283 49.9033 36.4605C49.9033 41.4928 44.2486 44.9709 37.4308 44.9709V38.8472Z" fill="#F0F0E6"/>
<path d="M37.4307 43.2935V44.9709C44.2485 44.9709 49.9032 41.4928 49.9032 36.4605C49.9032 36.1141 49.8848 35.7869 49.8545 35.4707C49.363 40.1274 43.9323 43.2935 37.4307 43.2935Z" fill="#DCDCD2"/>
<path d="M37.4306 45.3903C37.1992 45.3903 37.0112 45.2024 37.0112 44.971V38.8473C37.0112 38.6438 37.1582 38.4693 37.3585 38.4341C37.5104 38.4071 41.0966 37.69 41.0966 32.2671C41.0966 29.5445 39.2169 28.2144 36.7598 26.7585C36.5607 26.6402 36.4948 26.3826 36.6127 26.184C36.7311 25.9841 36.9879 25.9186 37.1873 26.0369C39.3025 27.2901 41.9353 28.8508 41.9353 32.2671C41.9353 37.3882 38.895 38.824 37.8499 39.1663V44.5475C40.2284 44.4963 42.4804 44.0131 44.3843 43.1408C44.5924 43.0446 44.8422 43.1367 44.9396 43.348C45.0359 43.5585 44.9437 43.8067 44.7332 43.9042C42.609 44.876 40.0835 45.3903 37.4306 45.3903Z" fill="#EEEFEB"/>
<path d="M24.7419 28.9121H34.8065V49.0411H24.7419V28.9121Z" fill="#5F5E6A"/>
<path d="M34.8065 34.3293V28.9121H24.7419V49.0411H29.3581L34.8065 34.3293Z" fill="#5F5E6A"/>
<path d="M24.7419 47.3638H34.8065V49.0412H24.7419V47.3638Z" fill="#5F5E6A"/>
<path d="M34.8064 49.4604H24.7419C24.5105 49.4604 24.3225 49.2724 24.3225 49.0411V28.912C24.3225 28.6806 24.5105 28.4927 24.7419 28.4927H34.8064C35.0378 28.4927 35.2257 28.6806 35.2257 28.912V39.7145C35.2257 39.9459 35.0378 40.1339 34.8064 40.1339C34.575 40.1339 34.387 39.9459 34.387 39.7145V29.3314H25.1612V48.6217H34.387V43.976C34.387 43.7447 34.575 43.5567 34.8064 43.5567C35.0378 43.5567 35.2257 43.7447 35.2257 43.976V49.0411C35.2257 49.2724 35.0378 49.4604 34.8064 49.4604Z" fill="#EEEFEB"/>
<path d="M26.0906 49.88H2.09685C1.1701 49.88 0.419434 49.1294 0.419434 48.2026V28.9123C0.419434 27.9855 1.1701 27.2349 2.09685 27.2349H34.44C35.0236 27.2349 35.4298 27.8168 35.2267 28.3643L27.6632 48.7845C27.4199 49.4431 26.7925 49.88 26.0906 49.88Z" fill="#363540"/>
<path d="M21.3872 37.2992C21.3872 40.5414 18.7589 43.1702 15.5162 43.1702C12.2736 43.1702 9.64526 40.5414 9.64526 37.2992C9.64526 34.0566 12.2736 31.4282 15.5162 31.4282C18.7589 31.4282 21.3872 34.0566 21.3872 37.2992Z" fill="#787885"/>
<path d="M2.09685 28.9123H34.44C34.6394 28.9123 34.8159 28.9835 34.956 29.0949L35.2259 28.3643C35.429 27.8168 35.0236 27.2349 34.4392 27.2349H2.09685C1.1701 27.2349 0.419434 27.9855 0.419434 28.9123V30.5897C0.419434 29.6629 1.1701 28.9123 2.09685 28.9123Z" fill="#EBF7FE"/>
<path d="M26.9293 48.2023H2.09685C1.1701 48.2023 0.419434 47.4517 0.419434 46.5249V48.2023C0.419434 49.1291 1.1701 49.8797 2.09685 49.8797H26.0906C26.7925 49.8797 27.4199 49.4428 27.6632 48.7851L28.0457 47.751C27.7438 48.0262 27.3564 48.2023 26.9293 48.2023Z" fill="#787885"/>
<path d="M5.06502 50.2993H2.09677C0.941091 50.2993 0 49.3582 0 48.2025V28.9122C0 27.7565 0.941091 26.8154 2.09677 26.8154H34.4399C34.8511 26.8154 35.2377 27.0173 35.4723 27.3556C35.7074 27.6935 35.7627 28.1247 35.6194 28.5105L34.1807 32.3936C34.1004 32.6106 33.8605 32.7233 33.6414 32.6409C33.4243 32.5607 33.3137 32.3199 33.394 32.1016L34.8323 28.2185C34.881 28.0886 34.8626 27.9478 34.7831 27.8335C34.7033 27.7197 34.5792 27.6541 34.4399 27.6541H2.09677C1.40304 27.6541 0.83871 28.2185 0.83871 28.9122V48.2025C0.83871 48.8959 1.40304 49.4606 2.09677 49.4606H5.06502C5.2964 49.4606 5.48438 49.6486 5.48438 49.8799C5.48438 50.1113 5.2964 50.2993 5.06502 50.2993Z" fill="#EEEFEB"/>
<path d="M21.467 50.2992H7.03532C6.80353 50.2992 6.61597 50.1112 6.61597 49.8798C6.61597 49.6484 6.80353 49.4604 7.03532 49.4604H21.467C21.6984 49.4604 21.8864 49.6484 21.8864 49.8798C21.8864 50.1112 21.6984 50.2992 21.467 50.2992Z" fill="#EEEFEB"/>
<path d="M26.0904 50.2994H23.9645C23.7327 50.2994 23.5452 50.1114 23.5452 49.88C23.5452 49.6486 23.7327 49.4607 23.9645 49.4607H26.0904C26.6146 49.4607 27.0884 49.131 27.2706 48.6396L29.3052 43.1449C29.385 42.9279 29.6275 42.8165 29.8445 42.8976C30.0616 42.9783 30.1725 43.2191 30.0919 43.4369L28.0573 48.9311C27.7543 49.749 26.9635 50.2994 26.0904 50.2994Z" fill="#EEEFEB"/>
<path d="M39.0001 2.07342C43.6281 2.07342 50.3673 2.7905 51.4239 6.1654C51.5205 5.95409 51.5807 5.71492 51.5807 5.42825C51.5807 1.23471 44.0323 0.395996 39.0001 0.395996C33.9678 0.395996 26.4194 1.23471 26.4194 7.10567C26.4194 7.37719 26.4497 7.62987 26.494 7.87313C27.2438 2.82981 34.2422 2.07342 39.0001 2.07342Z" fill="#FFFFFA"/>
<path d="M26.4194 7.52512C26.188 7.52512 26 7.33715 26 7.10577C26 4.48398 27.3989 2.55225 30.1583 1.36462C30.3696 1.27575 30.617 1.37158 30.7083 1.58454C30.8001 1.79749 30.7018 2.04402 30.4888 2.13535C28.0329 3.19234 26.8387 4.81856 26.8387 7.10577C26.8387 7.33715 26.6507 7.52512 26.4194 7.52512Z" fill="#EEEFEB"/>
<path d="M31.1596 12.3274C31.1146 12.3274 31.0699 12.3205 31.0249 12.3045C29.7439 11.8683 27.9198 11.1296 26.8747 9.75765C26.7347 9.57295 26.7699 9.31045 26.9546 9.16957C27.1364 9.03033 27.4014 9.06391 27.5414 9.24902C28.2311 10.1549 29.4244 10.8736 31.2956 11.5104C31.5155 11.585 31.6318 11.8233 31.5573 12.042C31.4979 12.2173 31.3341 12.3274 31.1596 12.3274Z" fill="#EEEFEB"/>
<path d="M34.0808 24.7997C33.9711 24.7997 33.8613 24.7571 33.7798 24.6715C33.0595 23.9266 32.7097 23.119 32.7097 22.2025C32.7097 19.6626 34.1623 18.2461 35.3307 17.108C36.1743 16.2852 36.9033 15.5759 36.9033 14.6541C36.9033 14.0894 35.673 13.6585 34.3437 13.276C34.1214 13.2122 33.9928 12.9791 34.0566 12.7568C34.1214 12.5336 34.3503 12.4062 34.5759 12.4701C36.2447 12.9496 37.742 13.4779 37.742 14.6541C37.742 15.9298 36.8545 16.7935 35.9151 17.7088C34.752 18.8436 33.5484 20.0168 33.5484 22.2025C33.5484 22.9011 33.8134 23.4999 34.3822 24.0896C34.5432 24.2554 34.5391 24.5212 34.372 24.6826C34.2905 24.7604 34.1856 24.7997 34.0808 24.7997Z" fill="#EEEFEB"/>
<path d="M47.9138 41.621C47.8098 41.621 47.7058 41.5825 47.6247 41.5051C47.4568 41.3458 47.4503 41.08 47.6096 40.9125C48.8365 39.6257 49.484 38.0859 49.484 36.4605C49.484 33.9341 48.5973 32.2784 47.7418 30.6768C47.3471 29.9396 46.9392 29.1763 46.6382 28.3568C46.5587 28.1398 46.6701 27.8981 46.888 27.8183C47.1054 27.7396 47.3462 27.8502 47.4265 28.0673C47.7066 28.8323 48.0834 29.5358 48.4819 30.2808C49.3865 31.9741 50.3227 33.7245 50.3227 36.4605C50.3227 38.3054 49.5945 40.0451 48.2177 41.4911C48.1354 41.5784 48.0244 41.621 47.9138 41.621Z" fill="#EEEFEB"/>
<path d="M46.5485 25.9769C46.3171 25.9769 46.1292 25.7889 46.1292 25.5576C46.1292 24.2667 46.494 23.1512 47.2758 22.0475C47.4106 21.8579 47.6722 21.8145 47.8602 21.9476C48.0498 22.0819 48.0932 22.3436 47.9601 22.5324C47.2742 23.5009 46.9679 24.4334 46.9679 25.5576C46.9679 25.7889 46.7799 25.9769 46.5485 25.9769Z" fill="#EEEFEB"/>
<path d="M49.1927 20.8647C49.094 20.8647 48.9941 20.8295 48.9134 20.7582C48.7406 20.6038 48.7259 20.3389 48.8799 20.166C49.6408 19.3151 50.3226 18.4444 50.3226 17.1704C50.3226 15.6666 49.6023 14.9458 48.7676 14.1124C47.9248 13.2684 46.9678 12.3117 46.9678 10.4607C46.9678 9.99997 47.0415 9.57816 47.1869 9.2059C47.2712 8.98967 47.5137 8.88279 47.7295 8.96756C47.9449 9.05151 48.0522 9.29477 47.9674 9.51018C47.8585 9.78866 47.8065 10.0999 47.8065 10.4607C47.8065 11.9645 48.5268 12.6848 49.3615 13.5186C50.2043 14.3622 51.1613 15.3193 51.1613 17.1704C51.1613 18.7389 50.3435 19.786 49.5056 20.7246C49.4237 20.818 49.3086 20.8647 49.1927 20.8647Z" fill="#EEEFEB"/>
<path d="M50.9257 7.22422C50.8058 7.22422 50.6866 7.17303 50.6034 7.0731C50.4552 6.89537 50.4794 6.6304 50.6563 6.48175C51.0052 6.19139 51.1612 5.86623 51.1612 5.42845C51.1612 3.63185 49.5407 2.32751 46.3452 1.55187C46.1196 1.4974 45.9824 1.27094 46.0368 1.04529C46.0913 0.820456 46.3169 0.680398 46.5434 0.736504C50.1648 1.61658 51.9999 3.19489 51.9999 5.42845C51.9999 6.1185 51.7366 6.67463 51.194 7.12675C51.1149 7.19227 51.0203 7.22422 50.9257 7.22422Z" fill="#EEEFEB"/>
<path d="M44.19 1.14399C44.1707 1.14399 44.1506 1.14317 44.1322 1.13948C43.4418 1.04406 42.7005 0.967891 41.9261 0.913833C41.6955 0.897043 41.5219 0.697604 41.5371 0.466221C41.5538 0.235658 41.7418 0.0661141 41.9851 0.0771714C42.7767 0.132457 43.5384 0.210267 44.2461 0.308554C44.475 0.340497 44.6363 0.552631 44.6044 0.781556C44.5757 0.991234 44.3964 1.14399 44.19 1.14399Z" fill="#EEEFEB"/>
<path d="M33.8124 1.19547C33.6122 1.19547 33.434 1.05009 33.4 0.845739C33.3611 0.617223 33.5155 0.400994 33.7436 0.362498C34.8768 0.172068 36.1459 0.0512582 37.5162 0.00252457C37.7435 -0.0249137 37.9413 0.175345 37.9507 0.406727C37.9589 0.638519 37.7779 0.832225 37.5465 0.840415C36.2127 0.88833 34.98 1.00586 33.8837 1.19015C33.8595 1.19343 33.837 1.19547 33.8124 1.19547Z" fill="#EEEFEB"/>
<path d="M13 13.8154H18.0323V35.6219H13V13.8154Z" fill="#EBF7FE"/>
<path d="M18.0323 32.0028C17.2681 31.6379 16.4179 31.4282 15.5161 31.4282C14.6144 31.4282 13.7642 31.6379 13 32.0028V35.6218H18.0323V32.0028Z" fill="#EBF7FE"/>
<path d="M13 13.8154H18.0323V15.4928H13V13.8154Z" fill="#EBF7FE"/>
<path d="M18.0322 36.0412H12.9999C12.7685 36.0412 12.5806 35.8532 12.5806 35.6218V13.8154C12.5806 13.584 12.7685 13.396 12.9999 13.396H18.0322C18.2636 13.396 18.4515 13.584 18.4515 13.8154V35.6218C18.4515 35.8532 18.2636 36.0412 18.0322 36.0412ZM13.4193 35.2024H17.6128V14.2347H13.4193V35.2024Z" fill="#EEEFEB"/>
<path d="M2.93555 33.1055H7.9678V35.6216H2.93555V33.1055Z" fill="#7A7585"/>
<path d="M3.83724 36.0414H2.93547C2.70409 36.0414 2.51611 35.8534 2.51611 35.622V33.1059C2.51611 32.8745 2.70409 32.6865 2.93547 32.6865H4.91389C5.14527 32.6865 5.33324 32.8745 5.33324 33.1059C5.33324 33.3373 5.1465 33.5252 4.91389 33.5252H3.35482V35.2027H3.83724C4.06863 35.2027 4.2566 35.3906 4.2566 35.622C4.2566 35.8534 4.06863 36.0414 3.83724 36.0414Z" fill="#EEEFEB"/>
<path d="M7.96775 36.0414H5.95329C5.7215 36.0414 5.53394 35.8534 5.53394 35.622C5.53394 35.3906 5.7215 35.2027 5.95329 35.2027H7.54839V33.5252H6.90912C6.67774 33.5252 6.48977 33.3373 6.48977 33.1059C6.48977 32.8745 6.67774 32.6865 6.90912 32.6865H7.96775C8.19913 32.6865 8.3871 32.8745 8.3871 33.1059V35.622C8.3871 35.8534 8.19913 36.0414 7.96775 36.0414Z" fill="#EEEFEB"/>
<path d="M19.7097 46.9444C19.6527 46.9444 19.5946 46.9325 19.5393 46.9084C19.328 46.8142 19.2326 46.566 19.3264 46.3547L22.6812 38.8063C22.7758 38.595 23.0244 38.5004 23.2349 38.5933C23.4462 38.6871 23.5416 38.9353 23.4478 39.147L20.093 46.6954C20.0234 46.8518 19.8698 46.9444 19.7097 46.9444Z" fill="#EEEFEB"/>
<path d="M22.2258 46.9444C22.1689 46.9444 22.1107 46.9325 22.0554 46.9084C21.8441 46.8142 21.7487 46.566 21.8425 46.3547L25.1973 38.8063C25.2911 38.595 25.5405 38.5004 25.751 38.5933C25.9623 38.6871 26.0577 38.9353 25.9639 39.147L22.6091 46.6954C22.5395 46.8518 22.3859 46.9444 22.2258 46.9444Z" fill="#EEEFEB"/>
<path d="M24.7419 46.9445C24.685 46.9445 24.6268 46.9326 24.5715 46.9085C24.3602 46.8143 24.2648 46.5661 24.3586 46.3548L27.7134 38.8064C27.8072 38.5943 28.0558 38.5005 28.2671 38.5935C28.4784 38.6872 28.5738 38.9354 28.48 39.1471L25.1252 46.6955C25.0556 46.852 24.902 46.9445 24.7419 46.9445Z" fill="#EEEFEB"/>
<path d="M19.7096 37.299C19.7096 39.6149 17.8319 41.4926 15.5161 41.4926C13.2002 41.4926 11.3225 39.6149 11.3225 37.299C11.3225 34.9827 13.2002 33.1055 15.5161 33.1055C17.8319 33.1055 19.7096 34.9827 19.7096 37.299Z" fill="#EBF7FE"/>
<path d="M15.5161 39.8153C13.4873 39.8153 11.7955 38.3742 11.4073 36.4604C11.352 36.7311 11.3225 37.0113 11.3225 37.2992C11.3225 39.6146 13.2002 41.4927 15.5161 41.4927C17.8319 41.4927 19.7096 39.6146 19.7096 37.2992C19.7096 37.0113 19.6801 36.7311 19.6248 36.4604C19.2366 38.3742 17.5449 39.8153 15.5161 39.8153Z" fill="#EBF7FE"/>
<path d="M15.5161 34.7829C17.5449 34.7829 19.2366 36.2236 19.6248 38.1377C19.6801 37.8666 19.7096 37.5865 19.7096 37.299C19.7096 34.9831 17.8319 33.1055 15.5161 33.1055C13.2002 33.1055 11.3225 34.9831 11.3225 37.299C11.3225 37.5865 11.352 37.8666 11.4073 38.1377C11.7955 36.2236 13.4873 34.7829 15.5161 34.7829Z" fill="#EBF7FE"/>
<path d="M15.5162 41.912C12.9722 41.912 10.9033 39.8426 10.9033 37.2991C10.9033 35.4411 12.0086 33.7722 13.7205 33.0494C13.9334 32.9601 14.1803 33.0584 14.27 33.2722C14.3597 33.4864 14.2606 33.7321 14.0468 33.8218C12.6471 34.414 11.742 35.7785 11.742 37.2991C11.742 39.3799 13.4354 41.0733 15.5162 41.0733C17.597 41.0733 19.2904 39.3799 19.2904 37.2991C19.2904 35.7683 18.3772 34.3996 16.9639 33.8124C16.7501 33.7235 16.6486 33.4778 16.7374 33.264C16.8263 33.0502 17.0728 32.9487 17.2858 33.0375C19.0128 33.7554 20.1291 35.4288 20.1291 37.2991C20.1291 39.8426 18.0602 41.912 15.5162 41.912Z" fill="#EEEFEB"/>
<path d="M25.1612 13.396L26.3472 15.5648L28.5161 16.7508L26.3472 17.9368L25.1612 20.1057L23.9752 17.9368L21.8064 16.7508L23.9752 15.5648L25.1612 13.396Z" fill="#FFD3B4" fill-opacity="0.44"/>
<path d="M23.9752 16.4036L25.1612 15.0734L26.3472 16.4036L28.5161 16.7508L26.3472 15.5648L25.1612 13.396L23.9752 15.5648L21.8064 16.7508L23.9752 16.4036Z" fill="white"/>
<path d="M6.70975 0.81543L8.48873 4.06871L11.742 5.84769L8.48873 7.62667L6.70975 10.8799L4.93077 7.62667L1.67749 5.84769L4.93077 4.06871L6.70975 0.81543Z" fill="#FFD3B4" fill-opacity="0.44"/>
<path d="M4.93077 5.74613L6.70975 2.49285L8.48873 5.74613L11.0475 5.84769H11.742L8.48873 4.06871L6.70975 0.81543L4.93077 4.06871L1.67749 5.84769H2.37205L4.93077 5.74613Z" fill="white"/>
<path d="M25.1612 20.5251C25.0076 20.5251 24.8667 20.4412 24.7938 20.3069L23.6664 18.2461L21.6061 17.1191C21.4709 17.0454 21.387 16.9045 21.387 16.751C21.387 16.5974 21.4709 16.4565 21.6048 16.3836L23.6656 15.2562L24.793 13.1954C24.9396 12.9264 25.3819 12.9264 25.5285 13.1954L26.6559 15.2562L28.7175 16.3836C28.8514 16.4565 28.9353 16.5974 28.9353 16.751C28.9353 16.9045 28.8514 17.0454 28.7175 17.1183L26.6559 18.2453L25.5285 20.306C25.4556 20.4412 25.3147 20.5251 25.1612 20.5251ZM22.6802 16.751L24.1767 17.5696C24.2471 17.6081 24.3048 17.6658 24.3433 17.7363L25.1612 19.2319L25.9798 17.7355C26.0183 17.665 26.076 17.6073 26.1465 17.5688L27.6421 16.751L26.1457 15.9323C26.0752 15.8938 26.0175 15.8357 25.979 15.7652L25.1612 14.27L24.3425 15.766C24.304 15.8365 24.2463 15.8946 24.1758 15.9331L22.6802 16.751Z" fill="#EEEFEB"/>
<path d="M6.70967 11.2993C6.5561 11.2993 6.41522 11.2153 6.34232 11.081L4.62109 7.93582L1.47592 6.21499C1.34201 6.1421 1.25806 6.00122 1.25806 5.84765C1.25806 5.69408 1.34201 5.5532 1.47592 5.4803L4.62109 3.75906L6.34151 0.613903C6.48812 0.344845 6.9304 0.344845 7.07701 0.613903L8.79702 3.75906L11.9422 5.47948C12.0773 5.5532 12.1613 5.69408 12.1613 5.84765C12.1613 6.00122 12.0773 6.1421 11.9434 6.21499L8.79825 7.935L7.07783 11.0802C7.00412 11.2153 6.86324 11.2993 6.70967 11.2993ZM2.55134 5.84765L5.13217 7.25928C5.20261 7.29778 5.26036 7.35552 5.29885 7.42596L6.70967 10.006L8.12131 7.42514C8.1598 7.3547 8.21755 7.29696 8.28798 7.25847L10.868 5.84765L8.28716 4.43601C8.21673 4.39752 8.15898 4.33936 8.12049 4.26892L6.70967 1.68932L5.29803 4.26974C5.25954 4.34059 5.20261 4.39752 5.13217 4.43601L2.55134 5.84765Z" fill="#EEEFEB"/>
</g>
<defs>
<clipPath id="clip0">
<rect width="52" height="52" fill="white"/>
</clipPath>
</defs>
</svg>
