<svg width="52" height="52" viewBox="0 0 52 52" fill="none" xmlns="http://www.w3.org/2000/svg">
<g clip-path="url(#clip0)">
<path d="M51.5807 0.419434H43.4705C35.9884 0.419434 29.0285 4.25587 25.0332 10.5814L21.3872 16.3549L5.1642 22.8439C2.29916 23.9905 0.419434 26.7659 0.419434 29.8521V34.8065C0.419434 38.9759 3.79843 42.3549 7.96782 42.3549H51.5807V0.419434Z" fill="#7A7585"/>
<path d="M0.419434 33.1289V34.8063C0.419434 38.9757 3.79843 42.3547 7.96782 42.3547H51.5807V40.6773H7.96782C3.79843 40.6773 0.419434 37.2983 0.419434 33.1289Z" fill="#D6D6D0"/>
<path d="M43.4705 0.419434C35.9884 0.419434 29.0285 4.25587 25.0332 10.5814L21.3872 16.3549L5.1642 22.8439C2.29916 23.9905 0.419434 26.7659 0.419434 29.8521V31.5295C0.419434 28.4433 2.29916 25.6671 5.1642 24.5213L21.3872 18.0323L25.034 12.2588C29.0285 5.93329 35.9884 2.09685 43.4705 2.09685H51.5807V0.419434H43.4705Z" fill="#EEEFEB"/>
<path d="M51.5806 42.7742H7.96774C3.57475 42.7742 0 39.1994 0 34.8064V29.852C0 26.5754 1.96614 23.6718 5.00891 22.4539L21.1053 16.0162L24.6789 10.3573C28.7754 3.87248 35.8004 0 43.4704 0H51.5806C51.812 0 52 0.187973 52 0.419355V42.3548C52 42.5862 51.812 42.7742 51.5806 42.7742ZM43.4704 0.83871C36.0887 0.83871 29.3299 4.56417 25.3878 10.8049L21.7409 16.5788C21.6934 16.6534 21.6238 16.7111 21.5423 16.7439L5.31975 23.2332C2.59844 24.3226 0.83871 26.921 0.83871 29.852V34.8064C0.83871 38.7375 4.0367 41.9355 7.96774 41.9355H51.1613V0.83871H43.4704Z" fill="#EEEFEB"/>
<path d="M27.2876 13.3201L26.9862 13.8545C26.3572 14.9725 27.1652 16.3546 28.4482 16.3546H51.3989V3.12735L45.043 3.06019C37.6957 2.9832 30.8898 6.91588 27.2876 13.3201Z" fill="#EBF7FE"/>
<path d="M45.0437 3.06119C37.6956 2.98338 30.8896 6.91606 27.2875 13.3202L26.986 13.8547C26.6736 14.41 26.717 15.0304 26.9963 15.5145L27.2875 14.9977C30.8896 8.59348 37.6956 4.6608 45.0437 4.73861L51.3995 4.80577V3.12835L45.0437 3.06119Z" fill="#EBF7FE"/>
<path d="M51.3997 16.7741H44.9046C44.6732 16.7741 44.4852 16.5861 44.4852 16.3548C44.4852 16.1234 44.6732 15.9354 44.9046 15.9354H50.9803V3.54273L45.0397 3.47967C44.9701 3.47885 44.8997 3.47885 44.8309 3.47885C37.7141 3.47885 31.1473 7.31447 27.6533 13.5258L27.3527 14.061C27.1315 14.455 27.1348 14.9231 27.3637 15.3129C27.5902 15.7024 27.9969 15.9354 28.449 15.9354C28.6804 15.9354 28.8683 16.1234 28.8683 16.3548C28.8683 16.5861 28.6804 16.7741 28.449 16.7741C27.6959 16.7741 27.0189 16.3859 26.6393 15.736C26.2592 15.0856 26.2523 14.3059 26.6217 13.649L26.9219 13.1142C30.5642 6.63916 37.4115 2.64014 44.8309 2.64014C44.9029 2.64014 44.975 2.64014 45.0479 2.64096L51.4037 2.70812C51.6335 2.71058 51.819 2.89773 51.819 3.12747V16.3548C51.819 16.5861 51.6319 16.7741 51.3997 16.7741Z" fill="#EEEFEB"/>
<path d="M39.4922 16.7743H36.0268C35.7954 16.7743 35.6074 16.5863 35.6074 16.3549C35.6074 16.1235 35.7954 15.9355 36.0268 15.9355H39.4922C39.7236 15.9355 39.9115 16.1235 39.9115 16.3549C39.9115 16.5863 39.7236 16.7743 39.4922 16.7743Z" fill="#EEEFEB"/>
<path d="M7.04595 23.9033H3.33728C1.80156 25.0983 0.773241 26.849 0.499268 28.8021V31.4517H5.64865C6.5623 31.4517 7.40429 30.9562 7.84781 30.1576L9.24593 27.6415C10.1776 25.9641 8.96499 23.9033 7.04595 23.9033Z" fill="#FFD3B4" fill-opacity="0.44"/>
<path d="M3.33728 25.5807H7.04677C8.19017 25.5807 9.07843 26.3146 9.41629 27.2606C9.99004 25.668 8.8233 23.9033 7.04677 23.9033H3.33728C1.80156 25.0983 0.773241 26.849 0.499268 28.8021V30.4795C0.773241 28.5265 1.80156 26.7757 3.33728 25.5807Z" fill="white"/>
<path d="M2.89 31.871H0.499189C0.267397 31.871 0.079834 31.683 0.079834 31.4516V28.802C0.373055 26.6876 1.43659 24.8517 3.07961 23.5728C3.15251 23.515 3.24342 23.4839 3.33721 23.4839H7.04669C8.09754 23.4839 9.04395 24.0249 9.57716 24.9316C10.1108 25.8374 10.1231 26.9268 9.6132 27.8453C9.49853 28.0481 9.24339 28.1193 9.04191 28.0079C8.84001 27.8953 8.76711 27.6406 8.87932 27.4375C9.24503 26.781 9.2352 26.0033 8.85434 25.3558C8.47348 24.7084 7.79736 24.3226 7.04588 24.3226H3.483C2.07586 25.4623 1.16508 27.0677 0.914039 28.8601L0.917725 31.0323H2.89082C3.12261 31.0323 3.31018 31.2202 3.31018 31.4516C3.31018 31.683 3.12261 31.871 2.89 31.871Z" fill="#EEEFEB"/>
<path d="M5.64787 31.8708C5.41649 31.8708 5.22852 31.6828 5.22852 31.4515C5.22852 31.2201 5.41649 31.0321 5.64787 31.0321C6.40877 31.0321 7.11152 30.6185 7.48132 29.9534C7.59476 29.7499 7.8503 29.6786 8.05261 29.7908C8.25451 29.903 8.32781 30.1582 8.21519 30.3613C7.69673 31.2922 6.71387 31.8708 5.64787 31.8708Z" fill="#EEEFEB"/>
<path d="M34.3872 41.0967C34.3872 46.8865 29.6932 51.5805 23.9033 51.5805C18.1134 51.5805 13.4194 46.8865 13.4194 41.0967C13.4194 35.3068 18.1134 30.6128 23.9033 30.6128C29.6932 30.6128 34.3872 35.3068 34.3872 41.0967Z" fill="#5F5E6A"/>
<path d="M23.9033 49.903C18.3964 49.903 13.89 45.655 13.4612 40.2578C13.4395 40.5355 13.4194 40.8131 13.4194 41.0965C13.4194 46.8868 18.113 51.5804 23.9033 51.5804C29.6936 51.5804 34.3872 46.8868 34.3872 41.0965C34.3872 40.8131 34.3671 40.5355 34.3454 40.2578C33.9166 45.655 29.4102 49.903 23.9033 49.903Z" fill="#5F5E6A"/>
<path d="M23.9033 32.2902C29.4102 32.2902 33.9166 36.5382 34.3454 41.9354C34.3671 41.6577 34.3872 41.3801 34.3872 41.0967C34.3872 35.3064 29.6936 30.6128 23.9033 30.6128C18.113 30.6128 13.4194 35.3064 13.4194 41.0967C13.4194 41.3801 13.4395 41.6577 13.4612 41.9354C13.89 36.5382 18.3964 32.2902 23.9033 32.2902Z" fill="#E9E9E9"/>
<path d="M23.9032 51.9998C17.8914 51.9998 13 47.1084 13 41.0966C13 35.0847 17.8914 30.1934 23.9032 30.1934C29.9151 30.1934 34.8065 35.0847 34.8065 41.0966C34.8065 47.1084 29.9151 51.9998 23.9032 51.9998ZM23.9032 31.0321C18.3533 31.0321 13.8387 35.5467 13.8387 41.0966C13.8387 46.6465 18.3533 51.1611 23.9032 51.1611C29.4531 51.1611 33.9677 46.6465 33.9677 41.0966C33.9677 35.5467 29.4531 31.0321 23.9032 31.0321Z" fill="#EEEFEB"/>
<path d="M28.9356 41.0967C28.9356 43.8758 26.6824 46.129 23.9034 46.129C21.1243 46.129 18.8711 43.8758 18.8711 41.0967C18.8711 38.3177 21.1243 36.0645 23.9034 36.0645C26.6824 36.0645 28.9356 38.3177 28.9356 41.0967Z" fill="#5F5E6A"/>
<path d="M21.8711 46.1218C21.8146 46.1218 21.756 46.1099 21.7015 46.0866C20.991 45.7721 20.3436 45.2987 19.8263 44.7167C19.6719 44.5431 19.6887 44.2789 19.8615 44.1245C20.0323 43.9693 20.2985 43.9861 20.4537 44.1598C20.8907 44.652 21.4407 45.0529 22.041 45.3191C22.2536 45.4129 22.349 45.6603 22.2552 45.8724C22.1856 46.0284 22.032 46.1218 21.8711 46.1218Z" fill="#EEEFEB"/>
<path d="M26.1528 46.0191C25.9992 46.0191 25.8518 45.9344 25.7777 45.7873C25.6745 45.5805 25.7584 45.3287 25.9656 45.2247C27.5382 44.4371 28.5162 42.8555 28.5162 41.0966C28.5162 38.5527 26.4464 36.4837 23.9033 36.4837C21.3601 36.4837 19.2904 38.5527 19.2904 41.0966C19.2904 41.328 19.1024 41.516 18.871 41.516C18.6396 41.516 18.4517 41.328 18.4517 41.0966C18.4517 38.0907 20.8974 35.645 23.9033 35.645C26.9092 35.645 29.3549 38.0907 29.3549 41.0966C29.3549 43.175 28.2 45.0445 26.3395 45.9745C26.2802 46.0048 26.2155 46.0191 26.1528 46.0191Z" fill="#EEEFEB"/>
<path d="M44.4515 5.87109L45.6375 8.03994L47.8064 9.22593L45.6375 10.4119L44.4515 12.5808L43.2655 10.4119L41.0967 9.22593L43.2655 8.03994L44.4515 5.87109Z" fill="#FFD3B4" fill-opacity="0.44"/>
<path d="M43.2655 8.87865L44.4515 7.54851L45.6375 8.87865L47.8064 9.22593L45.6375 8.03994L44.4515 5.87109L43.2655 8.03994L41.0967 9.22593L43.2655 8.87865Z" fill="white"/>
<path d="M20.9676 0.838867L22.1536 3.00772L24.3225 4.19371L22.1536 5.37969L20.9676 7.54854L19.7816 5.37969L17.6128 4.19371L19.7816 3.00772L20.9676 0.838867Z" fill="#FFD3B4" fill-opacity="0.44"/>
<path d="M19.7816 3.84643L20.9676 2.51629L22.1536 3.84643L24.3225 4.19371L22.1536 3.00772L20.9676 0.838867L19.7816 3.00772L17.6128 4.19371L19.7816 3.84643Z" fill="white"/>
<path d="M44.4517 13.0001C44.2981 13.0001 44.1572 12.9162 44.0843 12.7823L42.9569 10.7215L40.8954 9.59411C40.7614 9.5204 40.6775 9.37952 40.6775 9.22595C40.6775 9.07238 40.7614 8.9315 40.8954 8.8586L42.9569 7.73118L44.0843 5.67085C44.2318 5.40138 44.6724 5.40138 44.8198 5.67085L45.9473 7.73118L48.0088 8.8586C48.1419 8.9315 48.2259 9.07238 48.2259 9.22595C48.2259 9.37952 48.1419 9.5204 48.008 9.59329L45.9465 10.7207L44.819 12.781C44.7461 12.9162 44.6053 13.0001 44.4517 13.0001ZM41.9708 9.22595L43.4672 10.0446C43.5376 10.0831 43.5945 10.1408 43.633 10.2113L44.4517 11.7069L45.2703 10.2104C45.3088 10.14 45.3657 10.0823 45.4362 10.0438L46.9326 9.22595L45.4362 8.40731C45.3657 8.36881 45.3088 8.31107 45.2703 8.24063L44.4517 6.74504L43.633 8.24145C43.5945 8.31189 43.5376 8.36963 43.4672 8.40812L41.9708 9.22595Z" fill="#EEEFEB"/>
<path d="M20.9678 7.96792C20.8142 7.96792 20.6733 7.88396 20.6005 7.75005L19.473 5.68931L17.4115 4.56107C17.2776 4.48817 17.1936 4.34729 17.1936 4.19372C17.1936 4.04015 17.2776 3.89927 17.4115 3.82638L19.473 2.69895L20.6005 0.638625C20.7479 0.369156 21.1885 0.369156 21.336 0.638625L22.4634 2.69895L24.5249 3.82638C24.658 3.89927 24.742 4.04015 24.742 4.19372C24.742 4.34729 24.658 4.48817 24.5241 4.56107L22.4626 5.68849L21.3351 7.74882C21.2622 7.88396 21.1214 7.96792 20.9678 7.96792ZM18.4869 4.19372L19.9833 5.01236C20.0537 5.05086 20.1107 5.1086 20.1492 5.17904L20.9678 6.67463L21.7864 5.17822C21.8249 5.10778 21.8819 5.05004 21.9523 5.01155L23.4487 4.19372L21.9523 3.37508C21.8819 3.33658 21.8249 3.27884 21.7864 3.2084L20.9678 1.71281L20.1492 3.20922C20.1107 3.27966 20.0537 3.3374 19.9833 3.3759L18.4869 4.19372Z" fill="#EEEFEB"/>
<path d="M50.8434 34.9078L44.7685 28.8329C44.2963 28.3607 43.6562 28.0957 42.9895 28.0957H38.1612C35.3817 28.0957 33.1289 30.3485 33.1289 33.128V49.0634C33.1289 50.453 34.2551 51.5796 35.645 51.5796H49.0644C50.4543 51.5796 51.5805 50.453 51.5805 49.0634V36.6876C51.5805 36.0196 51.3156 35.3799 50.8434 34.9078ZM49.0644 37.3223C49.0644 37.7851 48.6884 38.161 48.2257 38.161H42.3547C41.8919 38.161 41.516 37.7851 41.516 37.3223V31.4514C41.516 30.9886 41.8919 30.6127 42.3547 30.6127H42.8461C43.0685 30.6127 43.2823 30.7007 43.4391 30.8584L48.8187 36.2379C48.9763 36.3956 49.0644 36.6085 49.0644 36.8309V37.3223Z" fill="#EBF7FE"/>
<path d="M49.0646 51.9998H35.6452C34.0263 51.9998 32.7097 50.6832 32.7097 49.0643V33.1289C32.7097 30.4342 34.6386 28.1695 37.2956 27.746C37.5266 27.7076 37.7387 27.8652 37.7764 28.0941C37.8124 28.3222 37.6564 28.5377 37.4283 28.5737C35.1796 28.9329 33.5484 30.8482 33.5484 33.1289V49.0643C33.5484 50.22 34.4887 51.1611 35.6452 51.1611H49.0646C50.2211 51.1611 51.1613 50.22 51.1613 49.0643V36.6876C51.1613 36.1282 50.9435 35.6016 50.5475 35.2047L44.4734 29.1307C44.0835 28.74 43.5425 28.516 42.9905 28.516H40.6672C40.4358 28.516 40.2479 28.328 40.2479 28.0966C40.2479 27.8652 40.4358 27.6772 40.6672 27.6772H42.9905C43.7641 27.6772 44.5196 27.9909 45.0664 28.5368L51.1404 34.6109C51.6949 35.1663 52 35.9034 52 36.6876V49.0643C52 50.6832 50.6834 51.9998 49.0646 51.9998Z" fill="#EEEFEB"/>
<path d="M48.2257 38.5805H42.3547C41.661 38.5805 41.0967 38.0161 41.0967 37.3224V31.4514C41.0967 30.7577 41.661 30.1934 42.3547 30.1934H42.8462C43.1775 30.1934 43.5014 30.3277 43.7361 30.5615L49.1156 35.9411C49.3531 36.1794 49.4838 36.4956 49.4838 36.831V37.3224C49.4838 38.0161 48.9195 38.5805 48.2257 38.5805ZM42.3547 31.0321C42.1242 31.0321 41.9354 31.22 41.9354 31.4514V37.3224C41.9354 37.5538 42.1242 37.7417 42.3547 37.7417H48.2257C48.4563 37.7417 48.6451 37.5538 48.6451 37.3224V36.831C48.6451 36.7212 48.5996 36.6127 48.5226 36.5341L43.1431 31.1545C43.0653 31.0767 42.9567 31.0321 42.8462 31.0321H42.3547Z" fill="#EEEFEB"/>
<path d="M48.2257 38.5805H42.3547C41.661 38.5805 41.0967 38.0161 41.0967 37.3224V31.4514C41.0967 30.7577 41.661 30.1934 42.3547 30.1934H42.8462C43.1775 30.1934 43.5014 30.3277 43.7361 30.5615L49.1156 35.9411C49.3531 36.1794 49.4838 36.4956 49.4838 36.831V37.3224C49.4838 38.0161 48.9195 38.5805 48.2257 38.5805ZM42.3547 31.0321C42.1242 31.0321 41.9354 31.22 41.9354 31.4514V37.3224C41.9354 37.5538 42.1242 37.7417 42.3547 37.7417H48.2257C48.4563 37.7417 48.6451 37.5538 48.6451 37.3224V36.831C48.6451 36.7212 48.5996 36.6127 48.5226 36.5341L43.1431 31.1545C43.0653 31.0767 42.9567 31.0321 42.8462 31.0321H42.3547Z" fill="#EEEFEB"/>
<path d="M37.3225 23.9033H40.6774V28.0969H37.3225V23.9033Z" fill="#EEEFEB"/>
<path d="M37.3225 23.9033H40.6774V28.0969H37.3225V23.9033Z" fill="#FFD3B4" fill-opacity="0.44"/>
<path d="M40.6775 28.5161H39.7942C39.5628 28.5161 39.3748 28.3282 39.3748 28.0968C39.3748 27.8654 39.5628 27.6774 39.7942 27.6774H40.2582V24.3226H37.742V28.0968C37.742 28.3282 37.5541 28.5161 37.3227 28.5161C37.0913 28.5161 36.9033 28.3282 36.9033 28.0968V23.9032C36.9033 23.6719 37.0913 23.4839 37.3227 23.4839H40.6775C40.9089 23.4839 41.0969 23.6719 41.0969 23.9032V28.0968C41.0969 28.3282 40.9089 28.5161 40.6775 28.5161Z" fill="#EEEFEB"/>
<path d="M48.2259 49.0643H36.484C36.0212 49.0643 35.6453 48.6884 35.6453 48.2256V41.516C35.6453 41.0532 36.0212 40.6772 36.484 40.6772H48.2259C48.6887 40.6772 49.0646 41.0532 49.0646 41.516V48.2256C49.0646 48.6884 48.6887 49.0643 48.2259 49.0643Z" fill="#F0F0E6"/>
<path d="M36.4839 49.4836C35.7902 49.4836 35.2258 48.9193 35.2258 48.2256V41.5159C35.2258 40.8221 35.7902 40.2578 36.4839 40.2578H37.9676C38.199 40.2578 38.387 40.4458 38.387 40.6772C38.387 40.9085 38.199 41.0965 37.9676 41.0965H36.4839C36.2533 41.0965 36.0645 41.2845 36.0645 41.5159V48.2256C36.0645 48.4569 36.2533 48.6449 36.4839 48.6449C36.7153 48.6449 36.9032 48.8329 36.9032 49.0643C36.9032 49.2956 36.7153 49.4836 36.4839 49.4836Z" fill="#EEEFEB"/>
<path d="M39.8539 49.4837H38.2404C38.0086 49.4837 37.821 49.2958 37.821 49.0644C37.821 48.833 38.0086 48.645 38.2404 48.645H39.8539C40.0853 48.645 40.2733 48.833 40.2733 49.0644C40.2733 49.2958 40.0853 49.4837 39.8539 49.4837Z" fill="#EEEFEB"/>
<path d="M48.2258 49.4836H45.8378C45.6064 49.4836 45.4185 49.2956 45.4185 49.0643C45.4185 48.8329 45.6064 48.6449 45.8378 48.6449H48.2258C48.4563 48.6449 48.6451 48.4569 48.6451 48.2256V41.5159C48.6451 41.2845 48.4563 41.0965 48.2258 41.0965C47.9944 41.0965 47.8064 40.9085 47.8064 40.6772C47.8064 40.4458 47.9944 40.2578 48.2258 40.2578C48.9195 40.2578 49.4838 40.8221 49.4838 41.5159V48.2256C49.4838 48.9193 48.9195 49.4836 48.2258 49.4836Z" fill="#EEEFEB"/>
<path d="M46.3093 41.0965H44.7494C44.5181 41.0965 44.3301 40.9086 44.3301 40.6772C44.3301 40.4458 44.5181 40.2578 44.7494 40.2578H46.3093C46.5411 40.2578 46.7287 40.4458 46.7287 40.6772C46.7287 40.9086 46.5411 41.0965 46.3093 41.0965Z" fill="#EEEFEB"/>
<path d="M21.3871 16.3551L3.77417 3.77441C3.77417 3.77441 9.64514 4.61312 15.5161 8.80667C21.3871 13.0002 21.3871 16.3551 21.3871 16.3551Z" fill="#7A7585"/>
<path d="M15.5161 10.4841C18.4516 12.5809 19.9193 14.468 20.6532 15.8309L21.3871 16.3551C21.3871 16.3551 21.3871 13.0002 15.5161 8.80667C9.64514 4.61312 3.77417 3.77441 3.77417 3.77441L7.44352 6.39538C9.64514 7.12925 12.5806 8.38732 15.5161 10.4841Z" fill="#EEEFEB"/>
<path d="M21.3871 16.7742C21.3006 16.7742 21.2159 16.7484 21.143 16.6964L3.53007 4.11571C3.3724 4.00309 3.31302 3.79751 3.3851 3.61814C3.45635 3.43959 3.64597 3.33475 3.83271 3.35891C4.07679 3.39413 9.87322 4.26069 15.7602 8.46488C21.7376 12.735 21.8064 16.209 21.8064 16.3548C21.8064 16.5125 21.7192 16.6558 21.5791 16.7271C21.5177 16.7582 21.4526 16.7742 21.3871 16.7742ZM5.6981 4.63295L20.7363 15.3744C20.2924 14.1274 19.0061 11.814 15.272 9.14797C11.5969 6.52168 7.88989 5.22594 5.6981 4.63295Z" fill="#EEEFEB"/>
<path d="M12.5808 15.7953C12.5808 17.648 11.0786 19.1501 9.22593 19.1501C7.37324 19.1501 5.87109 17.648 5.87109 15.7953C5.87109 13.2984 9.22593 10.2036 9.22593 10.2036C9.22593 10.2036 12.5808 13.2984 12.5808 15.7953Z" fill="#5F5E6A"/>
<path d="M9.22593 18.0324C7.5694 18.0324 6.19749 16.8312 5.92392 15.2529C5.89198 15.4356 5.87109 15.6178 5.87109 15.7956C5.87109 17.6482 7.37324 19.1504 9.22593 19.1504C11.0786 19.1504 12.5808 17.6482 12.5808 15.7956C12.5808 15.6178 12.5599 15.4356 12.5279 15.2529C12.2544 16.8312 10.8825 18.0324 9.22593 18.0324Z" fill="#5F5E6A"/>
<path d="M9.22593 11.8819C9.22593 11.8819 11.8924 14.346 12.4665 16.6516C12.539 16.3772 12.5808 16.0922 12.5808 15.7953C12.5808 13.2984 9.22593 10.2036 9.22593 10.2036C9.22593 10.2036 5.87109 13.2984 5.87109 15.7953C5.87109 16.0914 5.91287 16.3772 5.98535 16.6508C6.55951 14.346 9.22593 11.8819 9.22593 11.8819Z" fill="#E9E9E9"/>
<path d="M44.8709 45.7097C44.8709 47.0996 43.7447 48.2258 42.3548 48.2258C40.9648 48.2258 39.8386 47.0996 39.8386 45.7097C39.8386 43.8369 42.3548 41.5161 42.3548 41.5161C42.3548 41.5161 44.8709 43.8369 44.8709 45.7097Z" fill="#5F5E6A"/>
<path d="M42.3548 46.5486C41.2576 46.5486 40.335 45.8425 39.9906 44.8638C39.8972 45.1496 39.8386 45.4346 39.8386 45.7099C39.8386 47.0998 40.9648 48.226 42.3548 48.226C43.7447 48.226 44.8709 47.0998 44.8709 45.7099C44.8709 45.4346 44.8123 45.1496 44.7189 44.8638C44.3745 45.8425 43.4519 46.5486 42.3548 46.5486Z" fill="#5F5E6A"/>
<path d="M42.3548 43.1935C42.3548 43.1935 44.1804 44.882 44.7189 46.541C44.8115 46.2793 44.8709 46.0025 44.8709 45.7097C44.8709 43.8369 42.3548 41.5161 42.3548 41.5161C42.3548 41.5161 39.8386 43.8369 39.8386 45.7097C39.8386 46.0025 39.898 46.2793 39.9906 46.541C40.5291 44.882 42.3548 43.1935 42.3548 43.1935Z" fill="#E9E9E9"/>
<path d="M42.3549 48.6452C40.7361 48.6452 39.4194 47.3286 39.4194 45.7097C39.4194 43.6768 41.9626 41.3073 42.0707 41.2074C42.2308 41.0591 42.4782 41.0591 42.6391 41.2074C42.7472 41.3073 45.2904 43.6768 45.2904 45.7097C45.2904 47.3286 43.9738 48.6452 42.3549 48.6452ZM42.3549 42.1018C41.5834 42.8901 40.2581 44.4951 40.2581 45.7097C40.2581 46.8654 41.1984 47.8065 42.3549 47.8065C43.5114 47.8065 44.4517 46.8654 44.4517 45.7097C44.4517 44.4926 43.1265 42.8885 42.3549 42.1018Z" fill="#EEEFEB"/>
<path d="M9.22585 19.5695C7.14505 19.5695 5.45166 17.8761 5.45166 15.7953C5.45166 13.1449 8.79913 10.0267 8.94164 9.89488C9.10177 9.74663 9.34912 9.74663 9.51007 9.89488C9.65258 10.0267 13 13.1449 13 15.7953C13 17.877 11.3067 19.5695 9.22585 19.5695ZM9.22585 10.7901C8.43915 11.5834 6.29037 13.9209 6.29037 15.7953C6.29037 17.4142 7.607 18.7308 9.22585 18.7308C10.8447 18.7308 12.1613 17.4142 12.1613 15.7953C12.1613 13.9185 10.0126 11.5834 9.22585 10.7901Z" fill="#EEEFEB"/>
</g>
<defs>
<clipPath id="clip0">
<rect width="52" height="52" fill="white"/>
</clipPath>
</defs>
</svg>
