<svg width="192" height="192" viewBox="0 0 192 192" fill="none" xmlns="http://www.w3.org/2000/svg">
<g clip-path="url(#clip0)">
<path d="M177.082 130.411C181.379 119.783 183.75 108.169 183.75 96C183.75 45.2588 142.616 4.125 91.8749 4.125C64.2239 4.125 39.4285 16.3421 22.5854 35.6704L14.9631 130.411H177.082Z" fill="#D4EDEF"/>
<path d="M14.9633 130.411L13.8308 144.489C30.0477 170.535 58.9339 187.875 91.8751 187.875C130.447 187.875 163.462 164.102 177.082 130.411H14.9633Z" fill="#74727F"/>
<path d="M84.5772 130.411H14.9633L13.8308 144.489C28.6549 168.298 54.0661 184.829 83.4826 187.494C55.8916 179.456 56.9446 137.54 84.5772 130.411Z" fill="#5F5E6A"/>
<path d="M14.1625 145.021H27.3835C30.943 145.021 33.8286 142.135 33.8286 138.576V133.733H8.08228C9.8489 137.65 11.8859 141.419 14.1625 145.021Z" fill="#74727F"/>
<path d="M20.9557 138.576V133.733H8.08228C9.8489 137.65 11.8859 141.419 14.1625 145.021H27.3835C27.3865 145.021 27.3891 145.02 27.3921 145.02C23.8364 145.016 20.9557 142.132 20.9557 138.576Z" fill="#4B4A55"/>
<path d="M0 96C0 109.639 2.97562 122.581 8.30737 134.22H73.0856V45.9525H14.8215C5.4495 60.3521 0 77.5388 0 96H0Z" fill="#C6C6C1"/>
<path d="M14.8215 45.9525C5.4495 60.3521 0 77.5388 0 96C0 109.639 2.97562 122.581 8.30737 134.22H32.2163V47.3828C32.2163 46.884 32.2432 46.4123 32.2826 45.9529H14.8215V45.9525Z" fill="#E9E9E9"/>
<path d="M60.0562 57.3207H8.73553L5.19028 65.5092C3.5564 70.1551 2.2904 74.9738 1.41553 79.9272V83.4983H60.0562C61.6278 83.4983 62.9017 82.2244 62.9017 80.6528V60.1658C62.9017 58.5946 61.6278 57.3207 60.0562 57.3207Z" fill="#363540"/>
<path d="M59.6633 97.4741H0.0187988C0.0574238 99.9289 0.190924 102.36 0.418549 104.765H59.6633C61.6767 104.765 63.3087 103.133 63.3087 101.12C63.309 99.1061 61.6767 97.4741 59.6633 97.4741Z" fill="#C6C6C1"/>
<path d="M59.6631 111.615H1.32739C1.74927 114.079 2.26452 116.512 2.87877 118.906H59.6631C61.6765 118.906 63.3085 117.273 63.3085 115.26C63.3089 113.247 61.6765 111.615 59.6631 111.615Z" fill="#C6C6C1"/>
<path d="M28.2687 101.12C28.2687 99.1061 29.901 97.4741 31.914 97.4741H0.0187988C0.0574238 99.9289 0.190924 102.36 0.418549 104.765H31.914C29.901 104.765 28.2687 103.133 28.2687 101.12Z" fill="#C6C6C1"/>
<path d="M28.2685 115.26C28.2685 113.247 29.9009 111.615 31.9139 111.615H1.32739C1.74964 114.079 2.26452 116.512 2.87877 118.906H31.9139C29.9009 118.906 28.2685 117.274 28.2685 115.26Z" fill="#C6C6C1"/>
<path d="M126.65 46.9354L130.838 76.4171C131.115 78.3668 132.773 79.8259 134.743 79.845C137.665 79.8731 141.389 79.9388 143.993 80.034C140.48 65.4041 132.241 44.4893 132.241 44.4893H128.773C127.468 44.4896 126.466 45.6443 126.65 46.9354Z" fill="#363540"/>
<path d="M132.24 44.4896H128.773C127.469 44.4896 126.466 45.6443 126.65 46.9354L130.383 73.2176C132.571 72.753 134.714 71.7315 134.998 69.5269C135.601 64.848 139.72 65.3366 139.72 65.3366C136.142 54.3926 132.24 44.4896 132.24 44.4896Z" fill="#21212B"/>
<path d="M185.604 117.859C182.757 117.859 180.429 115.531 180.429 112.684V104.173C180.429 101.327 182.757 98.9981 185.604 98.9981H185.786V95.9171C185.786 90.4706 182.163 85.6957 176.92 84.2201C169.697 82.1872 157.081 80.0524 135.715 79.8454C133.746 79.8262 132.087 78.3667 131.81 76.4175L127.622 46.9357C127.62 46.9226 127.62 46.9099 127.618 46.8967H72.5996V140.269C72.5996 143.162 74.9449 145.507 77.838 145.507H124.455V136.095C124.455 118.965 138.341 105.079 155.471 105.079C166.626 105.079 176.4 110.972 181.864 119.811H182.594L185.785 118.802V117.859H185.604Z" fill="#C6C6C1"/>
<path d="M135.754 143.862C135.948 144.42 136.162 144.969 136.399 145.507H136.583C136.284 144.972 136.009 144.422 135.754 143.862Z" fill="#C6C6C1"/>
<path d="M112.526 57.3207H83.7792C82.0414 57.3207 80.6326 58.7296 80.6326 60.4673V145.507H115.672V60.4673C115.672 58.7296 114.264 57.3207 112.526 57.3207Z" fill="#E9E9E9"/>
<path d="M93.7763 138.865C93.7763 138.865 93.7763 70.2679 93.7763 63.7748C93.7763 57.2817 98.1526 57.3207 98.1526 57.3207H83.7792C82.0414 57.3207 80.6326 58.7296 80.6326 60.4673V145.507H98.1526C93.1283 145.507 93.7763 138.865 93.7763 138.865Z" fill="#D6D6D0"/>
<path d="M108.901 93.564V65.4128C108.901 64.5079 108.168 63.7748 107.263 63.7748H89.1314C88.2265 63.7748 87.4934 64.5083 87.4934 65.4128V93.564C87.4934 94.4689 88.2269 95.202 89.1314 95.202H107.263C108.168 95.202 108.901 94.4689 108.901 93.564Z" fill="#363540"/>
<path d="M98.1972 93.564V65.4128C98.1972 64.5083 98.9307 63.7748 99.8352 63.7748H89.1312C88.2263 63.7748 87.4932 64.5083 87.4932 65.4128V93.564C87.4932 94.4689 88.2267 95.202 89.1312 95.202H99.8352C98.9307 95.202 98.1972 94.4689 98.1972 93.564Z" fill="#21212B"/>
<path d="M139.311 96.8692H135.796C133.783 96.8692 132.151 95.2372 132.151 93.2239C132.151 91.2105 133.783 89.5785 135.796 89.5785H139.311C141.324 89.5785 142.956 91.2105 142.956 93.2239C142.956 95.2372 141.324 96.8692 139.311 96.8692Z" fill="#FFD600"/>
<path d="M133.825 69.3679H129.783C127.382 69.3679 125.417 71.2538 125.417 73.5589V80.1724C125.417 82.4776 127.382 84.3634 129.783 84.3634H133.825C136.227 84.3634 138.191 82.4776 138.191 80.1724V73.5589C138.192 71.2538 136.227 69.3679 133.825 69.3679Z" fill="#EEEFEB"/>
<path d="M131.804 80.1721V73.5586C131.804 71.6438 133.162 70.0219 134.998 69.5266C134.624 69.4257 134.232 69.3676 133.825 69.3676H129.783C127.382 69.3676 125.417 71.2534 125.417 73.5586V80.1721C125.417 82.4772 127.382 84.3631 129.783 84.3631H133.825C134.232 84.3631 134.624 84.3049 134.998 84.2041C133.162 83.7091 131.804 82.0872 131.804 80.1721Z" fill="#D6D6D0"/>
<path d="M90.131 112.446C88.1176 112.446 86.4856 110.814 86.4856 108.801V105.599C86.4856 103.586 88.1176 101.954 90.131 101.954C92.1443 101.954 93.7763 103.586 93.7763 105.599V108.801C93.7763 110.814 92.1443 112.446 90.131 112.446Z" fill="#C6C6C1"/>
<path d="M80.6326 134.219H115.672V146.403H80.6326V134.219Z" fill="#4B4A55"/>
<path d="M93.7763 134.219H80.6326V146.403H97.7033L98.1526 145.507C93.1283 145.507 93.7763 138.865 93.7763 138.865C93.7763 138.865 93.7763 137.142 93.7763 134.219Z" fill="#363540"/>
<path d="M80.6326 145.507V152.574C80.6326 154.905 82.5222 156.794 84.8528 156.794H111.452C113.783 156.794 115.672 154.905 115.672 152.574V145.507H80.6326Z" fill="#5F5E6A"/>
<path d="M98.1526 152.574V145.507H80.6326V152.574C80.6326 154.905 82.5222 156.795 84.8528 156.795H102.373C100.042 156.795 98.1526 154.905 98.1526 152.574Z" fill="#4B4A55"/>
<path d="M60.0561 53.6757H10.3139C8.33427 57.4827 6.61527 61.446 5.17639 65.5418V79.8533H1.41552C0.99027 82.2522 0.66177 84.6844 0.42627 87.144H60.0561C63.6352 87.144 66.547 84.2322 66.547 80.6532V60.1662C66.547 56.5872 63.6352 53.6757 60.0561 53.6757ZM32.2161 79.8529H12.4671V60.966H32.2161V79.8529ZM59.2563 79.8529H39.5073V60.966H59.2563V79.8529Z" fill="#C6C6C1"/>
<path d="M13.9109 47.3827H73.0855V35.2053H22.9975C19.6469 38.9988 16.6053 43.0706 13.9109 47.3827Z" fill="#EEEFEB"/>
<path d="M41.7079 35.2053H22.9976C19.6466 38.9988 16.6054 43.0706 13.9106 47.3823H32.2163C32.2163 36.7057 41.7079 35.2053 41.7079 35.2053Z" fill="#D6D6D0"/>
<path d="M127.685 47.3828L127.622 46.9358C127.438 45.6447 128.44 44.49 129.745 44.49H132.24L131.865 42.0229C131.268 38.1027 127.896 35.2062 123.931 35.2062H72.5996V47.3832H127.685V47.3828Z" fill="#EEEFEB"/>
<path d="M154.721 103.203C137.592 103.203 123.705 117.09 123.705 134.219V145.507H136.584C134.817 142.351 133.804 138.718 133.804 134.852C133.804 122.788 143.62 112.972 155.684 112.972C161.926 112.972 167.562 115.604 171.552 119.811H182.186C176.996 109.939 166.648 103.203 154.721 103.203Z" fill="#5F5E6A"/>
<path d="M144.551 116.027C144.545 115.846 144.548 115.671 144.561 115.504C144.617 114.728 144.123 114.034 143.392 113.767C140.027 112.538 139.861 109.543 140.051 107.899C140.089 107.573 140.03 107.254 139.897 106.969C130.251 112.228 123.705 122.459 123.705 134.219V145.507H136.584C134.817 142.351 133.804 138.718 133.804 134.852C133.804 126.851 138.124 119.842 144.551 116.027Z" fill="#4B4A55"/>
<path d="M187.5 135.98H173.958C171.483 135.98 169.458 133.955 169.458 131.48V123.201C169.458 120.726 171.483 118.701 173.958 118.701H187.5C189.975 118.701 192 120.726 192 123.201V131.48C192 133.955 189.975 135.98 187.5 135.98Z" fill="#4B4A55"/>
<path d="M180.729 131.48V123.201C180.729 120.726 182.754 118.701 185.229 118.701H173.958C171.483 118.701 169.458 120.726 169.458 123.201V131.48C169.458 133.955 171.483 135.98 173.958 135.98H185.229C182.754 135.98 180.729 133.955 180.729 131.48Z" fill="#363540"/>
<path d="M154.721 156.646C142.355 156.646 132.294 146.586 132.294 134.22C132.294 121.854 142.355 111.793 154.721 111.793C167.087 111.793 177.148 121.854 177.148 134.22C177.148 146.586 167.087 156.646 154.721 156.646ZM154.721 121.559C147.74 121.559 142.061 127.239 142.061 134.22C142.061 141.201 147.74 146.88 154.721 146.88C161.702 146.88 167.382 141.201 167.382 134.22C167.381 127.239 161.702 121.559 154.721 121.559Z" fill="#21212B"/>
<path d="M166.517 146.843C166.398 146.118 165.853 145.524 165.128 145.404C163.928 145.206 163.107 144.738 162.54 144.166C160.385 145.863 157.67 146.88 154.721 146.88C147.74 146.88 142.061 141.2 142.061 134.219C142.061 129.879 144.257 126.043 147.596 123.761C147.092 122.761 147.125 121.657 147.282 120.81C147.424 120.044 147.03 119.294 146.337 118.939C144.719 118.113 144.481 116.609 144.561 115.504C144.59 115.097 144.465 114.714 144.237 114.402C137.14 118.172 132.294 125.639 132.294 134.219C132.294 146.585 142.355 156.646 154.721 156.646C161.136 156.646 166.927 153.935 171.018 149.602C167.657 150.098 166.744 148.22 166.517 146.843Z" fill="black"/>
<path d="M163.641 143.172C168.584 138.229 168.584 130.214 163.641 125.271C158.698 120.327 150.683 120.327 145.739 125.271C140.796 130.214 140.796 138.229 145.739 143.172C150.683 148.116 158.698 148.116 163.641 143.172Z" fill="#D6D6D0"/>
<path d="M162.54 144.166C161.705 143.323 161.427 142.248 161.351 141.447C161.285 140.752 160.811 140.174 160.148 139.953C151.887 137.206 151.009 130.229 151.014 127.351C151.015 126.635 150.582 125.991 149.916 125.728C148.694 125.244 147.985 124.533 147.596 123.76C144.257 126.042 142.061 129.879 142.061 134.219C142.061 141.2 147.74 146.879 154.721 146.879C157.67 146.88 160.385 145.863 162.54 144.166Z" fill="#C6C6C1"/>
<path d="M154.721 150.525C145.73 150.525 138.416 143.211 138.416 134.219C138.416 125.228 145.73 117.914 154.721 117.914C163.712 117.914 171.027 125.228 171.027 134.219C171.027 143.211 163.712 150.525 154.721 150.525ZM154.721 125.205C149.75 125.205 145.706 129.249 145.706 134.22C145.706 139.19 149.75 143.234 154.721 143.234C159.692 143.234 163.736 139.19 163.736 134.22C163.736 129.249 159.692 125.205 154.721 125.205Z" fill="#EEEFEB"/>
<path d="M166.065 145.916C165.822 145.652 165.499 145.465 165.128 145.404C162.163 144.914 161.48 142.793 161.351 141.447C161.322 141.146 161.214 140.869 161.05 140.632C159.421 142.24 157.185 143.235 154.721 143.235C149.75 143.235 145.706 139.191 145.706 134.22C145.706 130.738 147.692 127.713 150.59 126.211C150.41 126.003 150.183 125.834 149.916 125.728C147.113 124.619 147.004 122.313 147.282 120.81C147.348 120.451 147.294 120.098 147.15 119.785C141.962 122.518 138.416 127.961 138.416 134.22C138.416 143.211 145.73 150.525 154.721 150.525C159.128 150.525 163.128 148.765 166.065 145.916Z" fill="#D6D6D0"/>
<path d="M187.5 118.288H183.586C181.111 118.288 179.086 116.263 179.086 113.788V103.349C179.086 100.874 181.111 98.8492 183.586 98.8492H187.5C189.975 98.8492 192 100.874 192 103.349V113.788C192 116.263 189.975 118.288 187.5 118.288Z" fill="#EEEFEB"/>
<path d="M187.5 109.523H183.586C181.111 109.523 179.086 107.498 179.086 105.023V113.789C179.086 116.264 181.111 118.289 183.586 118.289H187.5C189.975 118.289 192 116.264 192 113.789V105.023C192 107.498 189.975 109.523 187.5 109.523Z" fill="#D6D6D0"/>
<path d="M32.2825 53.6757H10.3139C8.33427 57.4827 6.61527 61.446 5.17639 65.5418V79.8533H1.41552C0.99027 82.2522 0.66177 84.6844 0.42627 87.144H32.2161C26.8495 83.1447 32.2161 79.8533 32.2161 79.8533H12.4671V60.9664H32.2161C26.7246 56.9142 32.2825 53.6757 32.2825 53.6757Z" fill="#C6C6C1"/>
</g>
<defs>
<clipPath id="clip0">
<rect width="192" height="192" fill="white"/>
</clipPath>
</defs>
</svg>
